<svg width="70" height="24" viewBox="0 0 70 24" fill="none" xmlns="http://www.w3.org/2000/svg">
<path d="M2.02995 0.0940346C2.13997 0.0637841 2.2885 0.0280335 2.36002 0.0170333C2.43153 0.00603309 4.56875 -0.00221705 7.11031 0.000533C11.6791 0.00603309 11.7368 0.00878314 12.1989 0.0665341C12.4575 0.0995347 12.8096 0.151786 12.9829 0.182036C13.1561 0.215037 13.4615 0.275538 13.6567 0.319539C13.852 0.363539 14.2069 0.454291 14.4407 0.520292C14.6745 0.589043 15.0403 0.707295 15.2521 0.787046C15.4639 0.866798 15.8297 1.0153 16.0635 1.1198C16.2973 1.2243 16.6522 1.39756 16.8474 1.50481C17.0427 1.61481 17.3618 1.80181 17.5571 1.92557C17.7496 2.04657 18.0467 2.25282 18.2172 2.37932C18.385 2.50583 18.6353 2.70383 18.7729 2.81658C18.9104 2.93208 19.224 3.22909 19.4743 3.47934C19.7246 3.7296 20.0547 4.08985 20.2059 4.27961C20.3572 4.46936 20.5608 4.74161 20.6625 4.88462C20.7616 5.02762 20.9458 5.31362 21.0696 5.51713C21.1934 5.72063 21.3997 6.10014 21.5235 6.35589C21.65 6.6144 21.8095 6.9719 21.8811 7.15341C21.9526 7.33491 22.0598 7.63191 22.1176 7.81342C22.1781 7.99492 22.2634 8.28093 22.3074 8.44593C22.3514 8.61368 22.4174 8.89694 22.4559 9.07844C22.4944 9.25994 22.5439 9.5322 22.566 9.68345C22.5907 9.8347 22.6292 10.1262 22.654 10.3297C22.676 10.5332 22.7035 11.0337 22.7117 11.4435C22.72 11.8945 22.7145 12.3592 22.6952 12.626C22.6787 12.868 22.6457 13.22 22.621 13.4098C22.5962 13.5995 22.5467 13.9213 22.5109 14.1248C22.4724 14.3283 22.4037 14.65 22.3597 14.8398C22.3129 15.0295 22.2249 15.3458 22.1644 15.541C22.1039 15.7363 21.9746 16.1021 21.8756 16.3523C21.7793 16.6026 21.595 17.0096 21.4712 17.2598C21.3447 17.5101 21.1549 17.8621 21.0449 18.0436C20.9348 18.2251 20.7533 18.5029 20.6405 18.6624C20.5305 18.8219 20.349 19.0639 20.2389 19.2014C20.1289 19.3416 19.9144 19.5919 19.7631 19.7624C19.6118 19.9329 19.334 20.2161 19.1442 20.3894C18.9544 20.5654 18.6381 20.8376 18.4428 20.9944C18.2475 21.1484 17.9119 21.3932 17.7001 21.5334C17.4883 21.6737 17.1665 21.8744 16.985 21.9789C16.8034 22.0807 16.4816 22.2484 16.2698 22.3502C16.058 22.4492 15.7307 22.5949 15.5409 22.6719C15.3511 22.7462 15.0596 22.8534 14.8945 22.9112C14.7295 22.9662 14.4434 23.0542 14.2619 23.1037C14.0803 23.1559 13.7338 23.2412 13.4917 23.2934C13.2497 23.3457 12.8783 23.4144 12.6665 23.4447C12.4547 23.4749 12.0889 23.5217 11.8551 23.5464C11.481 23.5877 10.9529 23.5959 7.59992 23.6042C5.05836 23.6097 3.76833 23.6042 3.76833 23.5849C3.76833 23.5712 3.90036 23.4804 4.06264 23.3897C4.22768 23.2962 4.5715 23.0817 4.82731 22.9112C5.08312 22.7379 5.45445 22.4712 5.65249 22.3144C5.85053 22.1549 6.13935 21.9019 6.29888 21.7507C6.45842 21.5994 6.69497 21.3519 6.82425 21.2034C6.95353 21.0549 7.11856 20.8514 7.19283 20.7524C7.2671 20.6534 7.32761 20.5709 7.32761 20.5654C7.33036 20.5626 7.42938 20.6011 7.55041 20.6506C7.67143 20.7029 7.89423 20.7881 8.04552 20.8431C8.1968 20.8981 8.46911 20.9861 8.65065 21.0411C8.83219 21.0961 9.15951 21.1759 9.37956 21.2199C9.59961 21.2639 9.94068 21.3216 10.136 21.3464C10.3533 21.3739 10.7026 21.3904 11.0299 21.3932C11.3242 21.3932 11.6846 21.3794 11.8276 21.3601C11.9706 21.3436 12.2319 21.2996 12.4052 21.2639C12.5785 21.2281 12.8756 21.1484 13.0654 21.0851C13.2552 21.0219 13.5577 20.8981 13.7393 20.8074C13.9208 20.7194 14.1794 20.5736 14.3169 20.4856C14.4544 20.3949 14.68 20.2244 14.823 20.1034C14.966 19.9851 15.1641 19.7954 15.2631 19.6854C15.3621 19.5726 15.5107 19.3939 15.5932 19.2866C15.6729 19.1766 15.7995 18.9896 15.8737 18.8686C15.9838 18.6871 16.0388 18.6266 16.1928 18.5194C16.2946 18.4506 16.4981 18.2691 16.6439 18.1206C16.7869 17.9721 16.9685 17.7576 17.0427 17.6448C17.1198 17.5321 17.227 17.3588 17.282 17.2598C17.3343 17.1608 17.4168 16.9876 17.4608 16.8748C17.5076 16.7621 17.5626 16.5943 17.5874 16.5036C17.6094 16.4128 17.6424 16.2588 17.6561 16.1598C17.6781 16.0113 17.7084 15.9398 17.8349 15.7473C17.9202 15.6181 18.033 15.409 18.0825 15.2798C18.1347 15.1505 18.198 14.947 18.2255 14.826C18.264 14.6638 18.2778 14.5015 18.2778 14.2073C18.275 13.9653 18.2613 13.759 18.2393 13.6848C18.22 13.616 18.1842 13.539 18.1595 13.5115C18.132 13.484 18.088 13.4648 18.0577 13.4648C18.0275 13.4648 17.8349 13.5583 17.6314 13.6738C17.4278 13.7893 17.0317 13.9983 16.7512 14.1358C16.4706 14.2733 16.1048 14.441 15.9397 14.507C15.7747 14.573 15.4749 14.683 15.2796 14.749C15.0843 14.815 14.7845 14.9058 14.6195 14.9498C14.4544 14.9938 14.1629 15.0625 13.9731 15.0983C13.7833 15.1368 13.4615 15.1863 13.2579 15.2083C13.0544 15.233 12.7133 15.2578 12.5015 15.2688C12.2897 15.277 11.8991 15.2715 11.6351 15.255C11.371 15.2358 10.9447 15.1918 10.6861 15.156C10.4275 15.1203 10.0755 15.057 9.90217 15.0213C9.72889 14.9828 9.42632 14.9113 9.23103 14.8618C8.91196 14.7793 8.87345 14.7628 8.85694 14.7023C8.84594 14.6638 8.82119 14.4658 8.80193 14.2623C8.78543 14.0588 8.74142 13.7068 8.70566 13.4785C8.6699 13.253 8.59014 12.7938 8.52962 12.461C8.46911 12.1282 8.40585 11.7515 8.38659 11.6222C8.37009 11.4902 8.36459 11.3032 8.37559 11.196C8.38659 11.0887 8.4196 10.9347 8.44986 10.8522C8.48836 10.7477 8.55163 10.657 8.6534 10.558C8.76067 10.4535 8.84319 10.4012 8.94771 10.3682C9.02473 10.3435 9.20352 10.3187 9.3383 10.3105C9.48133 10.3022 9.76464 10.316 10.0122 10.3407C10.246 10.3682 10.5926 10.4177 10.7824 10.4535C10.9722 10.492 11.261 10.5607 11.4288 10.6075C11.5965 10.6542 11.8496 10.734 11.9926 10.789C12.1357 10.844 12.353 10.9375 12.474 10.998C12.595 11.0585 12.7435 11.1382 12.8041 11.1795C12.8646 11.218 12.9884 11.306 13.0791 11.372C13.1699 11.4407 13.4312 11.6497 13.6567 11.8395C13.885 12.0265 14.1188 12.2052 14.1794 12.2327C14.2399 12.2575 14.3389 12.2822 14.3994 12.2822C14.4682 12.2822 14.5369 12.263 14.5865 12.2272C14.6277 12.197 14.6745 12.1255 14.6937 12.0705C14.7102 12.0127 14.724 11.8477 14.7212 11.7047C14.7157 11.5617 14.6965 11.3142 14.6745 11.1547C14.6497 10.9952 14.592 10.712 14.5452 10.5222C14.4984 10.3325 14.4324 10.0987 14.3939 9.99971C14.3582 9.9007 14.2894 9.75495 14.2454 9.67795C14.2014 9.5982 14.1739 9.52395 14.1821 9.51295C14.1904 9.4992 14.6332 9.49095 15.1641 9.49095C16.0085 9.49095 16.1598 9.49645 16.3523 9.54045C16.4734 9.5707 16.6522 9.6312 16.7484 9.67795C16.8447 9.72745 16.9712 9.8182 17.029 9.8842C17.0895 9.94745 17.1803 10.0905 17.2353 10.2005C17.2903 10.3077 17.3783 10.4507 17.4278 10.5167C17.4856 10.5882 17.5819 10.6597 17.6781 10.7092C17.8239 10.778 17.8652 10.7835 18.1677 10.7835C18.4648 10.7835 18.5116 10.7752 18.6353 10.7147C18.7096 10.6762 18.8141 10.6075 18.8609 10.558C18.9104 10.5085 18.9819 10.4095 19.0177 10.338C19.0534 10.2637 19.1057 10.1317 19.1304 10.041C19.1607 9.9282 19.1827 9.7247 19.191 9.39469C19.1992 9.10319 19.1937 8.80068 19.1745 8.62468C19.1552 8.46518 19.1167 8.22317 19.0837 8.08842C19.0534 7.95367 18.9902 7.73642 18.9462 7.60716C18.8994 7.47791 18.8004 7.24966 18.7234 7.09841C18.6463 6.94715 18.5116 6.7299 18.4263 6.61715C18.341 6.5044 18.176 6.32014 18.0605 6.21289C17.9449 6.10289 17.7441 5.94064 17.6094 5.85538C17.4773 5.76738 17.2655 5.65188 17.1363 5.59688C17.007 5.54188 16.7649 5.45938 16.5999 5.41813C16.3056 5.34113 16.2808 5.33837 15.6097 5.34112C15.0541 5.34112 14.8478 5.35488 14.5369 5.40163C14.3251 5.43463 13.9346 5.49238 13.6705 5.53363C13.2909 5.59138 13.0791 5.60788 12.1714 5.61338L11.9981 5.52538C11.9046 5.47588 11.7451 5.36313 11.6406 5.27512C11.5388 5.18712 11.2637 4.89837 11.0272 4.63436C10.7906 4.37036 10.4936 4.0541 10.367 3.9331C10.2405 3.80935 10.0562 3.6581 9.95719 3.59484C9.85816 3.53159 9.72063 3.46284 9.64637 3.44084C9.52809 3.40234 9.50884 3.38309 9.41532 3.21534C9.3603 3.11084 9.23378 2.94583 9.13476 2.84683C9.02473 2.73683 8.88445 2.62958 8.77993 2.57733C8.68641 2.53058 8.52687 2.47283 8.42235 2.44808C8.29857 2.41782 8.17755 2.40957 8.04552 2.42057C7.93824 2.42882 7.77871 2.46183 7.68794 2.49208C7.59717 2.52508 7.46514 2.58558 7.26159 2.71208L7.11856 2.65708C7.03879 2.62683 6.91777 2.59108 6.849 2.57458C6.78024 2.56083 6.65646 2.54708 6.57394 2.54708C6.49143 2.54708 6.34839 2.56633 6.25762 2.58833C6.16685 2.61308 6.03758 2.66808 5.96881 2.71208C5.90005 2.75333 5.81203 2.83583 5.77077 2.89633C5.73226 2.95408 5.6855 3.05309 5.66899 3.11909C5.64149 3.22359 5.63324 3.23459 5.56447 3.22359C5.52046 3.21534 5.42419 3.20159 5.34992 3.19334C5.27291 3.18234 5.13263 3.18784 5.03361 3.20709C4.93458 3.22634 4.7998 3.26759 4.73104 3.30334C4.66227 3.33634 4.5715 3.40234 4.52474 3.44634C4.47798 3.49034 4.41747 3.57559 4.38721 3.63335C4.3487 3.7131 4.33495 3.7956 4.33495 3.93585C4.3377 4.0431 4.35696 4.17235 4.41472 4.32636L4.23593 4.34561C4.13691 4.35386 3.96362 4.38961 3.85085 4.41986C3.73807 4.45011 3.56478 4.51886 3.46576 4.56836C3.36674 4.62061 3.22096 4.72786 3.14119 4.80762C3.06142 4.88737 2.9679 5.00837 2.93764 5.07712C2.90464 5.14587 2.87163 5.26962 2.86613 5.35213C2.85788 5.43738 2.86888 5.55288 2.89088 5.61338C2.91014 5.67388 2.96515 5.76463 3.00916 5.81688C3.05592 5.86638 3.14394 5.93514 3.20445 5.96539C3.26497 5.99564 3.36124 6.03414 3.52627 6.08089L3.38049 6.17989C3.29797 6.23489 3.17695 6.33389 3.10818 6.39989C3.03942 6.46589 2.9404 6.58415 2.88813 6.6584C2.83862 6.7354 2.77261 6.86465 2.74235 6.94715C2.70384 7.06265 2.69284 7.14791 2.70109 7.30466C2.71026 7.44216 2.7341 7.55033 2.77261 7.62916C2.80562 7.69242 2.88538 7.79692 2.9514 7.86017C3.01466 7.92342 3.13569 8.00592 3.21821 8.04717C3.35299 8.10767 3.40525 8.11592 3.98838 8.11592L4.00213 8.19842C4.00763 8.24242 4.02688 8.38543 4.04339 8.51468C4.05989 8.64393 4.13416 9.11419 4.20842 9.5597C4.28269 10.0052 4.36796 10.5442 4.39822 10.756C4.42847 10.9677 4.46698 11.3197 4.48348 11.5397C4.50274 11.768 4.50824 12.0622 4.49724 12.2272C4.48623 12.3867 4.45323 12.6287 4.42572 12.7635C4.39546 12.9065 4.3322 13.099 4.27444 13.2173C4.20842 13.3493 4.1149 13.4785 4.01863 13.5748C3.93336 13.6573 3.79308 13.7618 3.70781 13.803C3.61979 13.8443 3.46576 13.8993 3.36399 13.924C3.22921 13.957 3.05867 13.9708 2.7506 13.9708C2.47829 13.9708 2.20873 13.9543 2.00794 13.9213C1.83465 13.8938 1.51833 13.836 1.30654 13.792C1.09474 13.748 0.72891 13.66 0.495109 13.5995C0.261307 13.5363 0.0522615 13.484 0.0330072 13.4813C0.00550121 13.4785 0 12.4005 0.00825181 7.95092L0.00825713 7.94736C0.0165036 2.43157 0.016516 2.42327 0.0742663 2.18957C0.104523 2.06032 0.170537 1.85681 0.217298 1.73581C0.264058 1.61481 0.36583 1.41131 0.445598 1.28206C0.525365 1.1528 0.68215 0.952049 0.797675 0.831047C0.91045 0.712795 1.10299 0.550542 1.22402 0.470791C1.34505 0.38829 1.53209 0.283788 1.63661 0.237037C1.74113 0.190286 1.91992 0.124285 2.02995 0.0940346Z" fill="#FF6900"/>
<path d="M7.94099 3.13834C7.96575 3.08609 8.01251 3.03109 8.04277 3.01459C8.07577 3.00083 8.12803 2.98983 8.16379 2.98983C8.1968 2.98708 8.26556 3.00358 8.31507 3.02284C8.36184 3.04484 8.44435 3.10809 8.49386 3.16859C8.54338 3.22634 8.61764 3.36109 8.6589 3.46284C8.72216 3.6251 8.72767 3.65535 8.69191 3.67735C8.6699 3.6911 8.62039 3.7021 8.58188 3.7021C8.54338 3.7021 8.4086 3.72685 8.27932 3.75985C8.15004 3.7901 7.952 3.84785 7.83922 3.88635C7.72645 3.92485 7.54766 3.9991 7.44038 4.0541C7.33311 4.10635 7.17357 4.19986 7.08281 4.26036C6.99203 4.32086 6.827 4.45836 6.71697 4.56561C6.6042 4.67286 6.44742 4.85987 6.36765 4.98087C6.28513 5.10187 6.18336 5.28887 6.1366 5.39338C6.09259 5.50063 6.03207 5.67938 6.00182 5.79213C5.97156 5.90488 5.93305 6.12214 5.9138 6.27339C5.88904 6.45214 5.88354 6.6859 5.89454 6.94715C5.90555 7.16716 5.9358 7.47516 5.96606 7.63466C5.99357 7.79417 6.04583 8.02792 6.07883 8.15717C6.10909 8.28643 6.18061 8.53943 6.23562 8.72093C6.28788 8.90244 6.51618 9.5652 6.73898 10.1922C6.96178 10.8192 7.20658 11.537 7.2836 11.7872C7.36062 12.0375 7.46239 12.384 7.5064 12.5572C7.55316 12.7305 7.63293 13.0908 7.68519 13.3548C7.73745 13.6188 7.80346 14.0093 7.83097 14.221C7.86948 14.5208 7.88048 14.7958 7.88048 15.4448C7.88048 16.0003 7.86948 16.3661 7.84472 16.5311C7.82272 16.6686 7.76495 16.9573 7.70994 17.1773C7.65768 17.3973 7.56691 17.6998 7.50915 17.8511C7.45139 18.0023 7.36062 18.2251 7.3056 18.3461C7.24784 18.4671 7.14057 18.6761 7.06355 18.8136C6.98378 18.9511 6.838 19.1849 6.73623 19.3361C6.63721 19.4874 6.46667 19.7211 6.36215 19.8586C6.25762 19.9961 6.05408 20.2354 5.9083 20.3949C5.76527 20.5544 5.51221 20.8046 5.34717 20.9504C5.18214 21.0989 4.91258 21.3244 4.74479 21.4537C4.577 21.5829 4.28819 21.7919 4.0984 21.9184C3.90861 22.0449 3.60054 22.2374 3.41075 22.3474C3.22096 22.4574 2.89364 22.6334 2.68184 22.7407C2.47004 22.8452 2.11796 23.0129 1.89792 23.1092C1.66687 23.2109 1.47707 23.2797 1.44407 23.2714C1.41381 23.2659 1.29003 23.1917 1.16901 23.1119C1.04798 23.0322 0.871941 22.8864 0.77292 22.7874C0.676649 22.6884 0.550121 22.5399 0.495109 22.4574C0.437346 22.3749 0.354828 22.2292 0.305317 22.1357C0.258557 22.0394 0.189792 21.8717 0.151283 21.7644C0.115525 21.6544 0.0660145 21.4399 0.0412591 21.2886C0.00825181 21.0686 0 20.7221 0 18.0298H0.0632639C0.0962711 18.0298 0.445598 17.9666 0.838934 17.8896C1.23227 17.8153 1.57885 17.7438 1.6091 17.7301C1.65036 17.7136 1.67512 17.6613 1.70262 17.5321C1.72188 17.4358 1.74388 17.3396 1.74938 17.3231C1.75764 17.2956 1.57059 17.2873 0 17.2873V14.606L0.517114 14.7188C0.800426 14.782 1.18551 14.859 1.3753 14.892C1.56509 14.9223 1.85666 14.9663 2.02169 14.9883C2.18948 15.0103 2.47829 15.0378 2.66809 15.0488C2.88538 15.0598 3.11093 15.0543 3.28697 15.0323C3.43825 15.013 3.6308 14.98 3.71332 14.958C3.79583 14.936 3.93886 14.8893 4.02963 14.8508C4.1204 14.815 4.26069 14.7435 4.34045 14.694C4.42297 14.6473 4.55775 14.5373 4.64577 14.4548C4.73379 14.3723 4.86307 14.2183 4.93183 14.111C5.0006 14.0038 5.09687 13.8195 5.14363 13.6985C5.19314 13.5775 5.25915 13.3685 5.29216 13.231C5.34442 13.0083 5.34992 12.9065 5.34717 12.1997C5.34717 11.5755 5.33342 11.317 5.28666 10.9347C5.2564 10.6707 5.16563 10.0382 5.08862 9.5322C5.0116 9.02619 4.92908 8.44318 4.90433 8.23967C4.87682 7.99217 4.86582 7.71167 4.87132 7.40641C4.87682 7.15066 4.87407 6.93615 4.86307 6.93065C4.84931 6.92515 4.7668 6.98565 4.67603 7.0654C4.58526 7.14241 4.43397 7.25516 4.3377 7.31291C4.24418 7.37066 4.11765 7.43116 4.05714 7.44491C3.99663 7.46141 3.88385 7.46966 3.80409 7.46691C3.69131 7.45866 3.64455 7.43941 3.57854 7.37341C3.50152 7.29916 3.49327 7.27441 3.49327 7.13966C3.49602 7.02415 3.51527 6.95265 3.58404 6.82615C3.6363 6.7299 3.75732 6.58415 3.8866 6.46314C4.00213 6.35039 4.20017 6.19364 4.3267 6.11114C4.45048 6.03139 4.61826 5.93238 4.69803 5.89113C4.77505 5.85263 4.84106 5.81413 4.84106 5.80588C4.84106 5.79763 4.84656 5.77563 4.85482 5.75913C4.86582 5.73163 4.7998 5.72613 4.5605 5.73163C4.3432 5.73713 4.20567 5.72613 4.10665 5.69588C4.02688 5.67388 3.92511 5.62438 3.87835 5.58588C3.83159 5.54738 3.78758 5.48413 3.77933 5.44288C3.77108 5.39888 3.77658 5.32187 3.79308 5.26962C3.80684 5.21737 3.87285 5.12662 3.93886 5.06612C4.00488 5.00562 4.13141 4.92312 4.22218 4.87912C4.31295 4.83787 4.46148 4.78561 4.55225 4.76361C4.64302 4.73886 4.80531 4.70861 4.90983 4.69211C5.01435 4.67836 5.24265 4.66461 5.41319 4.66461C5.58098 4.66461 5.72676 4.65636 5.73501 4.64536C5.74051 4.63161 5.68275 4.59311 5.60573 4.55461C5.52596 4.51611 5.42694 4.45561 5.38293 4.41711C5.33892 4.37861 5.28391 4.31536 5.26466 4.27411C5.24265 4.23011 5.22615 4.15585 5.22615 4.1091C5.22615 4.0596 5.2509 3.9771 5.28116 3.93035C5.31692 3.8726 5.39393 3.8121 5.49296 3.76535C5.63324 3.69935 5.68275 3.6911 5.92755 3.6911C6.08984 3.6911 6.29338 3.7131 6.42266 3.74335C6.54369 3.7681 6.70322 3.8121 6.78024 3.8396C6.8545 3.86435 6.93427 3.88085 6.95078 3.87535C6.97278 3.86985 6.93977 3.81485 6.86826 3.7351C6.80499 3.6636 6.74448 3.56459 6.73073 3.51509C6.71973 3.46009 6.72523 3.39959 6.74723 3.35284C6.76373 3.31434 6.816 3.25384 6.85726 3.22359C6.90952 3.18509 6.98928 3.16309 7.09106 3.15759C7.20658 3.14934 7.29185 3.16309 7.41288 3.20984C7.5229 3.25109 7.63568 3.32534 7.74845 3.43259C7.87223 3.54809 7.93824 3.58934 7.97675 3.57834C8.02626 3.56459 8.02901 3.55909 7.9905 3.50409C7.96575 3.46834 7.93549 3.39409 7.92174 3.33909C7.89973 3.25659 7.90524 3.21259 7.94099 3.13834Z" fill="#FF6900"/>
<path fill-rule="evenodd" clip-rule="evenodd" d="M8.12803 2.41229C8.20505 2.41229 8.34258 2.42879 8.43885 2.45079C8.53237 2.47279 8.68641 2.53054 8.77993 2.5773C8.88445 2.62955 9.02473 2.7368 9.13476 2.8468C9.23378 2.9458 9.36031 3.1108 9.41532 3.21531C9.50884 3.38306 9.52809 3.40231 9.64637 3.44081C9.72064 3.46281 9.85816 3.53156 9.95719 3.59481C10.0562 3.65806 10.2405 3.80932 10.367 3.93307C10.4936 4.05407 10.7906 4.37033 11.0272 4.63433C11.2637 4.89834 11.5388 5.18709 11.6406 5.27509C11.7451 5.36309 11.9046 5.47585 12.1714 5.61335L12.6803 5.6106C13.0791 5.60785 13.2909 5.59135 13.6705 5.5336C13.9346 5.49235 14.3251 5.43459 14.5369 5.40159C14.8478 5.35484 15.0541 5.34109 15.6097 5.34109C16.2808 5.33834 16.3056 5.34109 16.5999 5.41809C16.7649 5.45934 17.007 5.54185 17.1363 5.59685C17.2655 5.65185 17.4773 5.76735 17.6094 5.85535C17.7441 5.9406 17.9449 6.10286 18.0605 6.21286C18.176 6.32011 18.341 6.50436 18.4263 6.61711C18.5116 6.72987 18.6463 6.94712 18.7234 7.09837C18.8004 7.24963 18.8994 7.47788 18.9462 7.60713C18.9902 7.73638 19.0534 7.95364 19.0837 8.08839C19.1167 8.22314 19.1552 8.46515 19.1745 8.62465C19.1937 8.80065 19.1992 9.10316 19.191 9.39466C19.1827 9.72467 19.1607 9.92817 19.1305 10.0409C19.1057 10.1317 19.0534 10.2637 19.0177 10.3379C18.9819 10.4094 18.9104 10.5084 18.8609 10.5579C18.8141 10.6074 18.7096 10.6762 18.6353 10.7147C18.5116 10.7752 18.4648 10.7834 18.1677 10.7834C17.8652 10.7834 17.8239 10.7779 17.6781 10.7092C17.5819 10.6597 17.4856 10.5882 17.4278 10.5167C17.3783 10.4507 17.2903 10.3077 17.2353 10.2004C17.1803 10.0904 17.0895 9.94742 17.029 9.88417C16.9712 9.81817 16.8447 9.72742 16.7484 9.67792C16.6522 9.63117 16.4734 9.57067 16.3523 9.54042C16.1598 9.49641 16.0085 9.49091 15.1641 9.49091C14.6332 9.49091 14.1904 9.49916 14.1821 9.51291C14.1739 9.52392 14.2014 9.59817 14.2454 9.67792C14.2894 9.75492 14.3582 9.90067 14.3939 9.99967C14.4324 10.0987 14.4984 10.3324 14.5452 10.5222C14.592 10.7119 14.6497 10.9952 14.6745 11.1547C14.6965 11.3142 14.7157 11.5617 14.7212 11.7047C14.724 11.8477 14.7102 12.0127 14.6937 12.0705C14.6745 12.1255 14.6277 12.197 14.5865 12.2272C14.5369 12.263 14.4682 12.2822 14.3994 12.2822C14.3389 12.2822 14.2399 12.2575 14.1794 12.2327C14.1189 12.2052 13.885 12.0265 13.6567 11.8395C13.4312 11.6497 13.1699 11.4407 13.0791 11.3719C12.9884 11.3059 12.8646 11.2179 12.8041 11.1794C12.7435 11.1382 12.595 11.0584 12.474 10.9979C12.353 10.9374 12.1357 10.8439 11.9926 10.7889C11.8496 10.7339 11.5965 10.6542 11.4288 10.6074C11.261 10.5607 10.9722 10.4919 10.7824 10.4534C10.5926 10.4177 10.246 10.3682 10.0122 10.3407C9.76464 10.3159 9.48133 10.3022 9.3383 10.3104C9.20352 10.3187 9.02473 10.3434 8.94771 10.3682C8.84319 10.4012 8.76067 10.4534 8.6534 10.5579C8.55163 10.6569 8.48836 10.7477 8.44986 10.8522C8.4196 10.9347 8.38659 11.0887 8.37559 11.1959C8.36459 11.3032 8.37009 11.4902 8.38659 11.6222C8.40585 11.7515 8.46911 12.1282 8.52962 12.461C8.59014 12.7937 8.6699 13.253 8.70566 13.4785C8.74142 13.7067 8.78543 14.0587 8.80193 14.2622C8.82119 14.4657 8.84594 14.6638 8.85695 14.7023C8.87345 14.7628 8.91196 14.7793 9.23103 14.8618C9.42632 14.9113 9.72889 14.9828 9.90217 15.0213C10.0755 15.057 10.4275 15.1203 10.6861 15.156C10.9447 15.1918 11.371 15.2358 11.6351 15.255C11.8991 15.2715 12.2897 15.277 12.5015 15.2688C12.7133 15.2578 13.0544 15.233 13.2579 15.2083C13.4615 15.1863 13.7833 15.1368 13.9731 15.0983C14.1629 15.0625 14.4544 14.9938 14.6195 14.9498C14.7845 14.9058 15.0843 14.815 15.2796 14.749C15.4749 14.683 15.7747 14.573 15.9398 14.507C16.1048 14.441 16.4706 14.2732 16.7512 14.1357C17.0317 13.9982 17.4278 13.7892 17.6314 13.6737C17.8349 13.5582 18.0275 13.4647 18.0577 13.4647C18.088 13.4647 18.132 13.484 18.1595 13.5115C18.1842 13.539 18.22 13.616 18.2393 13.6847C18.2613 13.759 18.275 13.9652 18.2778 14.2072C18.2778 14.5015 18.264 14.6638 18.2255 14.826C18.198 14.947 18.1347 15.1505 18.0825 15.2798C18.033 15.409 17.9202 15.618 17.8349 15.7473C17.7084 15.9398 17.6781 16.0113 17.6561 16.1598C17.6424 16.2588 17.6094 16.4128 17.5874 16.5035C17.5626 16.5943 17.5076 16.762 17.4608 16.8748C17.4168 16.9875 17.3343 17.1608 17.282 17.2598C17.227 17.3588 17.1198 17.5321 17.0427 17.6448C16.9685 17.7576 16.7869 17.9721 16.6439 18.1206C16.4981 18.2691 16.2946 18.4506 16.1928 18.5193C16.0388 18.6266 15.9838 18.6871 15.8737 18.8686C15.7995 18.9896 15.6729 19.1766 15.5932 19.2866C15.5107 19.3938 15.3621 19.5726 15.2631 19.6853C15.1641 19.7953 14.966 19.9851 14.823 20.1033C14.68 20.2243 14.4544 20.3949 14.3169 20.4856C14.1794 20.5736 13.9208 20.7194 13.7393 20.8074C13.5577 20.8981 13.2552 21.0219 13.0654 21.0851C12.8756 21.1484 12.5785 21.2281 12.4052 21.2639C12.2319 21.2996 11.9706 21.3436 11.8276 21.3601C11.6846 21.3794 11.3242 21.3931 11.0299 21.3931C10.7026 21.3904 10.3533 21.3739 10.136 21.3464C9.94068 21.3216 9.59961 21.2639 9.37956 21.2199C9.15951 21.1759 8.83219 21.0961 8.65065 21.0411C8.46911 20.9861 8.1968 20.8981 8.04552 20.8431C7.89423 20.7881 7.67143 20.7029 7.55041 20.6506C7.42938 20.6011 7.33036 20.5626 7.32761 20.5654C7.32761 20.5709 7.2671 20.6534 7.19283 20.7524C7.11856 20.8514 6.95353 21.0549 6.82425 21.2034C6.69497 21.3519 6.45842 21.5994 6.29888 21.7506C6.13935 21.9019 5.85053 22.1549 5.65249 22.3144C5.45445 22.4711 5.08312 22.7379 4.82731 22.9111C4.5715 23.0816 4.22768 23.2962 4.06264 23.3897C3.90036 23.4804 3.76833 23.5712 3.76833 23.5849C3.76833 23.6014 3.58679 23.6124 3.27872 23.6124C3.01191 23.6124 2.68184 23.5987 2.54431 23.5822C2.40678 23.5657 2.18673 23.5244 2.0492 23.4887C1.91167 23.4557 1.73563 23.3979 1.65586 23.3622C1.5761 23.3264 1.52108 23.2879 1.53209 23.2769C1.54309 23.2687 1.71363 23.1889 1.91167 23.1036C2.10971 23.0156 2.44804 22.8561 2.66809 22.7461C2.88813 22.6361 3.22096 22.4574 3.41075 22.3474C3.60054 22.2374 3.90861 22.0449 4.0984 21.9184C4.28819 21.7919 4.57701 21.5829 4.74479 21.4536C4.91258 21.3244 5.18214 21.0989 5.34717 20.9504C5.51221 20.8046 5.76527 20.5544 5.9083 20.3949C6.05408 20.2353 6.25762 19.9961 6.36215 19.8586C6.46667 19.7211 6.63721 19.4873 6.73623 19.3361C6.838 19.1848 6.98378 18.9511 7.06355 18.8136C7.14057 18.6761 7.24784 18.4671 7.3056 18.3461C7.36062 18.2251 7.45139 18.0023 7.50915 17.8511C7.56691 17.6998 7.65768 17.3973 7.70994 17.1773C7.76495 16.9573 7.82272 16.6685 7.84472 16.531C7.86948 16.366 7.88048 16.0003 7.88048 15.4448C7.88048 14.7958 7.86948 14.5208 7.83097 14.221C7.80346 14.0092 7.73745 13.6187 7.68519 13.3547C7.63293 13.0907 7.55316 12.7305 7.5064 12.5572C7.46239 12.384 7.36062 12.0375 7.2836 11.7872C7.20658 11.5369 6.96178 10.8192 6.73898 10.1922C6.51618 9.56517 6.28788 8.9024 6.23562 8.7209C6.18061 8.5394 6.10909 8.28639 6.07883 8.15714C6.04583 8.02789 5.99357 7.79413 5.96606 7.63463C5.9358 7.47513 5.90555 7.16712 5.89454 6.94712C5.88354 6.68587 5.88904 6.45211 5.9138 6.27336C5.93305 6.12211 5.97156 5.90485 6.00182 5.7921C6.03207 5.67935 6.09259 5.5006 6.1366 5.39334C6.18336 5.28884 6.28513 5.10184 6.36765 4.98084C6.44742 4.85983 6.6042 4.67283 6.71697 4.56558C6.827 4.45833 6.99204 4.32083 7.08281 4.26032C7.17358 4.19982 7.33311 4.10632 7.44038 4.05407C7.54766 3.99907 7.72645 3.92482 7.83922 3.88632C7.952 3.84782 8.15004 3.79007 8.27932 3.75982C8.4086 3.72682 8.54338 3.70206 8.58188 3.70206C8.62039 3.70206 8.6699 3.69106 8.69191 3.67731C8.72767 3.65531 8.72217 3.62506 8.6589 3.46281C8.61764 3.36106 8.54063 3.22356 8.48561 3.16031C8.4251 3.08605 8.35083 3.03105 8.28757 3.0118C8.22981 2.9953 8.14179 2.9898 8.09503 2.99805C8.04002 3.00905 7.985 3.04205 7.9575 3.0888C7.92999 3.13005 7.90799 3.20706 7.91074 3.26206C7.91074 3.31431 7.93824 3.40506 7.97125 3.46281C8.03176 3.56456 8.03176 3.56456 7.97675 3.57831C7.93824 3.58931 7.87223 3.54806 7.74845 3.43256C7.63568 3.32531 7.5229 3.25106 7.41288 3.20981C7.29185 3.16306 7.20658 3.14931 7.09106 3.15756C6.98928 3.16306 6.90952 3.18506 6.85726 3.22356C6.816 3.25381 6.76374 3.31431 6.74723 3.35281C6.72523 3.39956 6.71973 3.46006 6.73073 3.51506C6.74448 3.56456 6.80499 3.66356 6.86826 3.73507C6.93977 3.81482 6.97278 3.86982 6.95078 3.87532C6.93427 3.88082 6.85451 3.86432 6.78024 3.83957C6.70322 3.81207 6.54369 3.76807 6.42266 3.74332C6.29338 3.71306 6.08984 3.69106 5.92755 3.69106C5.68275 3.69106 5.63324 3.69931 5.49296 3.76532C5.39393 3.81207 5.31692 3.87257 5.28116 3.93032C5.2509 3.97707 5.22615 4.05957 5.22615 4.10907C5.22615 4.15582 5.24265 4.23007 5.26466 4.27407C5.28391 4.31533 5.33892 4.37858 5.38293 4.41708C5.42694 4.45558 5.52596 4.51608 5.60573 4.55458C5.68275 4.59308 5.74051 4.63158 5.73501 4.64533C5.72676 4.65633 5.58098 4.66458 5.41319 4.66458C5.24265 4.66458 5.01435 4.67833 4.90983 4.69208C4.80531 4.70858 4.64302 4.73883 4.55225 4.76358C4.46148 4.78558 4.31295 4.83783 4.22218 4.87908C4.13141 4.92309 4.00488 5.00559 3.93886 5.06609C3.87285 5.12659 3.80684 5.21734 3.79308 5.26959C3.77658 5.32184 3.77108 5.39884 3.77933 5.44284C3.78758 5.4841 3.83159 5.54735 3.87835 5.58585C3.92511 5.62435 4.02688 5.67385 4.10665 5.69585C4.20567 5.7261 4.3432 5.7371 4.5605 5.7316C4.72829 5.7261 4.86857 5.7261 4.86857 5.7316C4.86857 5.73435 4.86032 5.75635 4.84932 5.7811C4.83556 5.8086 4.7668 5.8581 4.68978 5.8966C4.61551 5.93235 4.45048 6.03135 4.3267 6.11111C4.20017 6.19361 4.00213 6.35036 3.88385 6.46311C3.75733 6.58411 3.6363 6.72987 3.58404 6.82612C3.51527 6.95262 3.49602 7.02412 3.49327 7.13962C3.49327 7.27438 3.50152 7.29913 3.57854 7.37338C3.64455 7.43938 3.69131 7.45863 3.80409 7.46688C3.88385 7.46963 3.99663 7.46138 4.05714 7.44488C4.11765 7.43113 4.24418 7.37063 4.3377 7.31288C4.43397 7.25513 4.58526 7.14237 4.67603 7.06537C4.7668 6.98562 4.84932 6.92512 4.86307 6.93062C4.87407 6.93612 4.87682 7.15062 4.87132 7.40638C4.86582 7.71163 4.87682 7.99214 4.90433 8.23964C4.92908 8.44315 5.0116 9.02616 5.08862 9.53216C5.16563 10.0382 5.2564 10.6707 5.28666 10.9347C5.33342 11.3169 5.34717 11.5754 5.34717 12.1997C5.34992 12.9065 5.34442 13.0082 5.29216 13.231C5.25915 13.3657 5.19314 13.5775 5.14363 13.6985C5.09687 13.8195 5.0006 14.0037 4.93183 14.111C4.86307 14.2182 4.73379 14.3722 4.64577 14.4547C4.55775 14.5373 4.42297 14.6473 4.34045 14.694C4.26069 14.7435 4.1204 14.815 4.02963 14.8508C3.93886 14.8893 3.79033 14.9388 3.69956 14.9635C3.60879 14.9855 3.39975 15.0185 3.23196 15.0378C3.00366 15.0625 2.83037 15.0625 2.5168 15.0378C2.29125 15.0185 1.93643 14.98 1.73288 14.9498C1.52934 14.9195 1.1525 14.8508 0.893946 14.7985C0.63814 14.7435 0.332823 14.6775 0.013753 14.6033L0.00550121 14.0697C0.0027506 13.7755 0.00550121 13.5225 0.0110024 13.506C0.0165036 13.4895 0.156784 13.5142 0.36308 13.5692C0.54737 13.6187 0.893946 13.7012 1.12775 13.7535C1.36155 13.8057 1.72188 13.8745 1.92542 13.9075C2.19223 13.9515 2.42053 13.968 2.73685 13.9707C3.06417 13.9707 3.22646 13.9597 3.36399 13.924C3.46576 13.8992 3.6198 13.8442 3.70781 13.803C3.79308 13.7617 3.93336 13.6572 4.01863 13.5747C4.1149 13.4785 4.20842 13.3492 4.27444 13.2172C4.3322 13.099 4.39547 12.9065 4.42572 12.7635C4.45323 12.6287 4.48624 12.3867 4.49724 12.2272C4.50824 12.0622 4.50274 11.768 4.48348 11.5397C4.46698 11.3197 4.42847 10.9677 4.39822 10.7559C4.36796 10.5442 4.28269 10.0052 4.20842 9.55967C4.13416 9.11416 4.05989 8.6439 4.04339 8.51465C4.02688 8.3854 4.00763 8.24239 3.98838 8.11589H3.68031C3.40525 8.11589 3.35299 8.10764 3.21821 8.04714C3.13569 8.00589 3.01466 7.92339 2.9514 7.86014C2.88538 7.79689 2.80562 7.69238 2.77261 7.62913C2.7341 7.5503 2.71026 7.44213 2.70109 7.30463C2.69284 7.14787 2.70384 7.06262 2.74235 6.94712C2.77261 6.86462 2.83862 6.73537 2.88813 6.65837C2.9404 6.58411 3.03942 6.46586 3.10818 6.39986C3.17695 6.33386 3.29797 6.23486 3.52627 6.08086L3.42175 6.05061C3.36124 6.0341 3.26497 5.9956 3.20445 5.96535C3.14394 5.9351 3.05592 5.86635 3.00916 5.81685C2.96515 5.7646 2.91014 5.67385 2.89088 5.61335C2.86888 5.55285 2.85788 5.43734 2.86613 5.35209C2.87163 5.26959 2.90464 5.14584 2.93765 5.07709C2.9679 5.00834 3.06142 4.88734 3.14119 4.80758C3.22096 4.72783 3.36674 4.62058 3.46576 4.56833C3.56478 4.51883 3.73807 4.45008 3.85085 4.41983C3.96362 4.38958 4.13691 4.35383 4.41472 4.32633L4.37621 4.22732C4.35696 4.17232 4.3377 4.04307 4.33495 3.93582C4.33495 3.79557 4.3487 3.71306 4.38721 3.63331C4.41747 3.57556 4.47798 3.49031 4.52474 3.44631C4.5715 3.40231 4.66227 3.33631 4.73104 3.30331C4.7998 3.26756 4.93458 3.22631 5.03361 3.20706C5.13263 3.18781 5.27291 3.18231 5.34992 3.19331C5.42694 3.20156 5.52046 3.21531 5.56447 3.22356C5.63324 3.23456 5.64149 3.22356 5.669 3.11905C5.6855 3.05305 5.73226 2.95405 5.77077 2.8963C5.81203 2.8358 5.90005 2.7533 5.96881 2.71205C6.03758 2.66805 6.16685 2.61305 6.25762 2.5883C6.34839 2.5663 6.49143 2.54704 6.57394 2.54704C6.65646 2.54704 6.78024 2.5608 6.849 2.57455C6.91777 2.59105 7.0388 2.6268 7.26159 2.71205L7.39362 2.62955C7.46514 2.58555 7.57791 2.53054 7.64668 2.50579C7.71544 2.48104 7.81997 2.45079 7.88048 2.43704C7.94099 2.42604 8.05377 2.41504 8.12803 2.41229V2.41229ZM66.2483 13.99C66.3886 13.9872 66.5674 14.0065 66.6609 14.0285C66.7517 14.0532 66.8809 14.1055 66.9497 14.1467C67.0185 14.1852 67.123 14.2705 67.1835 14.3337C67.244 14.3997 67.3348 14.5153 67.3815 14.5978C67.4311 14.6775 68.0197 15.937 68.6908 17.3973C69.362 18.8576 69.9341 20.1198 69.9616 20.2023C69.9946 20.3069 70.0056 20.4004 69.9974 20.5049C69.9891 20.5874 69.9506 20.7194 69.9149 20.7936C69.8763 20.8706 69.7966 20.9724 69.7388 21.0246C69.6783 21.0769 69.5765 21.1456 69.5078 21.1759C69.4307 21.2089 69.3015 21.2336 69.1639 21.2419C68.9769 21.2529 68.9219 21.2446 68.7954 21.1896C68.7046 21.1484 68.6028 21.0741 68.5341 20.9971C68.457 20.9119 68.3553 20.7221 68.2177 20.4196C68.105 20.1721 67.9784 19.8943 67.8574 19.6386L67.6429 19.6963C67.5273 19.7293 67.3073 19.7788 67.156 19.8063C66.947 19.8448 66.7407 19.8558 66.2896 19.8586C65.8495 19.8586 65.6239 19.8448 65.4094 19.8091C65.2498 19.7843 65.0078 19.7321 64.873 19.6963C64.7382 19.6578 64.6227 19.6386 64.6199 19.6468C64.6144 19.6578 64.4824 19.9383 64.3229 20.2711C64.1606 20.6039 64.0011 20.9174 63.9625 20.9669C63.9268 21.0136 63.8443 21.0934 63.7783 21.1374C63.715 21.1841 63.5995 21.2336 63.5252 21.2501C63.4289 21.2694 63.3382 21.2694 63.2226 21.2474C63.1319 21.2336 62.9943 21.1896 62.9201 21.1539C62.8431 21.1181 62.7358 21.0329 62.678 20.9696C62.6203 20.9009 62.557 20.7881 62.5322 20.7111C62.5102 20.6369 62.4937 20.5351 62.4937 20.4911C62.4937 20.4471 62.5102 20.3399 62.5322 20.2574C62.5542 20.1748 63.1071 18.9428 63.759 17.5211C64.4136 16.0993 64.9995 14.837 65.06 14.716C65.1233 14.5978 65.2333 14.4355 65.3021 14.3585C65.3709 14.2842 65.4891 14.188 65.5634 14.1467C65.6377 14.1055 65.7669 14.0532 65.8495 14.0312C65.932 14.0092 66.1135 13.99 66.2483 13.99V13.99ZM65.2526 18.1398C65.2416 18.1728 65.2993 18.1921 65.5111 18.2361C65.7257 18.2801 65.8825 18.2911 66.2896 18.2883C66.6554 18.2883 66.8589 18.2746 67.0185 18.2416C67.1395 18.2141 67.2468 18.1838 67.255 18.1728C67.2633 18.1618 67.0487 17.6558 66.7737 17.048C66.4986 16.4403 66.2703 15.937 66.2621 15.9288C66.2538 15.9205 66.0255 16.4045 65.7559 17.0068C65.4864 17.6063 65.2581 18.1178 65.2526 18.1398ZM0 17.2873H0.880193C1.57059 17.2873 1.75764 17.2955 1.74938 17.323C1.74388 17.3395 1.72188 17.4358 1.70262 17.5321C1.67512 17.6613 1.65036 17.7136 1.6091 17.7301C1.57885 17.7438 1.23227 17.8153 0.838934 17.8896C0.445598 17.9666 0.0962711 18.0298 0.0632639 18.0298C0 18.0298 0 18.0243 0 17.6586L0 17.2873Z" fill="black"/>
<path d="M14.8395 6.13858C14.9303 6.11658 15.0898 6.08633 15.1971 6.07258C15.3043 6.05883 15.5629 6.04508 15.7747 6.04233C16.069 6.03958 16.212 6.05333 16.3798 6.09183C16.5009 6.12208 16.6631 6.17158 16.7374 6.20458C16.8117 6.23758 16.974 6.32834 17.095 6.41084C17.216 6.49059 17.4003 6.64734 17.5048 6.75734C17.6121 6.8701 17.7661 7.06535 17.8487 7.1946C17.9312 7.32385 18.0495 7.54111 18.1072 7.67586C18.165 7.81336 18.2447 8.03612 18.2805 8.17087C18.319 8.30837 18.3658 8.53662 18.3878 8.67963C18.4098 8.82263 18.429 9.05913 18.429 9.20214C18.4318 9.43314 18.4235 9.46889 18.3713 9.51839C18.3383 9.54864 18.275 9.57339 18.2255 9.57339C18.176 9.57339 18.1072 9.55414 18.0715 9.52939C18.0329 9.50739 17.9339 9.38364 17.8487 9.25439C17.7634 9.12788 17.6204 8.95738 17.5323 8.87763C17.4416 8.79788 17.2848 8.69063 17.1775 8.63838C17.0702 8.58887 16.9052 8.52562 16.8062 8.50087C16.7072 8.47612 16.4981 8.43762 16.3386 8.41562C16.179 8.39362 15.8325 8.36887 15.5684 8.35787C15.3043 8.34962 14.7652 8.35512 14.3719 8.37437C13.9786 8.39087 13.577 8.40737 13.4779 8.40737C13.3459 8.40737 13.2882 8.39637 13.2579 8.36337C13.2221 8.32487 13.2276 8.28637 13.3239 8.01137C13.3817 7.84086 13.4862 7.57411 13.5577 7.4146C13.6265 7.2551 13.7475 7.03235 13.8218 6.9196C13.8988 6.80684 14.0336 6.64184 14.1271 6.54834C14.2206 6.45759 14.3801 6.33934 14.4847 6.28159C14.5892 6.22658 14.7487 6.16333 14.8395 6.13858Z" fill="#FF6900"/>
<path d="M8.63414 17.6998C8.67814 17.51 8.72215 17.3093 8.73041 17.2543V17.2515C8.74141 17.1965 8.76066 17.1498 8.77442 17.1498C8.79092 17.1498 8.90369 17.1745 9.02747 17.202C9.154 17.2323 9.44006 17.2873 9.66836 17.3258C9.89391 17.3643 10.2487 17.4138 10.4523 17.4358C10.6558 17.4578 11.0217 17.4908 11.2637 17.5073C11.5058 17.5238 11.7726 17.5375 11.8551 17.543C12.0064 17.5485 12.0064 17.5485 11.9981 17.631C11.9926 17.675 11.9404 17.862 11.8798 18.0435C11.8221 18.225 11.7203 18.4918 11.6543 18.6348C11.591 18.7778 11.4673 19.0143 11.382 19.1573C11.2967 19.3003 11.1537 19.5176 11.0629 19.6386C10.9721 19.7596 10.7934 19.9631 10.4385 20.3288L10.1635 20.3068C10.0122 20.2958 9.76463 20.2656 9.61335 20.2408C9.46207 20.2188 9.19526 20.1611 9.02197 20.1198C8.84868 20.0758 8.60113 20.0043 8.47185 19.9603C8.34257 19.9163 8.16103 19.8448 8.06476 19.8008C7.97124 19.7568 7.89147 19.7128 7.89422 19.6991C7.89422 19.6881 7.94648 19.5781 8.007 19.4516C8.07026 19.3278 8.18579 19.0638 8.26555 18.8686C8.34532 18.6733 8.44159 18.4065 8.4801 18.2773C8.52136 18.148 8.58737 17.8895 8.63414 17.6998Z" fill="#FF6900"/>
<path d="M8.60115 4.24109C8.68092 4.20259 8.79369 4.15859 8.85145 4.14209H8.8487C8.90647 4.12834 9.0385 4.12009 9.14577 4.12284C9.28605 4.12834 9.37957 4.15034 9.4951 4.20534C9.60512 4.25484 9.68214 4.31809 9.7399 4.3951C9.78666 4.4611 9.83892 4.56835 9.85542 4.63435C9.88293 4.7361 9.97645 4.8461 10.4991 5.38236C10.8814 5.77562 11.1042 6.02312 11.0904 6.04512C11.0776 6.06529 11.0272 6.06988 10.9392 6.05887C10.8209 6.04237 10.8099 6.04512 10.8099 6.09463C10.8099 6.13038 10.8429 6.16613 10.8979 6.19363C10.9474 6.21838 11.0822 6.26238 11.195 6.28988C11.3077 6.32013 11.5691 6.35588 11.7726 6.37238C12.0504 6.39713 12.298 6.39438 12.7628 6.36963C13.1039 6.35313 13.467 6.32838 13.5742 6.31463C13.6815 6.30363 13.7778 6.30088 13.7943 6.30638C13.8108 6.31463 13.7778 6.36688 13.72 6.42188C13.665 6.47688 13.5495 6.61988 13.4642 6.74089C13.3762 6.86189 13.2524 7.06814 13.1864 7.20014C13.1204 7.3349 13.0296 7.5329 12.9856 7.64015C12.9416 7.75015 12.8783 7.93991 12.8453 8.06091C12.8096 8.18191 12.7683 8.30291 12.7518 8.32766C12.7353 8.35516 12.6913 8.38816 12.6528 8.40742C12.6143 8.42392 12.4162 8.44867 12.2127 8.46517C12.0091 8.48167 11.5305 8.48717 11.1537 8.47892C10.7741 8.47067 10.3368 8.44592 10.1772 8.42117C10.0177 8.39917 9.77566 8.35791 9.64088 8.32766C9.5061 8.29741 9.26955 8.22866 9.11826 8.17366C8.96698 8.11866 8.75243 8.02241 8.63966 7.95641C8.52688 7.89316 8.3536 7.76665 8.25457 7.67315C8.15555 7.5824 8.02077 7.42565 7.95476 7.3294C7.85849 7.18364 7.83923 7.13414 7.84473 7.04339C7.85298 6.94439 7.86399 6.92789 7.97676 6.87014C8.07303 6.82064 8.1363 6.80964 8.25732 6.81514C8.34259 6.82064 8.42786 6.81239 8.44712 6.79589C8.46362 6.77939 8.46912 6.75189 8.46087 6.73264C8.45262 6.71614 8.37285 6.67214 8.28483 6.63913C8.17206 6.59788 8.06478 6.58138 7.89424 6.58138C7.71821 6.57863 7.63019 6.59238 7.53667 6.63363C7.4679 6.66664 7.37163 6.73264 7.31937 6.78489C7.26711 6.83714 7.20934 6.91964 7.18734 6.96639C7.16808 7.01589 7.15158 7.13414 7.15158 7.22765C7.15158 7.3569 7.16808 7.4394 7.22035 7.5439C7.26986 7.6484 7.30286 7.6869 7.33587 7.6814C7.37163 7.67865 7.38813 7.6429 7.39914 7.5549C7.40739 7.48615 7.42939 7.4284 7.4459 7.4229C7.46515 7.4174 7.53667 7.48615 7.60268 7.5714C7.66869 7.6594 7.81448 7.81891 7.9245 7.92341C8.03728 8.03066 8.22707 8.18191 8.34809 8.26166C8.46912 8.34416 8.70292 8.47617 8.87071 8.55592C9.0385 8.63842 9.36582 8.76767 9.59962 8.84742C9.83342 8.92442 10.3285 9.05918 10.6999 9.14718C11.0712 9.23518 11.5085 9.35343 11.6763 9.40843C11.8441 9.46343 12.1274 9.58169 12.309 9.66969C12.4905 9.75769 12.7188 9.88419 12.8178 9.95019C12.9141 10.0162 13.0681 10.1372 13.1589 10.2197C13.2497 10.3022 13.3569 10.426 13.401 10.4947C13.4422 10.5635 13.478 10.6405 13.478 10.6652C13.478 10.6927 13.456 10.7147 13.4285 10.7147C13.4037 10.7147 13.3514 10.6845 13.3129 10.6432C13.2744 10.6047 13.1699 10.5195 13.0791 10.459C12.9884 10.3984 12.8151 10.3022 12.694 10.2444C12.573 10.1894 12.3695 10.1069 12.2402 10.0602C12.1109 10.0162 11.8084 9.92819 11.5663 9.86769C11.3242 9.80444 10.7604 9.67519 10.3148 9.57619C9.86918 9.47718 9.33006 9.34793 9.11826 9.28743C8.90647 9.22693 8.6094 9.13343 8.45812 9.07843C8.30683 9.02343 8.07853 8.92992 7.94926 8.86942C7.81998 8.80892 7.59718 8.67967 7.45415 8.58617C7.30011 8.48442 7.11307 8.32766 7.0003 8.20666C6.89302 8.09116 6.76375 7.92616 6.71148 7.83816C6.65922 7.75015 6.58221 7.5824 6.5437 7.46965C6.50244 7.3569 6.45568 7.16439 6.43642 7.04339C6.41167 6.90039 6.40617 6.70514 6.41717 6.47963C6.42817 6.27063 6.45568 6.05062 6.49144 5.91587C6.52169 5.79487 6.59871 5.59137 6.65922 5.46211C6.72249 5.33286 6.81051 5.17336 6.85727 5.10461C6.90403 5.03586 7.0113 4.9066 7.09382 4.8186C7.17909 4.7306 7.34137 4.59585 7.45415 4.5216C7.56692 4.44735 7.72096 4.36485 7.79797 4.3346C7.87224 4.30709 7.97401 4.27409 8.01802 4.26309C8.08404 4.24659 8.09779 4.24934 8.08128 4.28234C8.07028 4.30159 8.03177 4.3951 7.99327 4.48585C7.94375 4.60685 7.93275 4.65635 7.95751 4.6701C7.97676 4.6811 8.01527 4.6921 8.04553 4.6921C8.07853 4.69485 8.1308 4.6536 8.17481 4.59035C8.21606 4.5326 8.29583 4.44735 8.35359 4.4006C8.41136 4.35385 8.52413 4.28234 8.60115 4.24109Z" fill="white"/>
<path d="M16.4376 15.3925C16.7099 15.2578 17.0373 15.0873 17.1638 15.0103C17.2931 14.9333 17.4003 14.8838 17.4058 14.8975C17.4113 14.9113 17.3866 14.9745 17.3563 15.0378C17.3233 15.1038 17.2463 15.2303 17.183 15.321C17.1225 15.4118 16.9795 15.5795 16.864 15.695C16.7512 15.8105 16.5531 15.981 16.4239 16.0773C16.2946 16.1708 16.0663 16.3166 15.915 16.4018C15.7637 16.4871 15.4914 16.6218 15.3099 16.6988C15.1283 16.7786 14.8423 16.8858 14.6772 16.9436C14.5122 16.9986 14.2014 17.0866 13.9896 17.1388C13.7778 17.1911 13.4257 17.2653 13.2057 17.3011C12.9856 17.3368 12.8041 17.3726 12.8013 17.3753C12.7986 17.3808 12.7848 17.4413 12.7518 17.6448H12.8618C12.9223 17.6448 13.1259 17.6256 13.3157 17.6036C13.5055 17.5788 13.8383 17.5238 14.0583 17.4798C14.2784 17.4358 14.6112 17.3561 14.801 17.3011C14.9908 17.2461 15.2879 17.1443 15.4612 17.0756C15.6344 17.0068 15.8517 16.9133 15.9425 16.8666C16.0333 16.8226 16.1543 16.7566 16.2093 16.7208C16.2671 16.6851 16.3193 16.6631 16.3248 16.6741C16.3331 16.6878 16.3083 16.7703 16.2698 16.8611C16.2341 16.9518 16.1461 17.1113 16.0745 17.2158C16.0003 17.3203 15.8682 17.4743 15.7775 17.5568C15.6867 17.6421 15.5079 17.7768 15.3786 17.8621C15.2494 17.9446 15.0458 18.0573 14.9248 18.1151C14.8038 18.1701 14.5865 18.2526 14.4434 18.2993C14.3004 18.3461 14.0831 18.4093 13.9621 18.4396C13.8411 18.4698 13.588 18.5193 13.3982 18.5523C13.2084 18.5826 12.9306 18.6156 12.7793 18.6238C12.628 18.6348 12.485 18.6513 12.463 18.6651C12.441 18.6761 12.3997 18.7421 12.3722 18.8108C12.3475 18.8796 12.3282 18.9456 12.331 18.9538C12.3365 18.9621 12.562 18.9538 12.8343 18.9373C13.1066 18.9208 13.4917 18.8851 13.687 18.8548C13.8823 18.8246 14.1986 18.7613 14.3884 18.7173C14.5782 18.6706 14.735 18.6403 14.7377 18.6486C14.7432 18.6568 14.691 18.7393 14.6277 18.8328C14.5617 18.9291 14.4269 19.0776 14.3307 19.1656C14.2344 19.2564 14.0556 19.3939 13.9346 19.4736C13.8135 19.5561 13.5797 19.6854 13.412 19.7651C13.2442 19.8421 12.9664 19.9549 12.7931 20.0099C12.6198 20.0676 12.353 20.1419 12.2017 20.1749C12.0504 20.2051 11.8029 20.2519 11.6516 20.2739C11.5003 20.2931 11.1895 20.3206 10.9639 20.3316C10.7356 20.3399 10.5293 20.3399 10.5018 20.3316C10.4633 20.3151 10.4936 20.2739 10.6669 20.0979C10.7851 19.9769 10.9612 19.7761 11.0574 19.6496C11.1537 19.5231 11.2995 19.3004 11.3848 19.1574C11.47 19.0143 11.5938 18.7778 11.6571 18.6348C11.7231 18.4918 11.8249 18.2251 11.8826 18.0436C11.9431 17.8621 11.9954 17.6751 12.0009 17.6311C12.0091 17.5486 12.0091 17.5486 11.8579 17.5431C11.7753 17.5376 11.5085 17.5238 11.2665 17.5073C11.0244 17.4908 10.6586 17.4578 10.4551 17.4358C10.2515 17.4138 9.90494 17.3643 9.68489 17.3286C9.46484 17.2901 9.16777 17.2323 9.02474 17.2021C8.88171 17.1691 8.76068 17.1416 8.75793 17.1388C8.75243 17.1388 8.76894 17.0068 8.79094 16.8473C8.8102 16.6878 8.8377 16.4376 8.85145 16.2918C8.87071 16.0718 8.88171 16.025 8.91472 16.036C8.93672 16.0415 9.08526 16.0773 9.24479 16.1158C9.40433 16.1516 9.68214 16.2066 9.86368 16.2396C10.0452 16.2698 10.367 16.3138 10.5788 16.3386C10.7906 16.3633 11.2005 16.3936 11.4865 16.4046C11.7781 16.4183 12.2154 16.4183 12.4768 16.4046C12.7353 16.3908 13.0929 16.3606 13.2744 16.3386C13.456 16.3138 13.7888 16.2588 14.0171 16.2121C14.2426 16.1681 14.603 16.08 14.8148 16.0195C15.0266 15.959 15.3676 15.8463 15.5712 15.772C15.7747 15.695 16.1653 15.5245 16.4376 15.3925Z" fill="white"/>
<path fill-rule="evenodd" clip-rule="evenodd" d="M41.3003 2.25827C41.5396 2.26377 41.7899 2.28852 41.9605 2.32427C42.1117 2.35452 42.3455 2.41777 42.4831 2.46728C42.6206 2.51403 42.8489 2.61303 42.9919 2.68728C43.135 2.76153 43.3578 2.89903 43.487 2.99528C43.6163 3.09429 43.8171 3.27579 43.9381 3.40229C44.0564 3.52879 44.2187 3.7323 44.2985 3.8533C44.3782 3.9743 44.48 4.14755 44.5268 4.23831C44.5708 4.32906 44.6478 4.51606 44.6946 4.65081C44.7441 4.78557 44.8101 5.02207 44.8403 5.17332C44.8898 5.39883 44.9008 5.53908 44.9008 5.94334C44.8981 6.33934 44.8871 6.4906 44.8431 6.6996C44.8101 6.8426 44.7523 7.0571 44.7138 7.17536C44.6753 7.29086 44.5818 7.50811 44.5075 7.65387C44.4332 7.80237 44.3067 8.01687 44.227 8.12962C44.1472 8.24238 43.9931 8.42663 43.8859 8.53938C43.7814 8.64938 43.5888 8.81988 43.4595 8.91614C43.3303 9.01514 43.0965 9.16089 42.9369 9.24064C42.7774 9.32314 42.5381 9.4249 42.4005 9.47165C42.263 9.51565 42.0347 9.57615 41.8917 9.60365C41.7046 9.6394 41.5011 9.65315 41.1765 9.65315C40.8602 9.65315 40.6484 9.6394 40.4751 9.6064C40.3376 9.5789 40.1038 9.5184 39.9525 9.47165C39.8012 9.42215 39.5592 9.32314 39.4161 9.24889C39.2731 9.17739 39.0613 9.04814 38.9485 8.96839C38.8358 8.88589 38.6405 8.71538 38.5139 8.59163C38.3902 8.46513 38.2169 8.26438 38.1289 8.14337C38.0436 8.02237 37.9143 7.80512 37.8428 7.66212C37.774 7.51911 37.6833 7.30186 37.6448 7.18086C37.6062 7.05985 37.554 6.8756 37.532 6.76835C37.5045 6.6556 37.4797 6.37784 37.4715 6.09459C37.4577 5.71508 37.466 5.55283 37.5017 5.32457C37.5292 5.16507 37.5925 4.90657 37.6448 4.74706C37.6998 4.58756 37.8015 4.34006 37.8758 4.19706C37.9528 4.05405 38.0904 3.8313 38.1894 3.70205C38.2856 3.57279 38.4562 3.38029 38.5662 3.27579C38.679 3.16854 38.8633 3.01454 38.976 2.93478C39.0888 2.85503 39.3006 2.73128 39.4437 2.65703C39.5867 2.58553 39.7985 2.49478 39.9113 2.45903C40.024 2.42053 40.2111 2.36827 40.3238 2.34352C40.4366 2.31877 40.6182 2.28577 40.7227 2.27202C40.8272 2.25827 41.0885 2.25277 41.3003 2.25827ZM40.5164 4.0183C40.4036 4.05405 40.2331 4.1338 40.1396 4.18881C40.0433 4.24656 39.9058 4.35106 39.8287 4.42531C39.7545 4.49681 39.6389 4.62606 39.5729 4.71406C39.5097 4.79932 39.4161 4.96432 39.3694 5.07707C39.3226 5.18982 39.2649 5.37958 39.2401 5.49783C39.2153 5.61333 39.1961 5.81408 39.1961 5.94334C39.1961 6.07259 39.2126 6.26784 39.2346 6.37784C39.2566 6.4851 39.3061 6.66385 39.3474 6.76835C39.3859 6.8756 39.4712 7.0406 39.5344 7.13686C39.5977 7.23311 39.738 7.39536 39.8452 7.49436C39.9608 7.60161 40.1203 7.71712 40.2441 7.78037C40.3569 7.83537 40.5466 7.90687 40.6677 7.93712C40.819 7.97562 40.9785 7.99487 41.1765 7.99487C41.3471 7.99487 41.5506 7.97562 41.6716 7.95087C41.7844 7.92612 41.977 7.85737 42.098 7.79962C42.219 7.73912 42.3813 7.64011 42.4611 7.57411C42.5381 7.50811 42.6536 7.39261 42.7169 7.31836C42.7774 7.24411 42.8792 7.08186 42.9397 6.96085C42.9974 6.83985 43.0744 6.64185 43.1047 6.52085C43.1487 6.35584 43.1625 6.21559 43.1625 5.95709C43.1625 5.69858 43.1487 5.55833 43.1047 5.39333C43.0744 5.27232 42.9947 5.06882 42.9314 4.94232C42.8599 4.80207 42.7471 4.63981 42.6481 4.53256C42.5573 4.43631 42.395 4.29881 42.2905 4.23006C42.186 4.15855 41.999 4.0678 41.8779 4.02655C41.7514 3.98255 41.5589 3.9413 41.4241 3.9303C41.2948 3.91655 41.0858 3.91655 40.9565 3.92755C40.8272 3.93855 40.6292 3.9798 40.5164 4.0183V4.0183ZM58.079 2.25827C58.2908 2.26377 58.5686 2.28852 58.6979 2.31327C58.8272 2.33802 59.05 2.39577 59.193 2.44253C59.336 2.48928 59.5836 2.59103 59.7431 2.67353C59.9026 2.75328 60.1364 2.89903 60.2657 2.99528C60.395 3.09429 60.5958 3.27579 60.7168 3.40229C60.8351 3.52879 60.9974 3.7323 61.0771 3.8533C61.1569 3.9743 61.2642 4.1613 61.3192 4.26581C61.3715 4.37031 61.4485 4.55731 61.4897 4.67831C61.531 4.79932 61.5888 5.01657 61.6218 5.15957C61.6685 5.37133 61.6795 5.51433 61.6795 5.92959C61.6795 6.34484 61.6685 6.48785 61.619 6.71335C61.5888 6.8646 61.5282 7.08186 61.487 7.19461C61.4485 7.30736 61.3715 7.49436 61.3165 7.60711C61.2614 7.71987 61.1432 7.92612 61.0524 8.06087C60.9589 8.20112 60.7663 8.42938 60.6123 8.58338C60.4583 8.73463 60.241 8.92164 60.1282 9.00139C60.0154 9.07839 59.8091 9.19664 59.6743 9.26539C59.5396 9.33414 59.314 9.42765 59.1792 9.47165C59.0445 9.5184 58.8134 9.57615 58.6704 9.60365C58.4833 9.6394 58.277 9.65315 57.9415 9.65315C57.5646 9.6504 57.4188 9.6394 57.185 9.5899C57.0255 9.5569 56.8027 9.4964 56.6899 9.46065C56.5772 9.42215 56.3846 9.34239 56.2636 9.28464C56.1426 9.22689 55.9445 9.11414 55.8235 9.03439C55.6997 8.95189 55.4714 8.75663 55.2981 8.58613C55.1276 8.41288 54.9323 8.18462 54.8498 8.06087C54.77 7.93987 54.66 7.74187 54.6022 7.62086C54.5445 7.49986 54.4647 7.30186 54.4234 7.18086C54.3849 7.05985 54.3327 6.8756 54.3107 6.76835C54.2832 6.6556 54.2612 6.37509 54.2502 6.09459C54.2391 5.72883 54.2474 5.55008 54.2804 5.35208C54.3024 5.20907 54.3547 4.97807 54.3932 4.84332C54.4344 4.70856 54.5197 4.47756 54.5885 4.33456C54.6572 4.19156 54.7783 3.9743 54.858 3.8533C54.9406 3.7323 55.1028 3.52879 55.2211 3.40229C55.3421 3.27579 55.5429 3.09429 55.6722 2.99528C55.8015 2.89903 56.0353 2.75328 56.1948 2.67353C56.3544 2.59103 56.6019 2.48928 56.7449 2.44253C56.888 2.39577 57.1108 2.34077 57.2401 2.31602C57.3693 2.29402 57.5234 2.26927 57.5839 2.26102C57.6444 2.25552 57.8672 2.25552 58.079 2.25827V2.25827ZM57.3501 4.0018C57.2373 4.03755 57.064 4.10905 56.965 4.1613C56.855 4.22181 56.6982 4.35106 56.5524 4.49681C56.3654 4.68656 56.2938 4.78007 56.2031 4.96707C56.1398 5.09632 56.0683 5.28882 56.0408 5.39333C56.0023 5.53358 55.9885 5.68483 55.9913 5.95709C55.9913 6.22659 56.005 6.37784 56.0408 6.5071C56.0683 6.6061 56.1151 6.7491 56.1481 6.82335C56.1783 6.90035 56.2498 7.0351 56.3076 7.12586C56.3626 7.21661 56.5001 7.37611 56.6129 7.48336C56.7422 7.60436 56.8935 7.71437 57.0228 7.78037C57.1355 7.83537 57.3253 7.90687 57.4464 7.93712C57.5976 7.97562 57.7572 7.99487 57.9552 7.99487C58.1147 7.99487 58.3073 7.98112 58.3816 7.96737C58.4586 7.95362 58.5824 7.92062 58.6566 7.89587C58.7336 7.86837 58.8492 7.81887 58.9179 7.78587C58.9867 7.75012 59.1215 7.66212 59.2177 7.59061C59.314 7.51636 59.4488 7.38161 59.5176 7.29086C59.5836 7.20011 59.6826 7.04335 59.7321 6.9416C59.7844 6.8371 59.8504 6.65285 59.8779 6.5291C59.9081 6.40259 59.9384 6.21284 59.9494 6.10834C59.9604 6.00384 59.9549 5.81133 59.9356 5.68208C59.9191 5.55283 59.8806 5.36858 59.8504 5.26957C59.8174 5.17057 59.7486 5.00557 59.6936 4.90107C59.6358 4.79657 59.5176 4.62881 59.4268 4.53256C59.336 4.43356 59.1737 4.29606 59.0692 4.22456C58.9647 4.1558 58.7721 4.06505 58.6429 4.02105C58.5136 3.9798 58.31 3.9358 58.189 3.92755C58.068 3.91655 57.8754 3.91655 57.7627 3.9248C57.6499 3.93305 57.4629 3.9688 57.3501 4.0018V4.0018ZM35.0839 2.31327L35.271 2.40402C35.4058 2.46728 35.48 2.52778 35.5543 2.62403C35.6066 2.69553 35.6698 2.81653 35.6918 2.89078C35.7248 3.00629 35.7303 3.41054 35.7303 7.86837L36.0797 7.88487C36.3602 7.89587 36.4592 7.91237 36.5693 7.96187C36.6463 7.99487 36.7481 8.06087 36.7976 8.11037C36.8498 8.15987 36.9131 8.24513 36.9434 8.30288C36.9709 8.35788 37.0066 8.48713 37.0231 8.59163C37.0369 8.69338 37.0506 9.12789 37.0506 9.55965C37.0506 9.9914 37.0369 10.4232 37.0204 10.5222C37.0066 10.6212 36.9571 10.7642 36.9158 10.8384C36.8746 10.9127 36.7838 11.0172 36.7178 11.0667C36.6518 11.1189 36.5363 11.1767 36.4592 11.1987C36.385 11.2207 36.2447 11.2372 36.1512 11.2372C36.0467 11.2372 35.9201 11.2152 35.8349 11.1822C35.7551 11.1519 35.6423 11.0887 35.5818 11.0392C35.524 10.9897 35.4443 10.8797 35.403 10.7972C35.3342 10.6542 35.3315 10.6184 35.304 9.6009L30.0091 9.58715V9.96665C30.0091 10.1729 29.9953 10.4232 29.9788 10.5222C29.9651 10.6212 29.9156 10.7642 29.8743 10.8384C29.833 10.9154 29.7423 11.0172 29.6763 11.0667C29.6102 11.1189 29.4947 11.1767 29.4177 11.1987C29.3434 11.2207 29.2032 11.2372 29.1096 11.2372C28.9996 11.2372 28.8786 11.2152 28.7796 11.1767C28.6833 11.1409 28.5733 11.0722 28.5073 11.0062C28.4412 10.9402 28.3725 10.8302 28.3367 10.7367C28.279 10.5827 28.2762 10.5387 28.2762 9.5679C28.2762 8.72088 28.2817 8.53113 28.3202 8.40463C28.3532 8.28913 28.3972 8.22037 28.5045 8.11587C28.5843 8.03887 28.6943 7.96187 28.7576 7.94262C28.8181 7.92337 28.9666 7.89862 29.3077 7.87662L29.3929 7.75012C29.4397 7.67862 29.5112 7.55761 29.547 7.48336C29.5855 7.40636 29.6515 7.25236 29.69 7.13961C29.7313 7.02685 29.789 6.83985 29.8165 6.7271C29.8468 6.61435 29.8881 6.41634 29.9101 6.28709C29.9321 6.15784 29.9651 5.92409 29.9816 5.76458C30.0008 5.60508 30.0228 4.89557 30.0503 2.89078L30.1191 2.74228C30.1576 2.65978 30.2346 2.55253 30.2924 2.50028C30.3474 2.45078 30.4272 2.39577 30.4712 2.37927C30.5124 2.36002 30.5895 2.33802 30.6417 2.32702C30.694 2.31327 31.7172 2.30777 35.0839 2.31327V2.31327ZM31.709 4.60681C31.7117 4.91757 31.7007 5.34658 31.6869 5.55833C31.6704 5.77008 31.6319 6.10284 31.6017 6.30084C31.5687 6.4961 31.5027 6.80135 31.4531 6.9746C31.4009 7.14786 31.3239 7.37611 31.2799 7.48336C31.2331 7.59061 31.1781 7.72262 31.1533 7.77762L31.1093 7.88212H33.9699V4.00455C32.2508 4.00455 31.742 4.0128 31.7282 4.0238C31.7145 4.03205 31.7062 4.29606 31.709 4.60681V4.60681ZM49.7447 2.30777C51.8214 2.31327 51.9231 2.31602 52.0552 2.36552C52.1322 2.39577 52.2477 2.47278 52.3192 2.54428C52.399 2.62403 52.465 2.72853 52.564 2.98703V7.86837L52.9134 7.88487C53.1444 7.89862 53.3122 7.92062 53.403 7.95362C53.4772 7.98112 53.5845 8.04712 53.6368 8.10212C53.689 8.15437 53.755 8.24238 53.7798 8.29463C53.8073 8.34688 53.8403 8.46513 53.8568 8.55588C53.8788 8.66313 53.8843 9.04264 53.8788 9.6559C53.8706 10.4947 53.8623 10.6047 53.8156 10.7284C53.7853 10.8054 53.7083 10.9209 53.6368 10.9924C53.5542 11.0777 53.458 11.1409 53.348 11.1822C53.2132 11.2317 53.1417 11.2399 52.9629 11.2317C52.8253 11.2234 52.6961 11.1987 52.619 11.1657C52.5503 11.1354 52.4513 11.0667 52.399 11.0144C52.3467 10.9622 52.2725 10.8577 52.234 10.7834C52.1679 10.6542 52.1652 10.6184 52.1514 9.58715H46.8428L46.8345 10.0877C46.8263 10.4947 46.8153 10.6184 46.774 10.7284C46.7438 10.8082 46.6695 10.9209 46.5952 10.9924C46.5127 11.0777 46.4164 11.1409 46.3064 11.1822C46.1716 11.2317 46.1001 11.2399 45.9213 11.2317C45.7838 11.2234 45.6545 11.1987 45.5775 11.1657C45.5087 11.1354 45.4042 11.0612 45.3464 11.0007C45.2859 10.9429 45.2117 10.8384 45.1814 10.7697C45.1264 10.6514 45.1236 10.5992 45.1236 9.5459C45.1236 8.55588 45.1292 8.43488 45.1704 8.34138C45.1979 8.28638 45.2612 8.19287 45.3107 8.13512C45.363 8.08012 45.4702 8.00312 45.5527 7.96737C45.649 7.92612 45.781 7.89587 46.1579 7.86837L46.2376 7.74462C46.2817 7.67587 46.3559 7.54111 46.4054 7.44211C46.4522 7.34311 46.5292 7.15061 46.5732 7.01585C46.6172 6.87835 46.6832 6.61985 46.719 6.43834C46.7548 6.25684 46.7988 5.98459 46.818 5.83333C46.8345 5.68208 46.8565 4.95882 46.8675 4.22456C46.884 2.95128 46.8868 2.88528 46.9418 2.76703C46.9721 2.69828 47.0353 2.60203 47.0793 2.54978C47.1233 2.50028 47.2059 2.43428 47.2609 2.40677C47.3186 2.37652 47.4122 2.34352 47.4672 2.32977C47.5277 2.31602 48.5069 2.30502 49.7447 2.30777V2.30777ZM48.5647 4.27131C48.5564 4.41981 48.5481 4.70856 48.5481 4.91207C48.5481 5.11557 48.5344 5.44283 48.5206 5.64083C48.5041 5.83608 48.4656 6.15234 48.4354 6.34209C48.4024 6.53185 48.3336 6.82885 48.2813 7.0021C48.2291 7.17536 48.1328 7.44486 48.064 7.59886L47.943 7.88212H50.8036V4.00455H48.5839L48.5647 4.27131ZM46.3862 13.9185C46.4962 13.9276 46.6108 13.9616 46.73 14.0202C46.851 14.0807 46.9363 14.1467 46.9996 14.232C47.0518 14.3007 47.1096 14.419 47.1316 14.4932C47.1646 14.6087 47.1728 15.0377 47.1701 19.5671H50.2233L50.2315 17.0728C50.2398 14.6912 50.2425 14.5702 50.292 14.4382C50.3223 14.3557 50.3993 14.2457 50.4846 14.1632C50.5808 14.0642 50.6689 14.0065 50.7734 13.9707C50.8697 13.9377 51.0017 13.9185 51.131 13.9185C51.307 13.9185 51.3648 13.9322 51.5161 14.0037C51.6288 14.0587 51.7361 14.1357 51.7994 14.21C51.8571 14.276 51.9231 14.386 51.9506 14.452C51.9947 14.5675 51.9974 14.7875 52.0112 19.5671L52.3632 19.5753C52.6576 19.5836 52.7346 19.5946 52.8501 19.6468C52.9271 19.6798 53.0289 19.7486 53.0784 19.7981C53.1279 19.8448 53.1967 19.9466 53.2297 20.0208C53.2902 20.1556 53.2902 20.1913 53.2984 21.1896C53.3094 22.2016 53.3067 22.2264 53.2462 22.3859C53.2132 22.4766 53.1389 22.6004 53.0839 22.6609C53.0289 22.7241 52.9161 22.8039 52.8336 22.8396C52.7126 22.8946 52.641 22.9084 52.4375 22.9084C52.212 22.9084 52.1707 22.9001 52.0249 22.8259C51.9149 22.7709 51.8324 22.7021 51.7609 22.6059C51.7031 22.5316 51.6426 22.4271 51.6261 22.3721C51.6068 22.3171 51.5876 22.0669 51.5711 21.2721L48.8012 21.2666C46.0616 21.2611 46.0286 21.2583 45.9048 21.2033C45.8388 21.1703 45.7343 21.1043 45.6765 21.0521C45.6188 20.9998 45.539 20.8898 45.4235 20.6533V14.5207L45.4922 14.3832C45.5307 14.309 45.6023 14.2072 45.6518 14.1577C45.7013 14.1082 45.781 14.0477 45.8306 14.023C45.8801 13.9955 45.9873 13.9597 46.0699 13.9405C46.1551 13.9212 46.2954 13.9102 46.3862 13.9185V13.9185ZM55.2019 13.9185C55.2871 13.9267 55.4109 13.9487 55.4769 13.9707C55.5457 13.9927 55.6612 14.0642 55.7355 14.1302C55.8097 14.1935 55.8923 14.2897 55.917 14.342C55.9445 14.397 55.9803 14.5042 55.9968 14.584C56.0188 14.6857 56.027 15.4612 56.027 19.5671H59.0802L59.094 14.5207L59.1627 14.386C59.2012 14.309 59.2755 14.2045 59.3278 14.1522C59.3828 14.1 59.4928 14.0285 59.5753 13.99C59.6936 13.935 59.7734 13.9212 59.9329 13.9212C60.0649 13.9185 60.197 13.9377 60.2905 13.9707C60.4005 14.0092 60.4858 14.0642 60.5985 14.177C60.7168 14.2952 60.7608 14.364 60.7966 14.4795C60.8378 14.617 60.8433 14.8892 60.8406 19.5671H61.1514C61.3412 19.5671 61.5145 19.5836 61.597 19.6083C61.674 19.6303 61.7868 19.6853 61.8528 19.7321C61.9353 19.7926 61.9959 19.8696 62.1471 20.1858V22.2786L62.0591 22.4629C61.9931 22.6031 61.9353 22.6719 61.8391 22.7434C61.7676 22.7956 61.6328 22.8589 61.542 22.8836C61.4347 22.9139 61.322 22.9249 61.2119 22.9166C61.1212 22.9084 60.9809 22.8726 60.8984 22.8369C60.8103 22.7984 60.7058 22.7214 60.6371 22.6471C60.571 22.5729 60.505 22.4601 60.4775 22.3721C60.4363 22.2511 60.428 22.1274 60.428 21.2721L54.8855 21.2583L54.7343 21.1868C54.6517 21.1483 54.5417 21.0741 54.4922 21.0218C54.4399 20.9723 54.3767 20.8843 54.3464 20.8266C54.3189 20.7688 54.2832 20.6396 54.2667 20.5378C54.2474 20.4168 54.2419 19.3608 54.2474 17.4633C54.2529 14.8232 54.2584 14.5675 54.3024 14.452C54.3272 14.386 54.3959 14.2732 54.4564 14.2045C54.5142 14.1385 54.616 14.0532 54.682 14.0202C54.7508 13.9872 54.8608 13.9487 54.9268 13.9322C54.9956 13.9185 55.1193 13.913 55.2019 13.9185V13.9185ZM34.311 13.9982L34.4623 14.067C34.5531 14.111 34.6576 14.1907 34.7319 14.2732C34.8061 14.3612 34.8666 14.463 34.8914 14.5482C34.9244 14.6665 34.9327 15.1532 34.9327 17.6558C34.9327 20.3316 34.9272 20.6423 34.8859 20.7771C34.8501 20.8953 34.8061 20.9641 34.6879 21.0823C34.5723 21.1951 34.4926 21.2501 34.3798 21.2858C34.2945 21.3161 34.1515 21.3353 34.0497 21.3353C33.9534 21.3353 33.8104 21.3161 33.7334 21.2913C33.6564 21.2666 33.5381 21.1978 33.4583 21.1291C33.3731 21.0548 33.2961 20.9503 33.1833 20.7083L33.1695 15.6895H30.0338L30.0201 20.7083L29.9513 20.8596C29.9101 20.9503 29.8303 21.0548 29.745 21.1291C29.668 21.1951 29.5497 21.2693 29.47 21.2941C29.3957 21.3188 29.2472 21.3353 29.1399 21.3353C29.0189 21.3353 28.8923 21.3133 28.7961 21.2776C28.7135 21.2473 28.5953 21.1731 28.5293 21.1098C28.4632 21.0493 28.3835 20.9448 28.2872 20.7633L28.2817 17.7108C28.2734 15.0212 28.279 14.6445 28.3175 14.5345C28.3395 14.4685 28.3917 14.364 28.433 14.3062C28.4742 14.2485 28.565 14.166 28.631 14.122C28.6998 14.078 28.8043 14.0312 28.8648 14.0175C28.9336 14.001 30.0283 13.9927 34.311 13.9982V13.9982ZM37.653 13.9955C37.807 14.001 37.8978 14.0202 38.0106 14.0725C38.0959 14.1137 38.2031 14.1935 38.2526 14.2512C38.3022 14.309 38.3682 14.4217 38.3984 14.5015C38.4507 14.6417 38.4507 14.7187 38.4507 16.707C38.4507 17.8428 38.4617 18.7751 38.4727 18.7806C38.4837 18.7888 39.1438 17.8703 39.936 16.7428C40.7309 15.618 41.4378 14.6252 41.5066 14.54C41.5754 14.4547 41.7046 14.3255 41.7954 14.254C41.8862 14.1797 42.0265 14.0945 42.109 14.0615C42.2355 14.012 42.318 14.001 42.6068 14.001C42.9369 14.001 42.9562 14.0037 43.1295 14.0862C43.2367 14.1385 43.3468 14.2182 43.41 14.2925C43.4678 14.3585 43.5421 14.4795 43.6356 14.7132V17.6558C43.6356 20.3728 43.6328 20.6093 43.5888 20.7358C43.5641 20.8128 43.4953 20.9283 43.4375 20.9943C43.3798 21.0603 43.267 21.1456 43.1817 21.1868C43.0524 21.2501 42.9974 21.2583 42.7829 21.2583C42.6178 21.2556 42.5023 21.2391 42.4336 21.2088C42.3758 21.1841 42.2768 21.1153 42.2135 21.0576C42.1475 20.9998 42.065 20.8843 41.9577 20.6533L41.9302 16.4458L41.7652 16.6795C41.6744 16.8088 40.9922 17.774 40.2523 18.8218C39.2401 20.2573 38.8605 20.7743 38.7257 20.9008C38.6295 20.9943 38.4754 21.1016 38.3902 21.1428C38.3022 21.1841 38.1591 21.2336 38.0739 21.2501C37.9858 21.2666 37.8153 21.2748 37.6943 21.2666C37.532 21.2583 37.4302 21.2336 37.2982 21.1731C37.1937 21.1263 37.0809 21.0493 37.0176 20.9778C36.9599 20.9146 36.8828 20.8018 36.7866 20.5983L36.7783 17.6695C36.7728 15.706 36.7811 14.6967 36.8003 14.6032C36.8141 14.529 36.8636 14.4107 36.9076 14.342C36.9516 14.276 37.0369 14.1852 37.0946 14.144C37.1524 14.1027 37.2569 14.0505 37.3229 14.0285C37.4027 14.001 37.5237 13.99 37.653 13.9955V13.9955ZM9.05498 4.69206C9.11825 4.69206 9.23377 4.71956 9.30804 4.75532C9.38505 4.79107 9.50883 4.88182 9.5831 4.95882C9.66011 5.03582 9.76464 5.17057 9.8169 5.25857C9.87191 5.34658 9.93517 5.49783 9.95993 5.59683C9.98744 5.69583 10.0067 5.81408 10.0094 5.85808C10.0094 5.90483 9.99569 5.99009 9.97918 6.05059C9.96268 6.11109 9.90767 6.20184 9.85816 6.25134C9.78114 6.32834 9.74813 6.34209 9.63536 6.34209C9.55009 6.34209 9.45382 6.31734 9.36305 6.27334C9.28878 6.23759 9.1595 6.13584 9.07424 6.04784C8.99172 5.95984 8.88444 5.80583 8.83493 5.70683C8.78542 5.61058 8.75242 5.52258 8.75792 5.51433C8.76617 5.50883 8.81843 5.52533 8.87619 5.55283C8.95871 5.59408 8.99172 5.59683 9.04123 5.57483C9.07424 5.55558 9.1155 5.51708 9.12925 5.48683C9.14575 5.45658 9.15125 5.39333 9.143 5.34383C9.13475 5.29432 9.09349 5.19532 9.04673 5.12382C8.99172 5.03307 8.9312 4.97807 8.85419 4.94507C8.79367 4.91757 8.74416 4.89007 8.74416 4.87907C8.74416 4.86807 8.78817 4.82407 8.84043 4.77732C8.91745 4.70856 8.96421 4.69206 9.05498 4.69206V4.69206Z" fill="black"/>
</svg>
