<svg width="52" height="52" viewBox="0 0 52 52" fill="none" xmlns="http://www.w3.org/2000/svg">
<path d="M0 52V26V0H52V52H0Z" fill="#010101"/>
<path d="M5.97997 20.3268C6.10997 20.2592 6.32837 20.176 6.47397 20.1448C6.61437 20.1084 6.81717 20.0772 6.91597 20.0772C7.01477 20.072 7.33197 20.1188 7.61797 20.176C7.96637 20.2488 8.20557 20.332 8.34597 20.4256C8.46037 20.5088 8.55917 20.618 8.56957 20.67C8.57997 20.7272 8.49157 20.9976 8.37197 21.268C8.25237 21.5384 8.11717 21.8036 8.06517 21.8556C7.99237 21.944 7.95597 21.9492 7.69597 21.892C7.53997 21.8556 7.34237 21.8452 7.25397 21.8608C7.16557 21.8816 7.06677 21.9232 7.02517 21.9596C6.98877 21.996 6.92117 22.1052 6.88477 22.204C6.83797 22.3184 6.81197 22.5732 6.81197 23.4H7.48797C8.14317 23.4 8.16397 23.4052 8.21077 23.5196C8.23677 23.582 8.23677 23.764 8.21077 23.92C8.18997 24.076 8.14317 24.3516 8.11717 24.5336C8.08597 24.7104 8.03917 24.9132 8.00797 24.986C7.95597 25.116 7.94557 25.116 7.38397 25.116C6.82757 25.116 6.81197 25.1212 6.81197 25.2356V27.092C6.81717 28.0488 6.80157 28.8704 6.78597 28.912C6.76517 28.9744 6.66117 28.9848 6.22437 28.9744C5.93317 28.9692 5.52757 28.9432 4.96597 28.886L4.91397 25.142L4.69557 25.1316C4.51877 25.1212 4.46157 25.09 4.41997 25.0016C4.39397 24.934 4.32637 24.5908 4.26397 24.232C4.20677 23.8732 4.15997 23.5404 4.15997 23.4936C4.15997 23.4156 4.21717 23.4 4.91397 23.374L4.94517 22.542C4.96077 22.0844 5.00757 21.6424 5.03877 21.554C5.07517 21.4708 5.16877 21.2576 5.25197 21.086C5.33517 20.9144 5.48077 20.7012 5.57437 20.6076C5.66797 20.5192 5.84997 20.3892 5.97997 20.3268Z" fill="#FFCB29"/>
<path d="M25.1576 21.8504C25.1524 21.0236 25.168 20.332 25.194 20.3164C25.22 20.2956 25.3188 20.28 25.4228 20.28C25.5268 20.28 25.8804 20.3164 26.208 20.3632C26.5356 20.4048 26.858 20.4516 27.04 20.488V28.912L26.4056 28.9484C26.052 28.9692 25.636 28.9848 25.48 28.99C25.2148 28.99 25.194 28.9796 25.1784 28.86C25.168 28.7872 25.1368 28.704 25.1108 28.678C25.0796 28.6468 25.0224 28.6676 24.9496 28.7352C24.882 28.7976 24.7104 28.9016 24.57 28.9692C24.3828 29.0524 24.18 29.094 23.842 29.1096C23.5664 29.1252 23.2544 29.1044 23.088 29.068C22.932 29.0316 22.6668 28.938 22.5004 28.8548C22.3392 28.7716 22.0948 28.6052 21.9648 28.4856C21.8348 28.3608 21.658 28.158 21.5748 28.028C21.4864 27.898 21.3616 27.6068 21.2888 27.378C21.2004 27.0972 21.1432 26.7904 21.1276 26.442C21.1016 26.0156 21.1172 25.844 21.2108 25.4956C21.268 25.2564 21.372 24.9652 21.4292 24.8456C21.4916 24.7208 21.6424 24.492 21.7672 24.336C21.892 24.18 22.0688 23.9876 22.1624 23.9148C22.256 23.842 22.464 23.712 22.62 23.6236C22.776 23.5352 23.0464 23.4208 23.218 23.3688C23.4364 23.3064 23.7068 23.2752 24.128 23.2752C24.4556 23.27 24.8248 23.2856 25.168 23.348L25.1576 21.8504Z" fill="#FFCB29"/>
<path d="M10.296 23.4624C10.452 23.4 10.686 23.3272 10.816 23.296C10.946 23.27 11.31 23.2544 11.6324 23.2596C12.0206 23.2666 12.2373 23.2926 12.2824 23.3376C12.3188 23.374 12.3916 23.4 12.4384 23.4C12.4904 23.4 12.6776 23.4728 12.8544 23.5612C13.0364 23.6444 13.3172 23.8524 13.4836 24.0136C13.6708 24.1956 13.858 24.4504 13.9672 24.6636C14.066 24.856 14.17 25.1212 14.2012 25.2616C14.2324 25.3968 14.2584 25.74 14.2532 26.026C14.2532 26.312 14.2272 26.6084 14.144 26.832H10.452L10.4832 26.9776C10.4988 27.0556 10.5508 27.1596 10.5976 27.2116C10.6444 27.2636 10.816 27.3676 10.972 27.4456C11.2268 27.5704 11.3152 27.586 11.804 27.586C12.2668 27.586 12.4124 27.56 12.7504 27.4404C13.0052 27.352 13.182 27.3156 13.2184 27.3468C13.2548 27.3676 13.3432 27.5392 13.4108 27.7212C13.4784 27.9032 13.5668 28.132 13.6032 28.2256C13.6448 28.314 13.676 28.4232 13.676 28.4596C13.676 28.4908 13.624 28.574 13.5616 28.6364C13.494 28.6988 13.3224 28.7976 13.182 28.86C13.0364 28.9224 12.7348 29.016 12.506 29.0732C12.22 29.1408 11.908 29.172 11.518 29.1668C11.154 29.1668 10.868 29.1408 10.738 29.094C10.6236 29.0524 10.4884 29.016 10.4364 29.016C10.3896 29.016 10.2024 28.9432 10.0204 28.8548C9.84357 28.7612 9.55237 28.5584 9.37037 28.3972C9.18837 28.236 9.04797 28.08 9.04797 28.054C9.04797 28.028 9.01157 27.9656 8.96477 27.924C8.91797 27.8824 8.82957 27.7316 8.76197 27.586C8.69957 27.4456 8.61637 27.2324 8.58517 27.118C8.54877 27.0036 8.51237 26.6656 8.49157 26.364C8.47077 25.9376 8.48117 25.7452 8.55397 25.48C8.60077 25.2928 8.69957 25.0276 8.77237 24.882C8.83997 24.7416 8.95437 24.5388 9.02717 24.44C9.09477 24.3412 9.26637 24.154 9.40157 24.0292C9.53677 23.9044 9.72917 23.7536 9.82797 23.6912C9.92677 23.6288 10.14 23.5248 10.296 23.4624Z" fill="#FFCB29"/>
<path d="M16.328 23.5716C16.5152 23.478 16.8064 23.3688 16.978 23.3272C17.1496 23.2856 17.5032 23.2492 17.758 23.2492C18.0128 23.2492 18.3092 23.2648 18.408 23.2908C18.5068 23.3168 18.6732 23.3688 18.772 23.4C18.8708 23.4364 19.058 23.5144 19.1828 23.5768C19.3076 23.634 19.5416 23.8056 19.7028 23.9512C19.864 24.0968 20.0824 24.3672 20.1916 24.5492C20.306 24.7312 20.4308 25.0224 20.4776 25.194C20.5244 25.3812 20.5556 25.714 20.5556 26.026C20.5556 26.312 20.5244 26.6084 20.436 26.832H16.744L16.7752 26.9776C16.7908 27.0556 16.8428 27.1596 16.8896 27.2116C16.9364 27.2636 17.108 27.3676 17.264 27.4456C17.5188 27.5704 17.6072 27.586 18.096 27.586C18.5536 27.5808 18.7096 27.56 19.058 27.4352C19.4012 27.3156 19.4844 27.3052 19.5312 27.3624C19.5676 27.3988 19.656 27.5964 19.7288 27.794C19.8068 27.9968 19.9004 28.2308 19.942 28.314C19.9992 28.444 19.9992 28.4908 19.9368 28.5896C19.8952 28.652 19.8588 28.704 19.8484 28.704C19.8432 28.704 19.6612 28.7768 19.448 28.8652C19.2348 28.9484 18.902 29.0576 18.7044 29.0992C18.512 29.1408 18.122 29.172 17.836 29.172C17.55 29.172 17.1912 29.146 17.0404 29.1148C16.8948 29.0784 16.5932 28.9744 16.38 28.8756C16.1668 28.7768 15.8704 28.5948 15.73 28.47C15.5844 28.3452 15.3764 28.1112 15.262 27.9448C15.1476 27.7784 14.9968 27.4872 14.9292 27.3C14.846 27.0608 14.7992 26.806 14.7836 26.416C14.7628 26.0156 14.7784 25.7712 14.8408 25.506C14.8876 25.3084 15.002 24.9912 15.0956 24.804C15.2048 24.5856 15.392 24.336 15.626 24.102C15.8652 23.868 16.1096 23.6808 16.328 23.5716Z" fill="#FFCB29"/>
<path d="M36.764 17.0872C36.9772 17.0404 37.414 16.9676 37.726 16.9312C38.038 16.8896 38.428 16.8584 38.584 16.8532C38.74 16.8532 39.1404 16.874 39.468 16.9052C39.7956 16.9312 40.2896 17.004 40.56 17.056C40.8304 17.1132 41.314 17.238 41.626 17.342C41.938 17.4512 42.4684 17.6696 42.796 17.8308C43.1236 17.9972 43.5552 18.2364 43.758 18.3716C43.9608 18.5016 44.3092 18.7616 44.538 18.9436C44.7668 19.1256 45.162 19.4948 45.4116 19.7652C45.6664 20.0356 46.0564 20.5244 46.28 20.852C46.5036 21.1796 46.8 21.684 46.9352 21.97C47.0756 22.256 47.2212 22.5732 47.2576 22.672C47.2992 22.7708 47.372 22.9944 47.4292 23.166C47.4864 23.3376 47.5748 23.6652 47.632 23.894C47.684 24.1228 47.7568 24.4868 47.7932 24.7C47.8296 24.9132 47.8608 25.4852 47.866 25.974C47.866 26.4784 47.8348 27.0504 47.7932 27.3C47.7568 27.5444 47.658 28.002 47.5748 28.314C47.4968 28.626 47.3668 29.0472 47.294 29.25C47.216 29.4528 47.0496 29.822 46.9144 30.082C46.7844 30.342 46.5712 30.7112 46.4464 30.914C46.3164 31.1168 46.1032 31.4184 45.9732 31.59C45.8432 31.7616 45.526 32.1204 45.266 32.3856C45.0112 32.656 44.668 32.968 44.512 33.0876C44.356 33.2072 44.2156 33.3216 44.2 33.3372C44.1844 33.358 43.9868 33.4932 43.758 33.644C43.5292 33.7896 43.0612 34.0496 42.718 34.216C42.3748 34.3876 41.9068 34.5852 41.678 34.658C41.4492 34.736 41.0644 34.8452 40.82 34.9024C40.5756 34.9596 40.0972 35.0376 39.754 35.0792C39.4108 35.1208 38.9428 35.152 38.714 35.152C38.4852 35.152 38.09 35.126 37.83 35.0948C37.57 35.0688 37.1384 34.996 36.868 34.9388C36.5976 34.8816 36.2232 34.788 36.036 34.7308C35.8488 34.6684 35.5472 34.5644 35.36 34.4916C35.1728 34.424 34.7776 34.2368 34.476 34.0756C34.1744 33.9196 33.7896 33.6908 33.618 33.5764L33.5968 33.5616C33.4313 33.4463 33.2571 33.3249 33.2072 33.28C33.15 33.2384 32.9316 33.046 32.7132 32.8588C32.4948 32.6664 32.2088 32.396 32.0788 32.2608C31.9436 32.1204 31.7356 31.876 31.6056 31.72C31.4808 31.564 31.2416 31.226 31.07 30.966C30.9036 30.706 30.6436 30.238 30.4928 29.926C30.3472 29.614 30.1496 29.12 30.056 28.834C29.9624 28.548 29.8532 28.1632 29.8116 27.976C29.77 27.7888 29.7076 27.3676 29.666 27.04C29.6244 26.7124 29.5932 26.2548 29.588 26.026C29.588 25.7972 29.6244 25.3292 29.6608 24.986C29.7024 24.6428 29.7752 24.1956 29.822 23.998C29.8688 23.7952 29.978 23.4104 30.0664 23.14C30.1548 22.8696 30.342 22.4016 30.4824 22.1C30.6228 21.7984 30.8932 21.32 31.0804 21.034C31.2676 20.748 31.5796 20.3268 31.772 20.098C31.9696 19.8692 32.2504 19.5624 32.4064 19.4168C32.5572 19.2764 32.8224 19.0424 32.994 18.902C33.1656 18.7668 33.4828 18.5328 33.696 18.3924C33.9092 18.2468 34.3564 17.992 34.684 17.8308C35.0116 17.6644 35.5264 17.4512 35.828 17.3524C36.1296 17.2536 36.5508 17.134 36.764 17.0872Z" fill="#E22227"/>
<path d="M10.7536 24.9808C10.8004 24.9444 10.9252 24.8976 11.024 24.8664C11.1228 24.8352 11.3204 24.8092 11.466 24.8092C11.622 24.8092 11.8144 24.8456 11.9444 24.908C12.0692 24.9652 12.2044 25.064 12.246 25.1316C12.2876 25.194 12.3396 25.324 12.402 25.584H11.4036C10.4832 25.584 10.4 25.5788 10.4 25.4956C10.4 25.4436 10.4572 25.3188 10.5352 25.22C10.608 25.1212 10.7068 25.012 10.7536 24.9808Z" fill="#010101"/>
<path d="M17.082 24.9808C17.1652 24.9288 17.2952 24.8716 17.368 24.8508C17.4408 24.8248 17.6384 24.8144 17.81 24.8248C17.9816 24.8352 18.2 24.882 18.2884 24.9288C18.382 24.9756 18.5068 25.09 18.564 25.1836C18.6212 25.272 18.668 25.402 18.668 25.584H17.68C16.8376 25.584 16.692 25.5736 16.692 25.506C16.692 25.4644 16.744 25.35 16.8064 25.2512C16.874 25.1524 16.9988 25.0276 17.082 24.9808Z" fill="#010101"/>
<path d="M23.7224 25.1368C23.8056 25.0952 23.9564 25.0432 24.0656 25.0172H24.0604C24.1696 24.9912 24.3516 24.9808 24.466 24.9964C24.5804 25.012 24.778 25.064 25.142 25.1992L25.168 26.988L24.96 27.118C24.8456 27.1908 24.6896 27.274 24.6064 27.3052C24.5284 27.3364 24.3152 27.3624 24.128 27.3676C23.8368 27.3676 23.764 27.3468 23.5872 27.2168C23.4624 27.1284 23.3324 26.962 23.2596 26.806C23.1816 26.6344 23.14 26.4472 23.14 26.26C23.14 26.104 23.166 25.8856 23.192 25.7816C23.2232 25.6724 23.322 25.5008 23.4104 25.3968C23.504 25.2928 23.6444 25.1732 23.7224 25.1368Z" fill="#010101"/>
<path d="M41.236 23.5456C41.2776 23.5092 41.4752 23.426 41.678 23.3636C41.912 23.2908 42.1876 23.2492 42.458 23.2492C42.7076 23.244 43.0092 23.2804 43.212 23.3376C43.3992 23.3896 43.654 23.4884 43.784 23.5612C43.914 23.6392 44.1324 23.8264 44.2728 23.9772C44.4132 24.1332 44.6056 24.4192 44.7044 24.622C44.798 24.8248 44.9124 25.1836 44.9592 25.428C45.0164 25.7296 45.0372 26.0104 45.0164 26.312C45.0008 26.5564 44.9384 26.9152 44.876 27.118C44.8136 27.3208 44.6784 27.6224 44.5744 27.794C44.4704 27.9656 44.3144 28.184 44.226 28.2828C44.1428 28.3816 43.9296 28.5532 43.758 28.6676C43.5864 28.7872 43.2848 28.938 43.082 29.0056C42.8324 29.094 42.5516 29.1408 42.198 29.1616C41.886 29.1772 41.5428 29.1616 41.34 29.1252C41.0644 29.0732 40.9968 29.0732 40.9656 29.1304C40.9448 29.1668 40.924 29.718 40.924 30.3524C40.924 30.992 40.9084 31.5172 40.8876 31.5276C40.8616 31.538 40.4716 31.5172 40.014 31.4808C39.5564 31.4444 39.1508 31.4132 39.1196 31.4132C39.0676 31.408 39.052 30.5708 39.052 23.4H40.924L40.95 23.556C40.9708 23.686 40.9916 23.7016 41.0644 23.6652C41.1164 23.6444 41.1944 23.5872 41.236 23.5456Z" fill="#FEFEFE"/>
<path d="M33.4724 23.5404C33.8676 23.4884 34.2264 23.4364 34.268 23.426C34.3096 23.4208 34.4084 23.4104 34.6268 23.4L34.6424 25.1576C34.658 26.728 34.6684 26.9308 34.7516 27.0556C34.7984 27.1336 34.918 27.2428 35.0116 27.3C35.1 27.3572 35.2664 27.404 35.3756 27.404C35.4796 27.404 35.646 27.3728 35.7396 27.3312C35.828 27.2896 35.984 27.1908 36.2492 26.962V25.298C36.2492 24.3828 36.2596 23.582 36.27 23.5144C36.296 23.4 36.3012 23.4 38.168 23.4V26.156C38.168 28.3244 38.1524 28.912 38.1056 28.912C38.0692 28.912 37.8872 28.9224 37.7 28.9328C37.5128 28.9432 37.1072 28.9692 36.2284 29.042L36.2492 28.8964C36.2596 28.8184 36.2388 28.73 36.2076 28.704C36.1608 28.6676 36.0568 28.7092 35.8696 28.8392C35.7188 28.938 35.464 29.0576 35.308 29.1044C35.1173 29.1564 34.8747 29.1772 34.58 29.1668C34.216 29.1512 34.0808 29.12 33.826 28.99C33.6492 28.9068 33.4152 28.73 33.3008 28.6C33.1812 28.47 33.02 28.2048 32.786 27.638L32.7548 23.634L33.4724 23.5404Z" fill="#FEFEFE"/>
<path d="M41.4024 25.1472C41.4388 25.1108 41.5532 25.0536 41.652 25.0224C41.7508 24.9912 41.86 24.9652 41.886 24.9652C41.912 24.96 42.0576 24.9964 42.198 25.038C42.3436 25.0848 42.5308 25.1836 42.6244 25.2616C42.7128 25.3396 42.8376 25.506 42.8948 25.636C42.9624 25.7816 43.004 25.9792 43.004 26.156C43.004 26.312 42.9728 26.5356 42.9364 26.65C42.9052 26.7644 42.7856 26.9464 42.6816 27.0556C42.5724 27.1596 42.4008 27.2844 42.302 27.326C42.1928 27.3728 41.964 27.404 41.7196 27.404C41.4076 27.3988 41.2724 27.378 41.1476 27.3C41.0072 27.2168 40.9708 27.1544 40.9448 26.9776C40.9292 26.8528 40.924 26.468 40.9344 26.1196C40.95 25.5372 40.9604 25.4748 41.0748 25.3552C41.1424 25.2824 41.2256 25.22 41.2672 25.22C41.3036 25.22 41.366 25.1888 41.4024 25.1472Z" fill="#E22227"/>
</svg>
