<svg width="49" height="61" viewBox="0 0 49 61" fill="none" xmlns="http://www.w3.org/2000/svg">
<path d="M28.2463 45.8936C27.9611 45.8936 27.6759 45.8936 27.3907 45.8936C27.0667 45.8675 26.7426 45.985 26.4056 45.972C25.8481 45.9459 25.3037 45.9981 24.7463 46.0111C24.0333 46.0242 23.3074 46.0634 22.5944 46.1025C21.713 46.1548 20.8315 46.207 19.95 46.2853C18.2907 46.4159 16.6315 46.5595 14.9852 46.8206C12.95 47.134 10.9407 47.5779 8.93148 48.0349C8.75 48.0741 8.56852 48.1393 8.38703 48.1263C8.14074 48.1132 7.98518 47.9827 7.92037 47.7477C7.84259 47.4474 7.9074 47.1471 7.93333 46.8598C8.05 45.4758 8.27037 44.1049 8.55555 42.747C8.93148 40.9844 9.34629 39.2479 9.86481 37.5244C9.86481 37.4983 9.87778 37.4852 9.87778 37.4591C9.9037 37.3286 9.87778 37.3024 9.76111 37.3286C9.5537 37.3808 9.37222 37.4983 9.26852 37.7072C9.15185 37.9292 9.04815 38.1642 8.94444 38.3992C8.54259 39.3784 8.19259 40.3707 7.84259 41.363C7.47963 42.3684 7.12963 43.3737 6.79259 44.3921C6.52037 45.2147 6.31296 46.0634 6.09259 46.899C5.98889 47.2907 5.87222 47.6954 5.78148 48.1002C5.74259 48.283 5.74259 48.283 5.92407 48.3091C6.92222 48.4396 7.9074 48.5702 8.90555 48.7008C10.15 48.8575 11.4074 49.0272 12.6518 49.1839C14.2463 49.3928 15.8278 49.6017 17.4222 49.7975C18.4074 49.9281 19.3796 50.0587 20.3648 50.1762C20.4426 50.1892 20.5333 50.1762 20.6111 50.2545C20.5852 50.3067 20.5463 50.2937 20.5074 50.2937C19.3278 50.2937 18.1481 50.2937 16.9556 50.2937C16.9426 50.2937 16.9296 50.2937 16.9037 50.2937C16.5407 50.2937 16.1648 50.2806 15.8019 50.2937C15.1537 50.3198 14.5185 50.1892 13.8704 50.1109C13.2741 50.0456 12.6778 49.9542 12.0944 49.8759C11.4981 49.7975 10.9018 49.7192 10.3185 49.6408C9.73518 49.5625 9.13889 49.4842 8.55555 49.4058C7.97222 49.3275 7.38889 49.2491 6.80555 49.1708C6.20926 49.0925 5.61296 49.0141 5.0037 48.9358C4.42037 48.8575 3.82407 48.7791 3.24074 48.7008C2.6574 48.6224 2.07407 48.5441 1.49074 48.4658C1.1537 48.4266 0.8037 48.3874 0.466663 48.3352C0.272219 48.3091 0.220367 48.2177 0.220367 47.9957C0.220367 46.0111 0.220367 44.0396 0.207404 42.055C0.168515 30.8917 0.142589 19.7284 0.1037 8.56508C0.1037 6.86773 0.090737 5.15733 0.090737 3.45998C0.090737 3.40776 0.090737 3.34248 0.090737 3.29025C0.0648111 2.82022 0.090737 2.33712 0.077774 1.86709C0.077774 1.77569 0.077774 1.6843 0.077774 1.60596C0.077774 1.16204 0.077774 0.705061 0.077774 0.26114C0.077774 0.156688 0.090737 0.0652926 0.220367 0.026123C0.337033 0.026123 0.4537 0.026123 0.557404 0.026123C1.06296 0.0652926 1.56851 0.130575 2.08703 0.195858C3.72037 0.417818 5.3537 0.626722 6.98703 0.848683C9.1 1.12287 11.2 1.39706 13.313 1.6843C13.7148 1.73653 14.0648 1.67124 14.4407 1.51456C16.0481 0.835627 17.7204 0.365592 19.4574 0.169745C20.8704 1.00285e-05 22.2833 0.0914056 23.6704 0.430875C25.4204 0.848683 27.0537 1.54068 28.5574 2.53297C29.1537 2.92467 29.7241 3.35553 30.2426 3.83862C30.3333 3.93002 30.45 3.95613 30.5667 3.96919C32.3815 4.20421 34.2093 4.45228 36.0241 4.6873C38.0074 4.94843 39.9907 5.20956 41.9741 5.47069C43.8018 5.7057 45.6167 5.95378 47.4444 6.18879C47.8722 6.24102 48.313 6.3063 48.7407 6.35853C48.8704 6.37158 48.9741 6.41075 49 6.55438C49 6.63272 49 6.698 49 6.77634C48.8704 7.14192 48.7926 7.52056 48.6889 7.88614C47.7944 11.2939 46.913 14.7016 46.0185 18.1094C45.137 21.5171 44.2426 24.9118 43.3611 28.3196C42.4796 31.6882 41.6111 35.0437 40.7296 38.4123C39.8481 41.7808 38.9796 45.1363 38.0981 48.5049C37.7222 49.9803 37.3333 51.4426 36.9444 52.905C36.8926 53.0878 36.8018 53.153 36.6204 53.14C36.3093 53.1008 35.9852 53.0486 35.6611 53.0094C35.7259 52.7613 35.7907 52.5133 35.8556 52.2652C35.8944 52.226 35.9463 52.226 35.9981 52.226C36.2185 52.2391 36.2704 52.1999 36.3222 51.991C36.4259 51.5732 36.5426 51.1685 36.6463 50.7506C36.9185 49.6931 37.2037 48.6355 37.4759 47.591C37.5019 47.4865 37.5019 47.3821 37.4759 47.2776C36.9963 45.4628 36.5426 43.6479 36.1019 41.8331C35.7519 40.3707 35.3889 38.8953 35.0389 37.433C34.8963 36.8324 34.7407 36.2449 34.5852 35.6443C34.5204 35.357 34.3648 35.1612 34.1185 35.0176C33.963 34.9262 33.7944 34.8478 33.613 34.8087C33.3796 34.7564 33.3018 34.8348 33.3278 35.0698C33.3926 35.4745 33.4574 35.8793 33.5222 36.271C33.7167 37.4069 33.8981 38.5298 34.0278 39.6787C34.1185 40.4621 34.1963 41.2455 34.2611 42.0289C34.3259 42.6948 34.3648 43.3607 34.4037 44.0266C34.4296 44.3399 34.4167 44.6663 34.4426 44.9797C34.4685 45.2669 34.5333 45.3714 34.8185 45.4236C35.1167 45.4758 35.4018 45.515 35.687 45.6064C35.7648 45.6325 35.8426 45.6456 35.9074 45.6847C35.9852 45.7239 36.05 45.7631 36.037 45.8545C36.0241 45.9459 35.9593 45.985 35.8815 45.9981C35.7259 46.0372 35.5574 46.0372 35.4019 46.0111C35.1815 45.985 34.9611 45.985 34.7407 45.985C34.6759 45.985 34.6111 45.985 34.5463 45.9459C34.0796 45.9459 33.6 45.9459 33.1333 45.9459C33.1204 45.9589 33.0944 45.972 33.0815 45.985C32.5241 45.9981 31.9796 46.0372 31.4222 45.9459C31.3963 45.9459 31.3833 45.9328 31.3574 45.9328C30.9426 45.9328 30.5278 45.9067 30.113 45.9459C29.5556 45.9981 29.0111 45.9589 28.4537 45.972C28.3759 45.9328 28.3111 45.9328 28.2463 45.8936Z" fill="#242220"/>
<path d="M0.0388806 1.57974C0.0388806 2.14117 0.0388806 2.7026 0.0388806 3.27708H0.0259177H0.0129547C0.0129547 2.71565 0.0129547 2.15422 0.0129547 1.57974C0.0259177 1.56668 0.0388806 1.56668 0.0388806 1.57974Z" fill="#EDEDEC"/>
<path d="M0.0388806 1.57982H0.0259177H0.0129547C0.0129547 1.12284 0.0129547 0.665862 0.0129547 0.195828C0.0259177 0.182771 0.0259177 0.182771 0.0388806 0.195828C0.0388806 0.652805 0.0388806 1.12284 0.0388806 1.57982Z" fill="#D5D5D4"/>
<path d="M0.0386625 0.19579H0.0127365C-0.000226437 0.0782816 -0.0131894 -0.0392269 0.168292 0.0129991C0.11644 0.0652251 0.0516254 0.117451 0.0386625 0.19579Z" fill="#F6F6F5"/>
<path d="M16.8907 50.2806C17.15 50.2806 17.4093 50.2675 17.6685 50.2675C18.5759 50.2675 19.4833 50.2675 20.3907 50.2675C20.4426 50.2675 20.4944 50.2675 20.5463 50.2675C20.5463 50.2545 20.5463 50.2545 20.5463 50.2414C19.95 50.1631 19.3407 50.0847 18.7444 50.0064C18.2259 49.9411 17.7074 49.8628 17.2018 49.7975C16.6833 49.7322 16.1518 49.6669 15.6333 49.6016C15.037 49.5233 14.4407 49.445 13.8444 49.3666C13.313 49.3013 12.7944 49.2361 12.263 49.1708C11.8222 49.1185 11.3944 49.0533 10.9537 49.001C10.513 48.9488 10.0593 48.8835 9.61852 48.8313C9.11296 48.766 8.59444 48.7007 8.08889 48.6355C7.64815 48.5832 7.2074 48.5179 6.76666 48.4657C6.42963 48.4265 6.07963 48.3743 5.74259 48.3352C5.63889 48.3221 5.67778 48.2699 5.69074 48.2176C5.84629 47.617 6.00185 47.0164 6.1574 46.4158C6.4037 45.4758 6.67592 44.5357 6.98703 43.6218C7.59629 41.8722 8.20555 40.1096 8.89259 38.3861C9.00926 38.0858 9.12592 37.7855 9.33333 37.5244C9.46296 37.3546 9.67037 37.3024 9.86481 37.2632C9.98148 37.2371 9.95555 37.3546 9.92963 37.433C9.86481 37.668 9.78703 37.8899 9.72222 38.125C9.29444 39.5612 8.9574 41.0235 8.63333 42.4858C8.42592 43.4259 8.27037 44.379 8.12778 45.3322C8.03703 46.0111 7.97222 46.69 7.92037 47.369C7.9074 47.5126 7.92037 47.6562 7.95926 47.7868C8.01111 48.0349 8.24444 48.1524 8.55555 48.0871C9.34629 47.9173 10.1241 47.7346 10.9148 47.5648C12.1074 47.3037 13.3 47.0556 14.5056 46.8598C15.3093 46.7161 16.1259 46.6247 16.9426 46.5334C17.7074 46.455 18.4593 46.3767 19.2241 46.3114C19.9241 46.2592 20.6111 46.2069 21.3111 46.1547C21.8556 46.1155 22.4 46.0894 22.9574 46.0633C23.8 46.0241 24.6296 45.985 25.4722 45.9589C25.8611 45.9458 26.237 45.9458 26.6259 45.9328C26.8852 45.9328 27.1444 45.8675 27.4037 45.9066C27.2741 45.9066 27.1574 45.9197 27.0278 45.9197C26.95 45.9197 26.9241 45.9458 26.9241 46.0242C26.9241 46.1155 26.9241 46.2069 26.9241 46.2853C26.9111 47.8782 26.8981 49.4711 26.8852 51.077C26.8204 51.1423 26.7296 51.1162 26.6518 51.1031C26.3407 50.5548 25.8741 50.3067 25.2519 50.3067C22.5944 50.3197 19.9241 50.3197 17.2667 50.3197C17.1241 50.2936 17.0074 50.3197 16.8907 50.2806Z" fill="#9B2D35"/>
<path d="M8.45185 55.9602C8.68518 55.7774 8.90555 55.6076 9.11296 55.4379C10.137 54.6415 11.1741 53.845 12.1981 53.0616C12.3278 52.9572 12.4704 52.8658 12.4315 52.6699C12.3926 52.4741 12.2241 52.3957 12.0556 52.3566C11.9 52.3305 11.887 52.2652 11.9389 52.1346C11.9907 52.004 11.9778 51.8212 12.0685 51.7429C12.1593 51.6646 12.3407 51.7168 12.4704 51.7168C13.8704 51.7168 15.2704 51.7168 16.6704 51.7037C16.8 51.7037 16.8259 51.7299 16.8 51.8604C16.7481 52.1346 16.6833 52.3305 16.3333 52.3696C16.0093 52.3957 15.75 52.6438 15.4907 52.8527C14.2722 53.8319 13.0667 54.8112 11.8481 55.7904C11.7444 55.8688 11.7315 55.921 11.8093 56.0516C12.4833 57.0961 13.1574 58.1406 13.8574 59.1721C14.1037 59.5507 14.4018 59.8641 14.8167 60.0599C14.9463 60.1252 15.0759 60.1513 15.2185 60.1644C15.2963 60.1644 15.3093 60.2035 15.2833 60.2688V60.2819C15.2444 60.4516 15.2444 60.6736 15.1278 60.778C15.0111 60.8825 14.7907 60.8172 14.6222 60.8172C13.8574 60.8041 13.0926 60.8433 12.3278 60.778C11.5111 60.6997 10.837 60.3863 10.3444 59.7074C9.6574 58.7673 8.93148 57.8403 8.33518 56.8349C8.32222 56.8088 8.29629 56.7697 8.2574 56.7174C8.17963 57.0177 8.11481 57.2789 8.03703 57.5531C7.86851 58.1667 7.7 58.7804 7.53148 59.4071C7.4537 59.7074 7.57037 59.9293 7.9074 60.086C8.14074 60.1905 8.14074 60.1905 8.07592 60.4385C7.98518 60.8041 7.98518 60.8041 7.60926 60.8041C6.19629 60.8041 4.78333 60.8041 3.38333 60.8041C3.22777 60.8041 3.20185 60.765 3.2537 60.6344C3.26666 60.6083 3.26666 60.5822 3.26666 60.5561C3.30555 60.308 3.37037 60.1513 3.68148 60.0991C4.08333 60.0468 4.29074 59.6943 4.44629 59.3418C4.71851 58.7412 4.84814 58.0884 5.01666 57.4617C5.39259 56.1038 5.75555 54.7459 6.13148 53.375C6.1574 53.2966 6.17037 53.2183 6.18333 53.153C6.24814 52.7352 6.07963 52.4741 5.65185 52.3435C5.54814 52.3174 5.50926 52.2913 5.54814 52.1738C5.6 52.0302 5.58703 51.8343 5.67777 51.7299C5.78148 51.6385 5.97592 51.7037 6.13148 51.7037C7.44074 51.7037 8.75 51.7037 10.0593 51.6907C10.2148 51.6907 10.2407 51.7299 10.1889 51.8604C10.1889 51.8735 10.1889 51.8865 10.1889 51.8865C10.15 52.1215 10.0852 52.3174 9.78703 52.3827C9.50185 52.448 9.34629 52.7091 9.26851 52.9963C9.00926 53.9495 8.75 54.8895 8.49074 55.8296C8.46481 55.8949 8.45185 55.9079 8.45185 55.9602Z" fill="#242220"/>
<path d="M20.3778 55.3204C21.4278 55.3204 22.4648 55.3204 23.5278 55.3204C23.3463 56.0646 23.1648 56.7827 22.9833 57.527C22.5815 57.0961 22.0759 57.0439 21.5444 57.0439C21.0259 57.0439 20.5074 57.0439 19.9889 57.0439C19.9111 57.0439 19.8593 57.0569 19.8333 57.1483C19.6518 57.8534 19.4574 58.5454 19.2759 59.2504C19.1722 59.6682 19.3148 59.9555 19.7167 60.1252C19.8204 60.1644 19.8333 60.2166 19.8074 60.308C19.7685 60.4386 19.7426 60.5691 19.7167 60.6997C19.7037 60.7911 19.6648 60.8172 19.5741 60.8172C18.2907 60.8172 17.0204 60.8041 15.737 60.8172C15.6333 60.8172 15.6074 60.8041 15.6333 60.6866C15.9315 59.6029 16.2296 58.5062 16.5278 57.4225C16.9037 56.0516 17.2796 54.6806 17.6556 53.3097C17.7981 52.7874 17.6296 52.5002 17.1241 52.3566C17.0463 52.3305 17.0463 52.3044 17.0593 52.2391C17.15 51.7429 17.15 51.7429 17.6556 51.7429C19.6778 51.7429 21.687 51.7429 23.7093 51.7429C24.2278 51.7429 24.7333 51.7429 25.2518 51.7429C25.3556 51.7429 25.3944 51.756 25.3685 51.8865C25.187 52.6177 25.0056 53.3358 24.8241 54.067C24.8111 54.1323 24.7981 54.2106 24.6944 54.1845C24.6167 54.1584 24.513 54.2498 24.4611 54.0931C24.3704 53.8058 24.1241 53.6883 23.8518 53.6231C23.7481 53.5969 23.6315 53.5969 23.5278 53.5969C22.6852 53.5969 21.8426 53.5969 21.013 53.5969C20.9352 53.5969 20.8833 53.5969 20.8574 53.7014C20.7278 54.2237 20.5852 54.7459 20.4426 55.2682C20.3907 55.2551 20.3907 55.2812 20.3778 55.3204Z" fill="#242220"/>
<path d="M33.2889 58.7673C33.1593 59.3026 33.0167 59.7987 32.9389 60.3079C32.887 60.6082 32.7574 60.6866 32.4852 60.7388C31.3315 60.9347 30.1778 61.0522 28.9981 60.9869C27.9352 60.9216 26.9111 60.6996 25.9907 60.1121C24.3963 59.0937 23.813 57.2266 24.5648 55.464C25.0315 54.3672 25.8222 53.5447 26.8074 52.918C27.8704 52.239 29.05 51.8734 30.2944 51.7168C31.6037 51.547 32.887 51.6123 34.1574 51.9518C34.4167 52.0301 34.4167 52.0171 34.3519 52.2912C34.1833 52.9049 34.0148 53.5186 33.8463 54.1322C33.8074 54.2758 33.5481 54.3542 33.4574 54.2367C32.9778 53.6361 32.3426 53.4141 31.6167 53.388C30.6315 53.3488 29.6981 53.4924 28.8426 54.0278C27.8185 54.6675 27.3259 55.7904 27.5593 56.9524C27.7278 57.8011 28.2463 58.3886 28.9852 58.7803C29.8278 59.2112 30.7222 59.2765 31.6296 59.1459C32.187 59.0806 32.7185 58.937 33.2889 58.7673Z" fill="#242220"/>
<path d="M34.5333 45.9197C34.9222 45.8936 35.2981 45.9327 35.687 45.9458C35.7648 45.9458 35.8296 45.9458 35.9074 45.9197C35.9592 45.8936 36.0241 45.8805 36.0241 45.8152C36.0241 45.7499 35.9722 45.7108 35.9204 45.6977C35.7129 45.6063 35.4926 45.5541 35.2592 45.5149C35.0907 45.4758 34.9092 45.4627 34.7407 45.4235C34.5074 45.3844 34.4167 45.2799 34.4037 45.0449C34.3778 44.5618 34.3648 44.0918 34.3389 43.6087C34.3 42.982 34.2611 42.3683 34.1963 41.7416C34.1444 41.2716 34.1185 40.8015 34.0666 40.3315C34.0148 39.8354 33.95 39.3523 33.8981 38.8561C33.8074 38.0858 33.6648 37.3154 33.5481 36.5451C33.4704 36.062 33.3926 35.5789 33.3148 35.0958C33.2759 34.8478 33.3018 34.7564 33.4574 34.7172C33.5222 34.7041 33.5741 34.7172 33.6259 34.7303C34.0018 34.8347 34.3648 34.9783 34.5592 35.3439C34.6759 35.5659 34.7018 35.8139 34.7667 36.049C35.1037 37.4199 35.4407 38.7908 35.7778 40.1618C36.2185 41.9636 36.6463 43.7654 37.1129 45.5541C37.2685 46.1416 37.4111 46.7161 37.5666 47.3037C37.5796 47.369 37.5796 47.4342 37.5666 47.4995C37.1778 48.988 36.7889 50.4895 36.4 51.9779C36.3352 52.239 36.2704 52.2782 35.9981 52.239C35.9592 52.239 35.9204 52.239 35.8685 52.239C35.9074 51.8343 35.8296 51.4556 35.5704 51.1423C35.4667 51.0248 35.3629 50.9073 35.2204 50.8289C35.1167 50.7767 35.0778 50.6984 35.0648 50.5809C34.9741 49.68 34.8704 48.7921 34.7667 47.8912C34.6629 47.2384 34.5981 46.5856 34.5333 45.9197Z" fill="#9B2D35"/>
<path d="M28.2463 45.8936C29.2963 45.8936 30.3463 45.8806 31.3963 45.8936C31.9667 45.9067 32.5241 45.9067 33.0944 45.9197C33.1333 45.972 33.0944 46.0242 33.1204 46.0764C33.1204 46.1417 33.1204 46.1939 33.1333 46.2592C33.1593 46.3245 33.1333 46.3898 33.1593 46.455C33.1593 46.5203 33.1593 46.5726 33.1722 46.6378C33.1852 46.6901 33.1852 46.7423 33.1593 46.7945C33.1333 46.8598 33.1463 46.912 33.1981 46.9512C33.1981 46.9643 33.1981 46.9904 33.1981 47.0034C33.2241 47.0818 33.1981 47.1601 33.2241 47.2254C33.2241 47.2776 33.2241 47.3429 33.237 47.3951C33.263 47.4604 33.237 47.5257 33.263 47.591C33.263 47.6432 33.263 47.7085 33.2759 47.7607C33.3018 47.826 33.2759 47.8913 33.3018 47.9565C33.3018 48.0218 33.3018 48.0741 33.3148 48.1393C33.3278 48.1916 33.3278 48.2438 33.3018 48.296C33.2759 48.3613 33.2889 48.4135 33.3407 48.4658C33.3407 48.4788 33.3407 48.5049 33.3407 48.518C33.3537 48.5702 33.3537 48.6224 33.3407 48.6747C33.3148 48.7269 33.3278 48.7791 33.3667 48.8183C33.3667 48.8444 33.3667 48.8705 33.3667 48.8966C33.3796 48.9488 33.3796 49.0011 33.3667 49.0533C33.3407 49.1055 33.3537 49.1577 33.3926 49.1969C33.3926 49.223 33.3926 49.2491 33.3926 49.2753C33.4056 49.3275 33.4056 49.3797 33.3796 49.4319C33.3537 49.4972 33.3667 49.5494 33.4185 49.5886C33.4185 49.6017 33.4185 49.6278 33.4185 49.6408C33.4315 49.6931 33.4315 49.7453 33.4056 49.7975C33.3796 49.8628 33.3926 49.915 33.4444 49.9542C33.4444 49.9673 33.4444 49.9934 33.4444 50.0064C33.4704 50.137 33.4444 50.2284 33.3148 50.2676C33.1981 50.2806 33.0944 50.2545 32.9778 50.2284C32.9259 50.2023 32.8611 50.2284 32.8093 50.2023C32.7574 50.2023 32.7056 50.2023 32.6667 50.1892C32.5889 50.1631 32.5111 50.2023 32.4333 50.1631C32.3815 50.1631 32.3426 50.1631 32.2907 50.1631C32.2389 50.1109 32.1741 50.1239 32.1093 50.137C32.0056 50.15 31.8759 50.2284 31.7981 50.0717C31.7981 50.0195 31.7981 49.9542 31.7852 49.902C31.7593 49.8367 31.7852 49.7714 31.7593 49.7061C31.7593 49.6539 31.7593 49.5886 31.7463 49.5364C31.7204 49.4711 31.7463 49.4058 31.7204 49.3405C31.7204 49.2883 31.7204 49.2361 31.7074 49.1969C31.6815 49.1447 31.6944 49.0925 31.7074 49.0402C31.7333 48.988 31.7204 48.9358 31.6815 48.8966C31.6815 48.8705 31.6815 48.8444 31.6815 48.8183C31.6685 48.7661 31.6685 48.7138 31.6944 48.6616C31.7204 48.5963 31.7074 48.5441 31.6556 48.5049C31.6556 48.4919 31.6556 48.4658 31.6556 48.4527C31.6296 48.3874 31.6556 48.3221 31.6296 48.2568C31.6296 48.2046 31.6296 48.1524 31.6167 48.1132C31.5907 48.0479 31.6167 47.9827 31.5907 47.9174C31.5907 47.8652 31.5907 47.7999 31.5778 47.7476C31.5648 47.7085 31.5648 47.6563 31.5907 47.6171C31.6296 47.5518 31.6037 47.4996 31.5518 47.4473C31.5518 47.4343 31.5518 47.4082 31.5518 47.3951C31.5 47.3168 31.6296 47.2123 31.5259 47.134C31.5259 47.1079 31.5259 47.0818 31.5259 47.0556C31.5 46.9904 31.5259 46.9251 31.5 46.8598C31.5 46.8076 31.5 46.7684 31.487 46.7162C31.4611 46.6509 31.487 46.5856 31.4611 46.5203C31.4611 46.4681 31.4611 46.4159 31.4481 46.3767C31.4222 46.3114 31.4481 46.2461 31.4222 46.1809C31.4222 46.1678 31.4222 46.1548 31.4222 46.1548C31.3963 45.9328 31.3963 45.9328 31.1759 45.9328C30.8259 45.9328 30.4759 45.9328 30.1389 45.9328C30.0352 45.9328 30.0093 45.9589 30.0093 46.0634C30.087 47.2907 30.1778 48.5049 30.2556 49.7322C30.2685 49.8889 30.2685 50.0325 30.2944 50.1892C30.3074 50.2675 30.2944 50.2937 30.2037 50.3067C29.6333 50.372 29.05 50.4765 28.4926 50.6462C28.3889 50.6723 28.4018 50.6201 28.3889 50.5548C28.363 49.7453 28.3241 48.9227 28.2981 48.1132C28.2722 47.4212 28.2463 46.7292 28.2333 46.0503C28.2593 45.972 28.2463 45.9328 28.2463 45.8936Z" fill="#9B2D35"/>
<path d="M34.637 52.0824C34.637 51.8343 34.8055 51.6515 35.0518 51.6515C35.2981 51.6515 35.4926 51.8343 35.4926 52.0824C35.4926 52.3174 35.2981 52.5132 35.0648 52.5132C34.8185 52.5002 34.637 52.3174 34.637 52.0824Z" fill="#333130"/>
<path d="M26.6389 51.0901C26.7037 51.0379 26.7944 51.0771 26.8722 51.064C26.9241 51.1032 27.0407 51.064 27.0407 51.1162C27.0537 51.1946 26.937 51.1946 26.8852 51.2337C26.8333 51.2598 26.7815 51.286 26.7296 51.3121C26.6907 51.2337 26.6648 51.1554 26.6389 51.0901Z" fill="#292624"/>
<path d="M31.7852 50.1109C31.8759 50.2153 31.9926 50.2023 32.0833 50.137C32.187 50.0717 32.2389 50.0848 32.2778 50.2023C32.1481 50.2023 32.0055 50.2023 31.8759 50.2023C31.8111 50.2023 31.7722 50.1892 31.7852 50.1109Z" fill="#9B2D35"/>
<path d="M33.3018 50.3067C33.3537 50.2153 33.4444 50.163 33.4315 50.0455C33.4444 50.0847 33.4574 50.1369 33.4574 50.1761C33.4704 50.3589 33.4704 50.3589 33.3018 50.3067Z" fill="#9B2D35"/>
<path d="M33.3926 49.6146C33.2889 49.5885 33.25 49.5232 33.3278 49.4318C33.3667 49.3796 33.3667 49.3404 33.3667 49.2882C33.4055 49.3927 33.3926 49.5102 33.3926 49.6146Z" fill="#9B2D35"/>
<path d="M33.1852 46.9512C33.0815 46.9251 33.0426 46.8598 33.1204 46.7684C33.1592 46.7292 33.1463 46.677 33.1593 46.6248C33.1852 46.7292 33.1852 46.8467 33.1852 46.9512Z" fill="#9B2D35"/>
<path d="M31.6555 48.5179C31.7593 48.5441 31.7981 48.6093 31.7204 48.7007C31.6815 48.7399 31.6944 48.7921 31.6815 48.8444C31.6426 48.7399 31.6555 48.6224 31.6555 48.5179Z" fill="#9B2D35"/>
<path d="M33.3018 48.4918C33.1981 48.4657 33.1593 48.4004 33.237 48.309C33.2759 48.2699 33.263 48.2176 33.2759 48.1654C33.3148 48.2699 33.3018 48.3743 33.3018 48.4918Z" fill="#9B2D35"/>
<path d="M33.4315 49.9933C33.3278 49.9672 33.2889 49.9019 33.3667 49.8105C33.4055 49.7583 33.4055 49.7191 33.4055 49.6669C33.4315 49.7713 33.4315 49.8888 33.4315 49.9933Z" fill="#9B2D35"/>
<path d="M31.5648 47.4473C31.6685 47.4734 31.7204 47.5387 31.6296 47.6301C31.6037 47.6692 31.5907 47.6953 31.5907 47.7476C31.5518 47.6562 31.5648 47.5517 31.5648 47.4473Z" fill="#9B2D35"/>
<path d="M33.3667 49.21C33.2889 49.1969 33.25 49.1577 33.3018 49.0794C33.3407 49.0272 33.3407 48.975 33.3407 48.9227C33.3796 49.0141 33.3667 49.1055 33.3667 49.21Z" fill="#9B2D35"/>
<path d="M33.3407 48.8313C33.263 48.8183 33.2241 48.7791 33.2759 48.7007C33.3148 48.6485 33.3148 48.5963 33.3148 48.5441C33.3407 48.6355 33.3407 48.7399 33.3407 48.8313Z" fill="#9B2D35"/>
<path d="M31.6944 48.9227C31.7722 48.9358 31.8111 48.975 31.7593 49.0533C31.7204 49.1055 31.7204 49.1577 31.7204 49.21C31.6815 49.1186 31.6944 49.0272 31.6944 48.9227Z" fill="#9B2D35"/>
<path d="M31.5389 47.1339C31.6296 47.147 31.6555 47.1992 31.6037 47.2645C31.5778 47.3036 31.5648 47.3428 31.5648 47.395C31.5259 47.3167 31.5389 47.2253 31.5389 47.1339Z" fill="#9B2D35"/>
<path d="M33.2111 47.2384C33.1593 47.1732 33.1981 47.0818 33.1852 47.0165C33.2111 47.0818 33.2111 47.1601 33.2111 47.2384Z" fill="#9B2D35"/>
<path d="M32.4204 50.2153C32.4981 50.2153 32.5759 50.1892 32.6537 50.2414C32.5759 50.2414 32.4981 50.2414 32.4204 50.2153Z" fill="#9B2D35"/>
<path d="M31.5 46.8597C31.5518 46.925 31.513 46.9903 31.5259 47.0556C31.5 46.9903 31.5 46.925 31.5 46.8597Z" fill="#9B2D35"/>
<path d="M33.237 47.6039C33.1852 47.5386 33.2241 47.4734 33.2111 47.4081C33.25 47.4734 33.237 47.5386 33.237 47.6039Z" fill="#9B2D35"/>
<path d="M33.263 47.9826C33.2111 47.9173 33.25 47.852 33.237 47.7867C33.2759 47.852 33.2759 47.9173 33.263 47.9826Z" fill="#9B2D35"/>
<path d="M31.6037 47.9174C31.6556 47.9826 31.6167 48.0479 31.6296 48.1132C31.5907 48.061 31.5907 47.9957 31.6037 47.9174Z" fill="#9B2D35"/>
<path d="M31.6296 48.2699C31.6815 48.3352 31.6426 48.4005 31.6555 48.4657C31.6296 48.4005 31.6296 48.3352 31.6296 48.2699Z" fill="#9B2D35"/>
<path d="M33.1463 46.455C33.0944 46.3897 33.1333 46.3244 33.1204 46.2592C33.1463 46.3114 33.1463 46.3767 33.1463 46.455Z" fill="#9B2D35"/>
<path d="M31.7204 49.3666C31.7722 49.4319 31.7333 49.4971 31.7463 49.5624C31.7204 49.4971 31.7204 49.4319 31.7204 49.3666Z" fill="#9B2D35"/>
<path d="M31.4741 46.5072C31.5259 46.5725 31.487 46.6378 31.5 46.703C31.4741 46.6508 31.4741 46.5855 31.4741 46.5072Z" fill="#9B2D35"/>
<path d="M31.7593 49.7452C31.8111 49.8105 31.7722 49.8758 31.7852 49.9411C31.7463 49.8758 31.7463 49.8105 31.7593 49.7452Z" fill="#9B2D35"/>
<path d="M31.4481 46.1677C31.5 46.233 31.4611 46.2983 31.4741 46.3636C31.4352 46.2983 31.4352 46.233 31.4481 46.1677Z" fill="#9B2D35"/>
<path d="M32.7963 50.2414C32.8481 50.2414 32.913 50.2153 32.9648 50.2675C32.9 50.2675 32.8481 50.2675 32.7963 50.2414Z" fill="#9B2D35"/>
<path d="M33.1074 46.0764C33.0685 46.0241 33.0944 45.9719 33.0815 45.9197C33.0944 45.9197 33.0944 45.9197 33.1074 45.9197C33.1074 45.9719 33.1074 46.0241 33.1074 46.0764Z" fill="#9B2D35"/>
<path d="M31.6815 32.5107C31.5259 32.3801 31.4093 32.2104 31.3055 32.0407C31.0463 31.5967 30.7222 31.205 30.3722 30.8264C30.2555 30.6958 30.2555 30.5522 30.3074 30.4086C30.4759 29.8341 30.6315 29.2596 30.7352 28.6721C30.8 28.3196 30.8518 27.9801 30.9037 27.6276C30.9555 27.3273 31.1111 27.1314 31.4093 27.027C31.8241 26.8833 32.0055 26.6092 32.0055 26.1783C31.9926 25.2121 32.3167 24.3504 32.7704 23.5148C33.4185 22.3266 33.9241 21.0732 34.1704 19.7414C34.287 19.1278 34.3 18.5141 34.1185 17.9005C34.0407 17.6132 33.9111 17.3521 33.7167 17.1301C33.4444 16.8168 33.4185 16.4904 33.587 16.1117C33.95 15.3544 34.1833 14.5449 34.3 13.7093C34.3518 13.3437 34.3389 12.9651 34.2741 12.5995C34.2611 12.5212 34.2222 12.4298 34.1574 12.3906C33.8852 12.2078 33.7815 11.9206 33.7555 11.6203C33.6389 10.2232 33.3407 8.87842 32.7833 7.58583C32.3685 6.59353 31.8241 5.67958 31.137 4.85702C31.1111 4.8309 31.0852 4.80479 31.0981 4.75256C31.6037 4.81785 32.0963 4.88313 32.6018 4.94841C33.1333 5.01369 33.6518 5.09203 34.1833 5.15732C34.7018 5.2226 35.2204 5.28788 35.7389 5.35316C36.2704 5.41845 36.7889 5.49678 37.3204 5.56207C38.0074 5.65346 38.7074 5.74486 39.3944 5.83625C39.9907 5.91459 40.587 5.99293 41.1833 6.05821C41.8704 6.14961 42.5704 6.24101 43.2574 6.3324C43.8667 6.41074 44.463 6.48908 45.0722 6.56742C45.6685 6.64576 46.2648 6.7241 46.8741 6.80243C47.2111 6.8416 47.5481 6.89383 47.8852 6.933C48.0667 6.95911 48.1574 7.07662 48.1055 7.25941C47.8593 8.21254 47.613 9.15261 47.3667 10.0927C47.0426 11.32 46.7185 12.5473 46.3944 13.7746C45.837 15.9028 45.2796 18.031 44.7222 20.1592C44.113 22.4964 43.5037 24.8335 42.8944 27.1706C42.363 29.1813 41.8444 31.192 41.313 33.2157C41.0926 34.0514 40.8722 34.887 40.6518 35.7226C40.613 35.8662 40.5481 35.8662 40.4315 35.8401C39.8611 35.7095 39.2907 35.579 38.7204 35.4354C37.7352 35.2003 36.763 34.9784 35.7778 34.7434C35.6611 34.7173 35.5444 34.6781 35.4796 34.5867C35.2463 34.2733 34.9222 34.1036 34.5852 33.9208C33.7296 33.4638 32.8352 33.0982 31.9796 32.6674C31.9148 32.6282 31.85 32.589 31.7852 32.5499C31.7204 32.5499 31.6944 32.5368 31.6815 32.5107Z" fill="#9B2D35"/>
<path d="M11.8093 32.5629C11.5111 33.1765 11.2778 33.8163 11.0315 34.4561C10.9148 34.7694 10.7204 34.9914 10.3963 35.0958C10.0593 35.2133 9.73518 35.357 9.38518 35.4614C8.99629 35.592 8.64629 35.8009 8.3611 36.1012C8.10184 36.3754 7.79073 36.532 7.42777 36.6104C6.14444 36.9237 4.87407 37.2893 3.61666 37.7202C2.68333 38.0466 1.76296 38.3861 0.868512 38.7908C0.855549 38.8039 0.842586 38.8039 0.842586 38.7908C0.842586 34.4299 0.855549 30.056 0.829623 25.6951C0.790734 19.1016 0.829623 12.5081 0.790734 5.91453C0.777771 4.33469 0.790734 2.76791 0.777771 1.18808C0.777771 0.913891 0.855549 0.835551 1.11481 0.861664C1.55555 0.913891 2.00925 0.979173 2.44999 1.0314C2.98147 1.09668 3.49999 1.16196 4.03147 1.2403C4.54999 1.30559 5.06851 1.37087 5.58703 1.43615C6.11851 1.50143 6.63703 1.57977 7.16851 1.64505C7.76481 1.72339 8.3611 1.80173 8.97036 1.88007C9.50184 1.94535 10.0204 2.01064 10.5518 2.08898C11.0574 2.15426 11.5759 2.21954 12.1204 2.29788C11.9518 2.37622 11.8093 2.40233 11.6667 2.42845C11.2907 2.51984 10.9018 2.59818 10.513 2.68958C10.1241 2.78097 9.98147 3.05516 10.0852 3.49908C10.1759 3.86466 10.2148 4.21719 10.0722 4.56971C9.98147 4.80473 9.82592 5.01363 9.67036 5.20948C9.03518 5.96676 8.3611 6.67181 7.53147 7.22018C7.33703 7.35075 7.12962 7.44214 6.90925 7.5466C6.35184 7.82078 6.1574 8.27776 6.35184 8.87836C6.48147 9.28311 6.67592 9.64869 6.88333 10.0143C7.22036 10.6149 7.32407 11.2546 7.27221 11.9466C7.19444 12.8084 6.90925 13.6048 6.62407 14.4013C6.58518 14.4927 6.53333 14.5971 6.48147 14.6754C6.22222 15.0671 6.24814 15.4588 6.48147 15.8505C6.71481 16.2553 7.02592 16.5948 7.33703 16.9342C7.53147 17.1431 7.54444 17.2345 7.40184 17.4695C7.22036 17.7829 7.16851 18.1224 7.14259 18.4749C7.1037 18.9449 7.19444 19.3888 7.3111 19.8458C7.62222 21.0731 8.1537 22.196 8.82777 23.2536C8.91851 23.3841 9.02222 23.5147 9.11296 23.6453C9.32036 23.9847 9.32036 24.3503 9.26851 24.7159C9.2037 25.199 9.17777 25.669 9.4111 26.126C9.60555 26.5046 9.89073 26.8049 10.2537 27.0008C10.6555 27.2228 10.8241 27.5622 10.9148 27.9931C11.1222 28.9723 11.4722 29.9124 11.9778 30.7872C12.0685 30.9308 12.1333 31.0875 12.2241 31.2442C12.3018 31.3747 12.2889 31.4792 12.2241 31.6097C12.0685 31.91 11.9259 32.2103 11.8093 32.5237C11.8222 32.5237 11.8352 32.5498 11.8093 32.5629Z" fill="#9B2D35"/>
<path d="M17.1889 7.44216C18.4074 7.28548 19.587 7.40299 20.7018 7.96442C20.7537 7.99053 20.7926 8.00359 20.8444 8.0297C21.0259 8.1211 21.1815 8.10804 21.337 7.96442C21.5185 7.79469 21.7259 7.63801 21.9333 7.48133C22.05 7.38994 22.0759 7.28548 22.0241 7.15492C22.1278 7.03741 22.2704 6.97213 22.4 6.88073C22.6852 6.68488 22.9833 6.51515 23.2944 6.37153C23.7481 6.16262 24.2018 6.12345 24.6815 6.24096C25.6148 6.47598 26.5222 6.76322 27.3907 7.18103C27.9611 7.45522 28.4926 7.80774 28.9463 8.26472C29.4778 8.81309 29.9444 9.42675 30.2167 10.1579C30.2555 10.2493 30.3204 10.3407 30.2555 10.4321C30.1518 10.4713 30.1518 10.5627 30.1518 10.6541C30.1778 11.1763 30.2037 11.6986 30.2296 12.2208C30.2426 12.3384 30.2296 12.4428 30.2167 12.5473C30.1648 13.0565 30.3463 13.5004 30.5796 13.9182C30.7611 14.2446 30.9815 14.5449 31.0981 14.9105C31.2407 15.3675 31.2667 15.8244 31.2796 16.2945C31.2796 16.412 31.2018 16.4642 31.0463 16.4381C30.6963 16.3728 30.3463 16.3206 29.9963 16.2422C29.5167 16.1378 29.0241 16.1117 28.5315 16.0986C27.4296 16.0595 26.3407 16.0333 25.2389 16.0725C24.513 16.0986 23.8 16.177 23.1389 16.5164C22.9055 16.6339 22.6981 16.7906 22.4907 16.9473C22.3092 17.0909 22.1148 17.1301 21.8815 17.0779C21.4278 16.9734 20.9741 16.9734 20.5204 17.1301C20.2741 17.2084 20.0537 17.1562 19.8463 16.9995C19.5481 16.7776 19.263 16.5295 18.9389 16.3467C18.3685 16.0203 17.7463 15.8506 17.0981 15.7853C16.1907 15.6939 15.2833 15.6286 14.3759 15.6286C14.3241 15.5764 14.35 15.5111 14.363 15.4458C14.4537 14.9497 14.5185 14.4535 14.5574 13.9443C14.5833 13.5787 14.7 13.2262 14.7907 12.8737C14.9333 12.2992 15.1018 11.7116 15.2833 11.1502C15.6074 10.1579 15.9963 9.19173 16.6055 8.33C16.6704 8.23861 16.7352 8.14721 16.813 8.05582C16.9944 7.88608 17.15 7.70329 17.1889 7.44216Z" fill="#FDF1D6"/>
<path d="M27.9222 32.5759C27.2222 33.294 26.4704 33.9338 25.6019 34.443C25.3944 34.5736 25.1741 34.678 24.9537 34.7955C24.6556 34.9391 24.3444 34.8869 24.1241 34.6519C24.0463 34.5736 23.9815 34.5083 23.9037 34.4299C23.8389 34.3385 23.8648 34.2341 23.8519 34.1427C23.7741 33.529 23.5667 32.9545 23.3204 32.4062C23.1907 32.1059 23.1519 31.8056 23.1648 31.4922C23.1778 31.1789 23.1907 30.8655 23.2685 30.5652C23.2815 30.526 23.3074 30.4608 23.2685 30.4346C23.2167 30.3955 23.1778 30.4477 23.1259 30.4738C23.0352 30.5391 22.9833 30.6174 22.9574 30.7219C22.9185 30.9177 22.8537 31.0875 22.7241 31.2441C22.6463 31.3355 22.5426 31.3878 22.4259 31.3486C22.3093 31.3094 22.2444 31.218 22.2315 31.0875C22.2185 30.983 22.2315 30.8916 22.2185 30.7872C22.2056 30.5521 22.1019 30.4477 21.8685 30.4999C21.5056 30.5783 21.1426 30.513 20.7667 30.513C20.7278 30.513 20.7019 30.4999 20.663 30.4738C20.6111 30.1735 20.4426 30.0038 20.1444 29.9385C20.0019 29.9124 19.8593 29.8471 19.7426 29.7557C19.6 29.6382 19.6 29.5468 19.7426 29.4423C20.1963 29.129 20.6889 29.0245 21.2333 29.0898C22.1407 29.1943 23.0482 29.2465 23.9426 28.9984C24.3056 28.894 24.6685 28.7895 25.0444 28.672C25.1611 28.6328 25.2519 28.659 25.3556 28.7112C25.3944 28.7373 25.4333 28.7503 25.4852 28.7765C25.8352 28.9331 26.0037 29.1943 25.9778 29.599C25.9519 29.9515 25.9778 30.3041 26.0685 30.6566C26.1333 30.9047 26.263 30.9308 26.4444 30.7611C26.6648 30.5521 26.7296 30.2649 26.7944 29.9777C26.8593 29.6643 26.8982 29.351 27.0148 29.0507C27.0667 28.894 27.1574 28.7504 27.2741 28.6328C27.6889 28.2542 27.8704 27.7581 27.9482 27.2097C27.9611 27.0661 27.9741 26.9094 27.987 26.7527C28 26.7135 28 26.6744 28 26.6352C27.987 26.5177 28.0389 26.4394 28.1296 26.348C28.5315 25.9824 28.6222 25.4471 28.3759 24.964C28.2852 24.7942 28.1815 24.6376 28.0389 24.4939C27.4296 23.9064 26.8852 23.2797 26.3278 22.6399C25.913 22.1699 25.3944 21.8565 24.7333 21.8173C24.4611 21.8043 24.2148 21.8696 24.0074 22.0393C23.9426 22.0915 23.9037 22.1568 23.9037 22.2352C23.9037 22.3396 23.9037 22.4441 23.9167 22.5485C23.9426 22.7574 24.0463 22.9402 24.0204 23.1622C24.0074 23.2797 23.9815 23.3972 23.8778 23.4625C23.3852 23.828 22.8537 24.1153 22.2315 24.2197C21.6482 24.3242 21.1167 24.1414 20.6111 23.8542C20.5722 23.828 20.5463 23.7889 20.5333 23.7367C20.4167 23.2927 20.2352 22.8619 20.2611 22.3918C20.2741 22.1568 20.313 21.9218 20.3778 21.6998C20.4037 21.6215 20.4167 21.5432 20.4556 21.4779C20.663 20.9948 20.6889 20.4856 20.7148 19.9633C20.7407 19.4411 20.8185 18.9319 20.8833 18.4096C20.8963 18.266 20.8833 18.1093 20.9741 17.9918C21.2074 17.9396 21.4407 17.9134 21.6741 18.0179C21.8815 18.1093 22.0111 18.266 22.063 18.4879C22.1407 18.8405 22.2444 19.1799 22.4648 19.4672C22.763 19.8458 22.8148 19.8458 23.2037 19.5586C23.437 19.3888 23.45 19.2844 23.3074 19.0233C23.2944 18.9971 23.2685 18.958 23.2556 18.9319C23.2167 18.8405 23.1519 18.736 23.2426 18.6577C23.3204 18.5924 23.4241 18.6316 23.5148 18.6838C23.7222 18.8013 23.9426 18.9188 24.163 19.0102C24.7982 19.2452 25.4593 19.2844 26.1333 19.1538C26.3926 19.1016 26.6389 19.0624 26.8982 19.0102C27.1704 18.971 27.3519 19.0624 27.4815 19.3105C27.5333 19.4149 27.5852 19.5063 27.663 19.5977C27.3907 19.7414 27.3907 19.7414 27.5074 20.0547C27.6111 20.342 27.5463 20.6161 27.4037 20.8773C27.287 21.0601 27.1574 21.2429 27.0019 21.3865C26.937 21.4518 26.8722 21.517 26.8852 21.6084C26.8982 21.8304 27.0537 21.9871 27.2741 22.0001C27.4815 22.0001 27.6759 21.9349 27.8833 21.9218C28.6611 21.5693 29.1148 20.9556 29.3741 20.1722C29.5685 19.5716 29.6982 18.9449 29.8407 18.3182C29.8796 18.1224 29.9963 17.9787 30.1648 17.8873C30.4241 17.7437 30.6963 17.6132 30.9815 17.5087C31.1759 17.4304 31.2667 17.4826 31.3444 17.6915C31.4093 17.8612 31.4093 18.044 31.4222 18.2268C31.4482 18.736 31.4741 19.2583 31.487 19.7805C31.487 19.8328 31.487 19.898 31.513 19.9503C31.5389 20.0286 31.6037 20.0417 31.6685 20.0286C32.0444 19.9372 32.3296 19.3758 32.1611 19.0233C32.1222 18.9449 32.0704 18.8666 32.0185 18.7752C31.85 18.4749 31.9407 18.1746 32.2648 18.0048C32.563 17.8482 32.8482 17.9396 33.0037 18.2399C33.1463 18.5271 33.1593 18.8405 33.1463 19.1538C33.1204 20.12 32.8352 21.0078 32.4722 21.8826C32.2519 22.4179 31.9537 22.9141 31.7204 23.4364C31.5259 23.8542 31.3704 24.285 31.2407 24.7289C31.2148 24.8073 31.1889 24.8726 31.15 24.9379C31.1111 25.0162 31.0333 25.0554 30.9556 25.0423C30.8778 25.0292 30.813 24.977 30.787 24.8987C30.7741 24.8595 30.7611 24.8073 30.7482 24.7681C30.7352 24.7159 30.7352 24.6376 30.6704 24.6376C30.6185 24.6376 30.5796 24.7028 30.5537 24.7551C30.4241 25.0815 30.2296 25.3687 30.0093 25.6429C29.9185 25.7604 29.9056 25.9171 29.9056 26.0607C29.9056 26.6874 29.8796 27.3011 29.8019 27.9147C29.6333 29.3901 29.2315 30.8002 28.363 32.0275C28.2463 32.1842 28.1167 32.3409 28 32.4976C27.9741 32.5367 27.9482 32.5498 27.9222 32.5759Z" fill="#FDF1D6"/>
<path d="M30.2556 10.4452C30.1778 10.0535 29.9833 9.71405 29.7759 9.38764C29.5426 9.009 29.2574 8.65648 28.9463 8.34312C28.5833 7.97754 28.1815 7.66418 27.7278 7.41611C26.7685 6.89385 25.7315 6.56744 24.6815 6.29325C23.9944 6.11046 23.4111 6.33242 22.8407 6.65883C22.5556 6.81551 22.3222 7.02441 22.0241 7.16804C21.713 6.82857 21.35 6.55438 20.9611 6.30631C20.0537 5.69265 19.0685 5.26178 17.9796 5.09205C17.0204 4.93537 16.0611 4.94843 15.1018 5.06594C14.5315 5.13122 13.9741 5.24873 13.4037 5.37929C13.3389 5.39235 13.2741 5.40541 13.2093 5.40541C13.1315 5.40541 13.0537 5.36624 13.0148 5.30095C12.963 5.22262 13.0278 5.17039 13.0667 5.11816C13.2222 4.93537 13.4037 4.79175 13.5981 4.66119C14.4667 4.04753 15.3741 3.52527 16.4111 3.23803C16.437 3.22497 16.4759 3.22497 16.5018 3.21191C16.6056 3.15969 16.6444 3.08135 16.6444 2.9769C16.6315 2.85939 16.5407 2.82022 16.45 2.80716C16.2426 2.76799 16.0352 2.76799 15.8278 2.76799C15.7241 2.76799 15.5944 2.80716 15.5556 2.68965C15.5167 2.55909 15.6463 2.49381 15.7241 2.44158C16.087 2.18045 16.5018 2.03683 16.9296 1.91932C18.3167 1.52762 19.7167 1.25344 21.1556 1.27955C22.8537 1.30566 24.487 1.69736 26.0426 2.38935C27.1056 2.85939 28.1167 3.43387 28.9852 4.20421C30.7093 5.74488 31.8759 7.63807 32.3556 9.92296C32.6407 11.2808 32.7056 12.6518 32.6018 14.0358C32.5889 14.2447 32.55 14.4405 32.4981 14.6364C32.4852 14.6755 32.4722 14.7278 32.4463 14.7669C32.4074 14.8453 32.3556 14.9497 32.2518 14.9367C32.1481 14.9367 32.1222 14.8322 32.0963 14.7408C31.8889 14.1141 31.6556 13.4874 31.4093 12.8868C31.1111 12.1426 30.787 11.3983 30.4241 10.6802C30.3852 10.5627 30.3463 10.4844 30.2556 10.4452Z" fill="#FEFEFE"/>
<path d="M29.5685 32.5368C29.6074 32.4585 29.6593 32.3801 29.6981 32.3018C29.763 32.1843 29.8278 32.1843 29.9185 32.2757C29.9963 32.354 30.0481 32.4454 30.113 32.5368C30.1259 32.5499 30.1259 32.5629 30.1389 32.5629C30.3463 32.9938 30.3981 33.4508 30.4241 33.9338C30.5148 35.579 30.1778 37.1457 29.7241 38.6995C29.387 39.8615 28.9852 41.0105 28.4537 42.0942C28.4019 42.1986 28.3241 42.3292 28.4407 42.3945C28.5574 42.4597 28.6352 42.3292 28.7 42.2508C28.9981 41.8853 29.2185 41.4805 29.4259 41.0758C30.4111 39.1434 31.15 37.1327 31.6037 35.0045C31.7074 34.9523 31.6944 35.0437 31.7074 35.0959C31.7333 35.2526 31.7463 35.4223 31.7722 35.579C31.9667 37.0674 31.9537 38.5689 31.9278 40.0573C31.9148 40.8146 31.8889 41.5719 31.863 42.3292C31.85 42.8776 31.7981 43.4259 31.7593 43.9612C31.7333 44.2877 31.7074 44.6141 31.6815 44.9405C31.6685 45.1624 31.6426 45.1886 31.4222 45.1624C29.6074 45.0972 27.7926 45.0449 25.9648 45.0058C25.2907 44.9927 24.6296 44.9927 23.9556 44.9797C23.6833 44.9797 23.6574 44.9405 23.6444 44.6663C23.6056 43.4782 23.3852 42.3292 22.9704 41.2194C22.9574 41.1933 22.9574 41.1672 22.9444 41.141C23.0093 41.1149 23.0481 41.1802 23.087 41.2063C23.3852 41.4936 23.6704 41.7939 23.9426 42.1072C24.3574 42.5773 24.85 42.9689 25.3685 43.3215C25.7704 43.5957 26.1593 43.6218 26.5611 43.3476C26.587 43.3345 26.613 43.3215 26.6389 43.3084C26.7037 43.2562 26.7037 43.204 26.6778 43.1256C26.613 42.9298 26.5093 42.76 26.3926 42.5903C25.9519 41.9505 25.4593 41.363 24.9796 40.7624C24.9407 40.7232 24.9018 40.671 24.8759 40.6318C24.85 40.5796 24.7722 40.5274 24.8241 40.4621C24.863 40.4099 24.9407 40.4099 24.9926 40.4229C25.3296 40.4621 25.6667 40.5143 25.9907 40.5404C26.1074 40.5535 26.2241 40.5666 26.3278 40.5535C26.7037 40.5404 26.95 40.3185 26.9759 39.9268C27.0019 39.3654 27.0019 38.8039 27.0019 38.2425C27.0019 38.1511 27.0148 38.0597 27.0019 37.9553C27.0019 37.6419 26.8593 37.4591 26.5481 37.3808C26.1593 37.2894 25.7704 37.2763 25.3685 37.3024C25.0833 37.3155 24.7852 37.3547 24.5 37.4069C24.4222 37.4199 24.3056 37.4722 24.2796 37.3808C24.2407 37.2763 24.3704 37.2371 24.4352 37.198C24.7074 37.0413 24.9926 36.8846 25.2648 36.7149C26.7167 35.8532 27.9741 34.7564 28.9722 33.3855C29.1667 33.1243 29.3481 32.8502 29.4907 32.5499C29.5556 32.576 29.5426 32.5499 29.5685 32.5368Z" fill="#FEFEFE"/>
<path d="M17.1889 44.9666C15.8148 45.0188 14.4407 45.071 13.0796 45.1363C12.613 45.1624 12.1463 45.1885 11.6796 45.2146C11.5111 45.2277 11.3426 45.2277 11.187 45.2277C10.85 45.2146 10.6815 45.071 10.6296 44.7446C10.5259 44.1571 10.5 43.5565 10.5259 42.9559C10.5648 41.8722 10.6296 40.8015 10.7722 39.7309C10.8241 39.287 10.8889 38.8431 10.9926 38.3991C11.0185 38.3208 11.0574 38.3208 11.0833 38.3861C11.1352 38.4905 11.1741 38.608 11.213 38.7256C11.3426 39.1434 11.4852 39.5612 11.6407 39.9659C11.9259 40.7101 12.3148 41.4152 12.7685 42.068C12.963 42.3553 13.1833 42.6164 13.3648 42.9167C13.4815 43.1125 13.65 43.2692 13.8056 43.439C14.0648 43.7393 14.3111 44.0526 14.6352 44.2876C14.9852 44.5488 15.5815 44.4835 15.8667 44.144C15.9315 44.0657 15.9444 43.9743 15.9704 43.8829C15.9833 43.7131 15.9056 43.5695 15.8148 43.439C15.1667 42.4989 14.5833 41.5196 14.1556 40.4621C13.6889 39.2739 13.4037 38.0466 13.2093 36.7932C13.1056 36.1534 13.1444 35.5006 13.2352 34.8608C13.313 34.8478 13.3518 34.9131 13.3907 34.9522C13.9093 35.4875 14.4537 35.9837 14.9722 36.519C15.3352 36.8846 15.7759 37.1588 16.1778 37.4721C16.2296 37.5113 16.3074 37.5244 16.2815 37.6158C16.1648 37.6549 16.0611 37.7202 15.9704 37.8116C15.8796 37.8638 15.7889 37.8769 15.6852 37.8899C15.3093 37.9813 15.063 38.2294 15.05 38.6211C15.0241 39.3131 15.0759 39.992 15.2574 40.671C15.2704 40.7101 15.2833 40.7363 15.2963 40.7754C15.4518 41.2193 15.7889 41.3891 16.2426 41.4021C16.6833 41.4021 17.1241 41.363 17.5648 41.3238C17.7204 41.3107 17.863 41.3107 18.0185 41.2846C18.0704 41.2716 18.1222 41.2846 18.1611 41.3238C17.837 41.7677 17.5259 42.2247 17.3315 42.747C17.3056 42.8253 17.2667 42.9167 17.2407 42.995C17.2148 43.0603 17.2018 43.1256 17.2667 43.1648C17.3315 43.2039 17.3704 43.1517 17.4093 43.1125C17.4611 43.0603 17.513 42.995 17.5648 42.9297C18.0315 42.3161 18.55 41.7416 19.1463 41.2585C19.25 41.1802 19.3667 41.1671 19.4833 41.1671C19.587 41.1671 19.6259 41.2324 19.5611 41.3107C19.0685 41.9113 18.7963 42.6295 18.3944 43.2823C18.1222 43.7262 17.837 44.1701 17.5389 44.601C17.4741 44.6924 17.4222 44.7707 17.3704 44.8621C17.3185 44.9143 17.2667 44.9535 17.1889 44.9666Z" fill="#FEFEFE"/>
<path d="M20.663 30.4739C20.8704 30.4739 21.0648 30.4608 21.2722 30.5C21.4667 30.5261 21.6741 30.4869 21.8685 30.4478C22.1018 30.4086 22.2444 30.513 22.2574 30.7481C22.2574 30.8525 22.2574 30.957 22.2574 31.0614C22.2574 31.1789 22.3093 31.2703 22.413 31.3095C22.5167 31.3487 22.6204 31.3095 22.6852 31.205C22.8018 31.0484 22.8796 30.8786 22.9055 30.6828C22.9185 30.5653 23.1 30.3694 23.2167 30.3433C23.3074 30.3303 23.3593 30.3564 23.3204 30.4608C23.2037 30.7872 23.2167 31.1267 23.1907 31.4662C23.1518 31.9101 23.3204 32.3148 23.4889 32.7196C23.7222 33.2549 23.8907 33.8163 23.8907 34.4169C23.7611 34.43 23.6963 34.5083 23.7093 34.665C23.7222 34.7695 23.7481 34.887 23.7611 34.9914C23.8518 35.4484 23.6574 35.8009 23.4241 36.1535C23.2167 36.4668 22.9574 36.741 22.763 37.0544C22.5685 37.3677 22.413 37.7072 22.4 38.0858C22.4 38.1903 22.3352 38.2294 22.2444 38.2294C22.1018 38.2294 21.9852 38.1772 21.8944 38.0858C21.0648 37.3285 20.2093 36.6235 19.6259 35.6312C19.25 34.9914 19.1463 34.3125 19.3407 33.6074C19.4315 33.2549 19.5352 32.9024 19.6259 32.5499C19.613 32.5368 19.613 32.5368 19.613 32.5238L19.6259 32.5107C19.7815 31.9623 19.7685 31.427 19.6518 30.8786C19.6389 30.8003 19.5611 30.6958 19.6778 30.6436C19.7685 30.5914 19.8593 30.6697 19.9241 30.735C20.0926 30.9047 20.1833 31.1136 20.313 31.3095C20.3648 31.3878 20.4037 31.5053 20.5074 31.4923C20.5981 31.4662 20.5981 31.3487 20.6241 31.2573C20.7148 31.0092 20.6759 30.735 20.663 30.4739Z" fill="#FEFEFE"/>
<path d="M1.32222 47.7476C1.28333 47.7476 1.24444 47.7476 1.21852 47.7346C0.93333 47.7085 0.881478 47.6432 0.881478 47.3559C0.881478 44.9013 0.868515 42.4597 0.868515 40.0051C0.881478 39.9659 0.920367 39.979 0.946293 39.9659C1.54259 39.757 2.12592 39.5612 2.72222 39.3523C3.04629 39.2348 3.38333 39.1303 3.69444 38.9998C4.22592 38.7909 4.74444 38.8039 5.26296 39.052C5.30185 39.1042 5.26296 39.1434 5.23703 39.1826C4.82222 39.8354 4.56296 40.5535 4.29074 41.2716C4.0574 41.8591 3.85 42.4728 3.65555 43.0734C3.61666 43.204 3.56481 43.3215 3.5 43.452C3.08518 44.2876 2.67037 45.1102 2.26852 45.9458C2.00926 46.4942 1.73703 47.0295 1.47777 47.5779C1.41296 47.6301 1.4 47.7085 1.32222 47.7476Z" fill="#FEFEFE"/>
<path d="M38.2667 44.6141C37.9556 43.5435 37.6444 42.512 37.3333 41.4805C36.8537 39.8746 36.3611 38.2686 35.8815 36.6627C35.8426 36.5321 35.8167 36.4016 35.7907 36.271C35.7648 36.1013 35.8296 36.0099 35.9981 35.9968C36.2185 35.9837 36.4259 36.049 36.6333 36.1013C37.813 36.3493 38.9926 36.5974 40.1722 36.8324C40.3018 36.8585 40.3018 36.8977 40.2759 37.0022C39.6407 39.4307 39.0055 41.8592 38.3574 44.2877C38.3315 44.3791 38.3056 44.4835 38.2667 44.6141Z" fill="#FEFEFE"/>
<path d="M9.25555 14.8061C9.28147 13.8138 9.37221 12.8215 9.51481 11.8292C9.59258 11.32 9.54073 10.8238 9.28147 10.3538C9.13888 10.1057 9.00925 9.84459 8.89258 9.59652C8.78888 9.37456 8.93147 9.1526 9.16481 9.16565C9.99443 9.19177 10.7204 8.87841 11.4204 8.47366C12.1204 8.06891 12.7685 7.5597 13.4815 7.20718C14.1426 6.88076 14.8296 6.63269 15.5685 6.63269C15.6463 6.63269 15.737 6.63269 15.8148 6.6588C15.9185 6.69797 15.9315 6.77631 15.8407 6.84159C15.7889 6.88076 15.737 6.90688 15.6852 6.93299C14.4407 7.45525 13.5463 8.35615 12.8981 9.51818C12.6389 9.97516 12.3537 10.393 11.913 10.7063C11.4204 11.0458 11.2389 11.568 11.0704 12.1034C10.6555 13.3829 10.4611 14.7016 10.4481 16.0464C10.4481 16.1378 10.4481 16.2292 10.4222 16.3206C10.4093 16.3598 10.3963 16.399 10.3704 16.4381C10.2926 16.5556 9.73518 16.7515 9.60555 16.7123C9.50184 16.6731 9.47592 16.5948 9.44999 16.5034C9.37221 16.2423 9.32036 15.9681 9.29443 15.6939C9.26851 15.4067 9.24258 15.1064 9.25555 14.8061Z" fill="#FEFEFE"/>
<path d="M26.0296 26.7919C25.2 26.7266 24.3704 26.6352 23.5407 26.5699C21.7648 26.4524 20.0018 26.4263 18.2518 26.7789C17.9667 26.8311 17.6815 26.8572 17.3833 26.805C17.2148 26.7658 17.0722 26.6875 16.9685 26.5569C16.8518 26.4133 16.8778 26.3349 17.0463 26.2566C17.1759 26.1913 17.3185 26.1391 17.4481 26.0869C17.7204 25.9563 17.9537 25.7866 18.1481 25.5646C18.2389 25.4601 18.3296 25.3687 18.4204 25.2643C18.7833 24.8726 19.3537 24.7812 19.8204 25.0423C20.3778 25.3687 20.987 25.4993 21.6352 25.5254C21.9981 25.5385 22.2963 25.4079 22.5037 25.1076C22.6592 24.8857 22.8667 24.7551 23.1129 24.7029C23.5018 24.6115 23.8129 24.3765 24.1241 24.1414C24.3315 23.9848 24.4741 23.9848 24.6815 24.1414C24.9018 24.3112 25.0833 24.5331 25.2389 24.7681C25.4074 25.0162 25.5629 25.2643 25.7315 25.5124C25.9518 25.8257 26.2629 26.0346 26.6259 26.1391C26.6648 26.1521 26.6907 26.1521 26.7296 26.1783C26.8981 26.2696 26.9241 26.4263 26.7815 26.5699C26.5741 26.7788 26.3018 26.805 26.0296 26.7919Z" fill="#FEFEFE"/>
<path d="M14.2074 21.6345C14 21.4779 13.7537 21.3604 13.5592 21.1906C13.1574 20.8381 12.8852 20.4203 12.7037 19.9241C12.6518 19.7675 12.6907 19.6499 12.8333 19.5716H12.8463C13.1574 19.3496 13.4426 19.3235 13.7148 19.6499C13.7926 19.7413 13.8963 19.8066 14.013 19.8327C14.1944 19.885 14.337 19.8719 14.4537 19.7152C14.6611 19.4541 14.8944 19.2321 15.1926 19.0755C15.5944 18.8666 16.0222 18.8796 16.45 18.9449C16.8648 19.0102 17.2796 19.1277 17.7074 19.0624C17.863 19.0363 18.0055 19.0102 18.1611 18.958C18.2259 18.9318 18.2778 18.9057 18.3426 18.8796C18.4074 18.8666 18.4722 18.8404 18.5241 18.9188C18.563 18.9841 18.5241 19.0363 18.4852 19.0885C18.3815 19.206 18.2778 19.3235 18.187 19.441C17.9926 19.5847 17.7592 19.6499 17.5259 19.7152C17.2926 19.7805 17.2148 19.8719 17.2667 20.1069C17.3185 20.3811 17.2667 20.6161 17.1241 20.8511C16.9037 21.2167 16.5926 21.4648 16.1907 21.6084C16.113 21.6345 16.0352 21.6476 16.0222 21.739C15.9444 21.9218 16.0481 22.1046 16.2685 22.1307C16.437 22.1568 16.6055 22.1176 16.7741 22.0915C17.0592 22.0523 17.3574 22.0001 17.6296 21.8957C17.6685 21.8826 17.7204 21.8565 17.7592 21.8957C17.3963 22.2221 17.137 22.6138 17.0333 23.0969C17.0074 23.2274 16.9296 23.3058 16.813 23.3449C16.5148 23.4494 16.2426 23.593 15.9704 23.7236C15.7889 23.7758 15.6722 23.7366 15.5685 23.58C15.3352 23.2013 15.1018 22.8227 14.9333 22.4179C14.8815 22.3004 14.8426 22.1829 14.8296 22.0523C14.8167 21.9348 14.7648 21.8696 14.6481 21.8304C14.5055 21.8043 14.337 21.752 14.2074 21.6345Z" fill="#FDF1D6"/>
<path d="M1.32222 47.7476C1.89259 46.5856 2.45 45.4236 3.03333 44.2746C3.42222 43.5173 3.72037 42.7209 4.00555 41.9244C4.27778 41.141 4.56296 40.3707 4.93889 39.6265C5.02963 39.4306 5.14629 39.2609 5.25 39.0651C5.50926 39.1434 5.76852 39.2479 6.02778 39.3654C6.19629 39.4437 6.28703 39.7048 6.23518 39.9529C6.18333 40.2271 6.04074 40.4752 5.93703 40.7363C4.99074 42.9559 4.04444 45.1755 3.22778 47.4604C3.17592 47.604 3.11111 47.7346 3.04629 47.8782C3.02037 47.9435 2.99444 47.9827 2.91666 47.9696C2.38518 47.8913 1.8537 47.839 1.32222 47.7476Z" fill="#DFC091"/>
<path d="M17.1889 7.44214C17.2407 7.71633 17.0333 7.88606 16.8907 8.05579C16.4759 8.55194 16.1518 9.10031 15.8926 9.68786C15.3481 10.9282 15.0111 12.2208 14.687 13.5265C14.6222 13.7745 14.6093 14.0357 14.5963 14.2968C14.5574 14.7538 14.4926 15.1977 14.4018 15.6416C13.8444 15.6677 13.287 15.7069 12.7296 15.733C12.5611 15.7461 12.4185 15.6547 12.4185 15.498C12.4055 15.2238 12.3796 14.9496 12.4574 14.6754C12.4963 14.5188 12.5741 14.3751 12.7296 14.3099C13.1963 14.101 13.287 13.6962 13.3518 13.2392C13.5722 11.7508 14 10.3407 14.8815 9.08726C15.2055 8.61722 15.5555 8.1733 16.0352 7.84689C16.3722 7.61187 16.7611 7.46825 17.1889 7.44214Z" fill="#DFC091"/>
<path d="M17.2796 32.5106C16.4759 32.2887 15.8537 31.7925 15.3352 31.1658C14.5056 30.1474 14.013 28.9593 13.7537 27.6928C13.637 27.1183 13.8056 26.5569 14.2333 26.126C14.4407 25.9171 14.713 25.8649 14.9852 25.8649C15.1926 25.8649 15.3093 26.0346 15.3222 26.2827C15.387 27.4839 15.5815 28.659 15.9704 29.8079C16.0741 30.0952 16.1907 30.3694 16.3852 30.6044C16.5537 30.8263 16.6963 30.8002 16.8 30.5522C16.8778 30.3824 16.9426 30.2127 17.0204 30.056C17.0593 29.9516 17.1241 29.8732 17.2537 29.8732C17.3833 29.8732 17.3963 29.9907 17.4222 30.0821C17.5648 30.6435 17.6944 31.205 17.8759 31.7664C17.9148 31.8839 17.9667 32.0145 18.0056 32.132C18.0574 32.2756 18.0315 32.4062 17.9148 32.5106C17.8889 32.5629 17.8241 32.5367 17.7852 32.5629C17.6815 32.5629 17.5907 32.5629 17.487 32.5629C17.4222 32.5367 17.3315 32.5759 17.2796 32.5106Z" fill="#DFC091"/>
<path d="M31.4093 45.1755C31.6167 45.1494 31.6167 45.1494 31.6296 44.9405C31.6815 44.2746 31.7333 43.5957 31.7722 42.9298C31.7852 42.7339 31.7981 42.5381 31.8111 42.3422C31.8241 41.6763 31.8241 41.0105 31.85 40.3446C31.8889 39.4567 31.8759 38.5689 31.8759 37.6811C31.863 37.0543 31.7981 36.4276 31.7333 35.8009C31.7074 35.5659 31.6815 35.3309 31.6685 35.0959C31.6685 35.0698 31.6944 35.0045 31.6167 35.0175C31.6556 34.8086 31.6944 34.5997 31.7333 34.3908C31.7722 34.1819 31.8759 34.1427 32.0574 34.2602C32.3556 34.443 32.4463 34.7433 32.5111 35.0567C32.5889 35.4484 32.6018 35.8531 32.6407 36.2448C32.6796 36.7279 32.7185 37.2241 32.7574 37.7072C32.7833 38.1119 32.8093 38.5167 32.8222 38.9214C32.9 40.449 32.9389 41.9766 32.9648 43.5043C32.9778 43.9221 32.9778 44.3399 32.9778 44.7577C32.9648 45.058 32.9 45.1885 32.55 45.2016C32.1611 45.2277 31.7852 45.1885 31.4093 45.1755Z" fill="#DFC091"/>
<path d="M15.9315 43.8828C15.9833 44.0917 15.8407 44.2092 15.6981 44.3137C15.3222 44.5748 14.7907 44.5226 14.4537 44.2223C14.1296 43.922 13.8315 43.5956 13.5592 43.2431C12.8592 42.3552 12.2111 41.4282 11.7444 40.3967C11.4981 39.8614 11.3296 39.2869 11.1352 38.7255C11.0963 38.6211 11.0574 38.5166 11.0185 38.3991C10.9926 38.3208 10.9796 38.373 10.9537 38.386C10.9926 38.1119 11.0704 37.8507 11.1481 37.5896C11.2129 37.3676 11.6018 37.1326 11.8222 37.1718C11.9389 37.1848 11.9778 37.2762 12.0167 37.3676C12.3667 38.3469 12.7426 39.3261 13.1444 40.2923C13.5204 41.1801 14.0518 41.9635 14.6092 42.7469C14.8815 43.1386 15.1796 43.5173 15.5426 43.8306C15.5815 43.8698 15.6204 43.8959 15.6592 43.9351C15.8148 44.0395 15.8537 44.0265 15.9315 43.8828Z" fill="#DFC091"/>
<path d="M16.2556 37.6027C16.1 37.4199 15.8926 37.3024 15.6981 37.1719C15.2444 36.8454 14.8426 36.4668 14.4537 36.0751C14.0519 35.6573 13.6241 35.2656 13.2093 34.8609C13.2352 34.5083 13.313 34.1689 13.5333 33.8686C13.637 33.7249 13.7407 33.7249 13.8444 33.8555C14.8944 35.135 16.1907 36.1143 17.5907 36.9499C17.6944 37.0021 17.7852 37.0674 17.8759 37.1327C17.9407 37.1849 18.0056 37.2633 17.9796 37.3416C17.9537 37.433 17.863 37.4199 17.7852 37.433C17.4741 37.4591 17.163 37.433 16.8519 37.4722C16.6574 37.5113 16.463 37.5636 16.2556 37.6027Z" fill="#DFC091"/>
<path d="M23.9037 22.5747C23.8648 22.4963 23.8518 22.4049 23.8518 22.3266C23.8389 22.1046 24.0852 21.8696 24.3704 21.8305C25.0185 21.726 25.5629 21.9741 26.0555 22.3658C26.4574 22.6922 26.7426 23.1361 27.0926 23.5147C27.4296 23.8803 27.7926 24.2067 28.1167 24.5723C28.4278 24.9249 28.5963 25.3165 28.4796 25.7996C28.4278 26.0347 28.3111 26.2305 28.1296 26.3741C28.0259 26.4655 27.9611 26.5569 27.987 26.6875C27.987 26.7136 27.9741 26.7397 27.9611 26.7528C27.9352 26.4394 27.9741 26.113 27.9222 25.7996C27.8833 25.4993 27.7537 25.2643 27.4815 25.1468C26.8592 24.8726 26.4315 24.4026 26.0685 23.8542C25.7704 23.4234 25.4852 22.9925 25.0574 22.6922C24.7981 22.5094 24.5259 22.3658 24.2018 22.3005C23.9685 22.2744 23.9167 22.3266 23.9037 22.5747Z" fill="#DFC091"/>
<path d="M18.1222 41.3108C17.6426 41.35 17.15 41.3891 16.6704 41.4283C16.3981 41.4544 16.1259 41.4544 15.8667 41.4022C15.4907 41.3238 15.3093 41.0366 15.2056 40.7102C15.0889 40.3446 15.05 39.966 15.0241 39.5873C15.0111 39.3131 14.9722 39.039 14.9852 38.7648C14.9981 38.1642 15.3611 37.8116 15.9574 37.8116C15.9056 37.9553 15.8926 38.0989 15.8926 38.2556C15.8926 38.8039 15.9056 39.3523 15.8667 39.9007C15.8278 40.4491 16.1907 40.6319 16.5926 40.6971C17.1241 40.7755 17.6556 40.671 18.187 40.658C18.213 40.658 18.2389 40.6449 18.2648 40.6449C18.3685 40.6449 18.4852 40.6318 18.537 40.7232C18.5889 40.8146 18.4981 40.8799 18.4463 40.9583C18.3296 41.0627 18.2519 41.2063 18.1222 41.3108Z" fill="#DFC091"/>
<path d="M14.2074 21.6346C14.4019 21.713 14.5833 21.8044 14.7907 21.8566C14.8685 21.8827 14.8815 21.948 14.8815 22.0002C14.9074 22.3789 15.1148 22.6792 15.2833 23.0056C15.3741 23.1753 15.5037 23.332 15.5815 23.5148C15.6722 23.6976 15.8019 23.7367 15.9833 23.7367C15.763 23.8934 15.5426 24.0632 15.3093 24.2068C14.9463 24.4418 14.4926 24.4287 14.1944 24.1284C13.5981 23.5409 13.1185 22.875 12.9111 22.0394C12.8852 21.9611 12.8722 21.8827 12.95 21.8305C13.0278 21.7783 13.0926 21.8305 13.1574 21.8697C13.313 21.9872 13.4685 22.0916 13.65 22.17C13.7926 22.2352 13.9352 22.2875 14.0648 22.17C14.2074 22.0525 14.2722 21.7913 14.2074 21.6346Z" fill="#DFC091"/>
<path d="M17.1889 44.9666C17.2148 44.9405 17.2537 44.9275 17.2667 44.9013C17.8759 43.9613 18.4981 43.0081 19.0167 42.0158C19.1593 41.7547 19.2889 41.4805 19.5093 41.2716C19.5222 41.2586 19.5222 41.2325 19.5481 41.2063C19.3926 41.1802 19.25 41.2325 19.1204 41.2586C19.4704 40.9583 19.8333 40.671 20.2611 40.5013C20.3389 40.4752 20.4296 40.4099 20.5074 40.4882C20.5852 40.5666 20.5593 40.671 20.5333 40.7494C20.4685 40.9844 20.3778 41.2063 20.2741 41.4283C19.7815 42.4859 19.2111 43.5043 18.55 44.4705C18.4722 44.601 18.3685 44.7055 18.2519 44.7969C18.1352 44.8883 18.0056 44.9405 17.85 44.9405C17.6426 44.9536 17.4222 44.9927 17.1889 44.9666Z" fill="#DFC091"/>
<path d="M26.6518 43.3215C26.4574 43.5826 25.8611 43.687 25.563 43.4912C24.9667 43.1126 24.3963 42.7078 23.9296 42.1594C23.6444 41.833 23.3333 41.5197 23.0352 41.2063C23.0093 41.1802 22.9833 41.1671 22.9444 41.141C22.8537 40.9582 22.763 40.7754 22.6722 40.5796C22.6463 40.5274 22.6333 40.4621 22.6722 40.4099C22.7241 40.3446 22.8018 40.3446 22.8667 40.3707C22.9444 40.4099 23.0222 40.449 23.1 40.5012C23.9167 40.9974 24.6685 41.6111 25.3815 42.2508C25.7315 42.5642 26.0685 42.8645 26.3796 43.217C26.4574 43.2953 26.5481 43.3215 26.6518 43.3215Z" fill="#DFC091"/>
<path d="M20.9611 18.0049C20.9222 18.3182 20.8833 18.6185 20.8574 18.9319C20.8185 19.2844 20.7667 19.6369 20.7537 19.9895C20.7278 20.5117 20.6889 21.034 20.4944 21.5301C20.2481 22.1307 20.2611 22.7444 20.4815 23.3581C20.5463 23.5278 20.5722 23.6975 20.6241 23.8673C20.1185 23.567 19.7685 23.1491 19.613 22.5747C19.5611 22.3788 19.6259 22.1699 19.6907 21.961C19.7944 21.5693 19.937 21.1907 20.0278 20.799C20.0796 20.564 20.1056 20.3289 20.1056 20.0939C20.1185 19.7153 20.1056 19.3366 20.1704 18.958C20.2222 18.6969 20.3389 18.4619 20.4944 18.2399C20.5852 18.0702 20.7667 18.031 20.9611 18.0049Z" fill="#DFC091"/>
<path d="M16.0093 21.726C15.9574 21.6346 16.0352 21.6215 16.1 21.5954C16.6315 21.4387 17.0074 21.0862 17.2148 20.577C17.2667 20.4464 17.2667 20.3028 17.2407 20.1592C17.1889 19.8589 17.2537 19.7414 17.5389 19.6631C17.7333 19.6108 17.9148 19.5717 18.0833 19.4541C18.1093 19.4411 18.1481 19.3889 18.187 19.4411C18.2 19.7283 18.4074 19.8981 18.5889 20.0809C18.6796 20.1331 18.6278 20.2114 18.6148 20.2767C18.4852 20.7467 18.2259 21.1254 17.7981 21.3735C17.2926 21.6607 16.7481 21.7782 16.1648 21.7651C16.113 21.7651 16.0611 21.7782 16.0093 21.726Z" fill="#FEFEFE"/>
<path d="M21.7648 27.719C22.4389 27.732 23.1 27.7712 23.7611 27.8365C23.8389 27.8495 23.9426 27.8365 23.9426 27.9409C23.9556 28.0323 23.8389 28.0454 23.7741 28.0584C23.1648 28.2543 22.5426 28.3457 21.8944 28.3718C21.5315 28.3849 21.1685 28.411 20.8056 28.424C20.4426 28.4371 20.1315 28.3065 19.8463 28.0715C19.7944 28.0323 19.7556 27.9801 19.7685 27.9148C19.7815 27.8365 19.8593 27.8365 19.9241 27.8234C20.5333 27.7712 21.1426 27.7059 21.7648 27.719Z" fill="#FEFEFE"/>
<path d="M16.0093 21.726C16.6185 21.7391 17.2148 21.6477 17.7593 21.3474C18.2259 21.0862 18.4981 20.6815 18.6018 20.1592C18.6018 20.1331 18.6018 20.107 18.6018 20.0809C18.7963 20.0809 18.9259 19.9503 19.0685 19.8328C19.1074 19.8067 19.1463 19.7414 19.1981 19.7675C19.25 19.7936 19.237 19.8589 19.237 19.9242C19.1204 20.6684 18.7055 21.2429 18.1222 21.6868C18.0055 21.7652 17.8889 21.8435 17.7722 21.9218C17.3704 22.0655 16.9426 22.1308 16.5148 22.196C16.2426 22.2352 16.0611 22.1699 15.9574 21.961C15.9055 21.8566 15.9055 21.7782 16.0093 21.726Z" fill="#DFC091"/>
<path d="M16.3852 17.0779C16.7092 17.1171 17.0204 17.1954 17.2278 17.4826C17.2537 17.5218 17.2796 17.5479 17.2926 17.5871C17.3185 17.6524 17.3444 17.7307 17.2926 17.796C17.2407 17.8482 17.1759 17.8352 17.0981 17.8221C16.9426 17.7829 16.7741 17.7699 16.6055 17.7699C16.1389 17.7699 15.7111 17.9266 15.2833 18.1093C15.0241 18.2269 14.7648 18.3705 14.4796 18.4227C14.35 18.4488 14.2074 18.4749 14.0778 18.4096C13.9352 18.3444 13.9222 18.253 14.0389 18.1485C14.0778 18.1224 14.1167 18.0963 14.1555 18.0832C14.4926 17.9527 14.7907 17.7568 15.0889 17.574C15.4389 17.3651 15.8148 17.1954 16.2037 17.104C16.2815 17.0909 16.3333 17.0909 16.3852 17.0779Z" fill="#DFC091"/>
<path d="M25.8481 17.9266C25.5889 17.9266 25.3426 17.9919 25.0963 18.0441C25.0574 18.0571 25.0185 18.0571 24.9796 18.0571C24.9148 18.0571 24.863 18.0441 24.837 17.9919C24.7981 17.9266 24.8241 17.8744 24.863 17.8352C25.3167 17.4043 25.9 17.1171 26.5222 17.4696C26.6648 17.5479 26.7944 17.6524 26.9241 17.7568C27.2481 18.0441 27.5333 18.3836 27.9352 18.5794C28.0518 18.6316 28.0389 18.71 27.9352 18.7753C27.8185 18.8536 27.7018 18.8014 27.5852 18.7622C27.2352 18.6577 26.95 18.4488 26.6778 18.2138C26.4315 18.018 26.1593 17.9266 25.8481 17.9266Z" fill="#DFC091"/>
<path d="M26.8333 21.6346C26.7555 21.5302 26.8463 21.4779 26.8981 21.4257C27.0667 21.269 27.2222 21.0862 27.3389 20.8904C27.4944 20.6031 27.5592 20.3159 27.4037 20.0025C27.2741 19.7414 27.3389 19.637 27.637 19.637C27.8315 19.7022 28.0389 19.7022 28.2333 19.7284C28.5315 19.7675 28.5963 19.872 28.5185 20.1592C28.4018 20.6423 28.1167 20.9948 27.7278 21.2821C27.663 21.3343 27.6111 21.3735 27.5463 21.4257C27.3389 21.5693 27.0926 21.6085 26.8333 21.6346Z" fill="#FEFEFE"/>
<path d="M10.5259 18.2007C10.513 18.736 10.6555 19.2452 10.7592 19.7544C10.7852 19.8719 10.7722 19.9764 10.6555 20.0286C10.5389 20.0808 10.4481 20.0156 10.3833 19.9111C10.0592 19.3758 9.83888 18.8013 9.72221 18.1877C9.67036 17.9396 9.73518 17.8612 9.96851 17.7829C10.0722 17.7437 10.1759 17.7046 10.2796 17.6784C10.4352 17.6523 10.513 17.7176 10.5259 17.8743C10.5389 17.9918 10.5259 18.0963 10.5259 18.2007Z" fill="#FEFEFE"/>
<path d="M12.8593 18.0963C12.6 18.0963 12.4704 17.9135 12.5481 17.6785C12.7037 17.2607 13.0018 16.9996 13.4556 16.9604C13.7018 16.9343 13.9352 16.9082 14.1815 16.8821C14.2463 16.869 14.3111 16.8821 14.363 16.9082C14.4926 16.9474 14.5185 17.0649 14.4278 17.1693C14.3889 17.2085 14.35 17.2346 14.3111 17.2607C13.8963 17.4827 13.5074 17.7438 13.1315 18.0049C13.0407 18.0572 12.963 18.1094 12.8593 18.0963Z" fill="#DFC091"/>
<path d="M18.2778 22.9925C18.2907 22.7314 18.3426 22.5225 18.4722 22.3397C18.6148 22.1569 18.8611 22.1047 19.0555 22.2222C19.1333 22.2744 19.1593 22.3266 19.1204 22.4311C18.9778 22.7575 18.9648 23.0839 19.1074 23.4103C19.1333 23.4625 19.1463 23.5148 19.1463 23.58C19.1722 23.8151 19.0296 23.9326 18.8093 23.8412C18.5241 23.7367 18.3944 23.5017 18.3167 23.2275C18.2907 23.1361 18.2648 23.0447 18.2778 22.9925Z" fill="#DFC091"/>
<path d="M27.4037 16.9342C27.7018 16.9603 27.9741 16.9603 28.2333 17.0648C28.5315 17.1823 28.7518 17.4304 28.7389 17.6915C28.7259 17.9787 28.5963 18.1746 28.2593 17.9918C28.0389 17.8743 27.8444 17.7176 27.65 17.5479C27.4944 17.4173 27.3518 17.2737 27.1704 17.1692C27.1185 17.1431 27.0667 17.1039 27.0796 17.0387C27.0926 16.9734 27.1444 16.9473 27.2093 16.9342C27.287 16.9342 27.3648 16.9342 27.4037 16.9342Z" fill="#DFC091"/>
<path d="M20.8574 44.9405C20.7407 44.9405 20.6241 44.9535 20.5204 44.9405C20.3907 44.9274 20.3518 44.8491 20.4426 44.7577C20.7537 44.3921 20.987 43.9873 21.1685 43.5434C21.1815 43.5042 21.1944 43.4781 21.2204 43.452C21.2333 43.4259 21.2592 43.3998 21.2981 43.3998C21.337 43.3998 21.35 43.4389 21.35 43.4651C21.363 43.5956 21.3889 43.7262 21.4018 43.8568C21.4278 44.1048 21.4407 44.3529 21.4537 44.601C21.4667 44.8491 21.3889 44.9274 21.1426 44.9405C21.0259 44.9405 20.9481 44.9405 20.8574 44.9405Z" fill="#FEFEFE"/>
<path d="M11.55 17.339C11.4333 17.339 11.3167 17.339 11.213 17.339C11.1093 17.339 11.0574 17.3129 11.0574 17.1954C11.0574 17.1432 11.0574 17.104 11.0574 17.0518C11.0055 16.7123 11.0833 16.7515 11.3426 16.7384C11.5241 16.7384 11.6926 16.7254 11.8741 16.7123C11.9778 16.6992 12.0426 16.7515 12.0555 16.8559C12.0555 16.869 12.0555 16.882 12.0555 16.882C12.0815 17.3651 12.1074 17.2998 11.6926 17.2998C11.6407 17.2998 11.6018 17.2998 11.55 17.2998C11.55 17.326 11.55 17.326 11.55 17.339Z" fill="#FEFEFE"/>
<path d="M29.737 16.8951C29.8537 16.8951 29.9704 16.8951 30.087 16.8951C30.1259 16.8951 30.1778 16.8821 30.2037 16.9212C30.2944 17.0518 30.2167 17.1824 30.2037 17.3129C30.1907 17.4043 30.113 17.4304 30.0352 17.4304C29.8148 17.4304 29.5944 17.4304 29.387 17.4174C29.2704 17.4043 29.2056 17.339 29.2056 17.2085C29.2056 16.856 29.2056 16.856 29.5556 16.856C29.6204 16.856 29.6852 16.856 29.737 16.856C29.737 16.8821 29.737 16.8951 29.737 16.8951Z" fill="#FEFEFE"/>
<path d="M26.8333 21.6346C27.0667 21.5301 27.3259 21.517 27.5592 21.4126C27.5204 21.5693 27.5722 21.6998 27.6241 21.8304C27.663 21.9349 27.7537 21.9479 27.8574 21.9349C27.637 22.0132 27.4167 22.0654 27.1833 22.0524C27.0537 22.0524 26.8333 21.8565 26.8074 21.726C26.7944 21.6998 26.8204 21.6737 26.8333 21.6346Z" fill="#DFC092"/>
<path d="M17.2796 32.5106C17.3444 32.5367 17.4222 32.5106 17.4741 32.5628C16.9296 32.5628 16.3981 32.5628 15.8537 32.5628C14.5056 32.5628 13.1444 32.5628 11.7963 32.5628C11.8093 32.5367 11.8093 32.5237 11.8222 32.4976C11.8611 32.5498 11.913 32.5367 11.9648 32.5367C13.6889 32.5367 15.413 32.5367 17.137 32.5367C17.1889 32.5367 17.2407 32.5498 17.2796 32.5106Z" fill="#422425"/>
<path d="M17.7722 32.5628C17.8111 32.5498 17.863 32.5237 17.9018 32.5106C17.9537 32.5628 18.0055 32.5367 18.0704 32.5367C18.6018 32.5367 19.1204 32.5367 19.6518 32.5367C19.6518 32.5498 19.6518 32.5628 19.6389 32.5628C19.0167 32.5628 18.3944 32.5628 17.7722 32.5628Z" fill="#422425"/>
<path d="M29.5685 32.5367C29.5685 32.5628 29.5556 32.589 29.5426 32.602C29.5037 32.5628 29.4518 32.5759 29.413 32.5759C28.9204 32.5759 28.4278 32.5759 27.9352 32.5759C27.9481 32.5498 27.9741 32.5367 27.987 32.5106C28.0389 32.5628 28.0907 32.5367 28.1426 32.5367C28.6222 32.5367 29.1018 32.5367 29.5685 32.5367Z" fill="#432627"/>
<path d="M30.1259 32.5628C30.113 32.5498 30.113 32.5367 30.1 32.5367C30.5796 32.5367 31.0463 32.5367 31.5259 32.5367C31.5778 32.5367 31.6296 32.5498 31.6685 32.5106C31.6944 32.5237 31.7204 32.5367 31.7333 32.5759C31.2148 32.5628 30.6704 32.5628 30.1259 32.5628Z" fill="#432526"/>
<path d="M0.933323 39.966C0.907397 39.979 0.881471 39.9921 0.855545 40.0052C0.855545 39.6004 0.855545 39.1957 0.855545 38.804C0.868508 38.804 0.868508 38.804 0.881471 38.804C0.881471 39.1434 0.881471 39.4829 0.881471 39.8093C0.894434 39.8746 0.868508 39.9268 0.933323 39.966Z" fill="#3C2424"/>
<path d="M5.40555 48.2829C5.44444 48.2567 5.48333 48.2568 5.52221 48.2698C5.48333 48.322 5.44444 48.2829 5.40555 48.2829Z" fill="#482426"/>
<path d="M35.4278 52.0693C35.4278 52.2782 35.2722 52.4349 35.0778 52.4479C34.8704 52.4479 34.7148 52.2913 34.7148 52.0954C34.7148 51.8865 34.8704 51.7037 35.0778 51.7168C35.2593 51.6907 35.4148 51.8604 35.4278 52.0693Z" fill="#FBFBFB"/>
<path d="M26.4574 41.2455C26.5093 41.1149 26.5352 41.0366 26.5611 40.9452C26.587 40.8668 26.613 40.8277 26.7037 40.8407C26.8074 40.8538 26.7555 40.9191 26.7685 40.9713C26.7685 41.1019 26.7685 41.2194 26.7685 41.3499C26.7685 41.3891 26.7685 41.4283 26.7167 41.4283C26.6648 41.4283 26.6648 41.3891 26.6648 41.3499C26.6648 41.2455 26.6648 41.1541 26.6648 41.0235C26.587 41.141 26.5741 41.2585 26.5352 41.3499C26.5222 41.3891 26.5093 41.4152 26.4704 41.4152C26.4185 41.4152 26.4055 41.3891 26.4055 41.3499C26.3667 41.2455 26.3278 41.141 26.263 41.0366C26.263 41.141 26.263 41.2324 26.263 41.3369C26.263 41.3761 26.263 41.4152 26.2111 41.4152C26.1593 41.4152 26.1593 41.3761 26.1593 41.3369C26.1593 41.2063 26.1593 41.0627 26.1593 40.9321C26.1593 40.893 26.1333 40.8277 26.2241 40.8407C26.2759 40.8407 26.3407 40.8277 26.3537 40.906C26.3667 41.0105 26.4055 41.1149 26.4574 41.2455Z" fill="#262422"/>
<path d="M25.8222 40.8407C25.8741 40.8407 25.9389 40.8407 25.9907 40.8407C26.0167 40.8407 26.0556 40.8407 26.0556 40.8799C26.0556 40.919 26.0296 40.9452 26.0037 40.9321C25.8481 40.906 25.8741 41.0104 25.8741 41.1018C25.8741 41.1541 25.887 41.2063 25.8741 41.2585C25.8611 41.3107 25.9259 41.4152 25.8093 41.4152C25.7056 41.4152 25.7704 41.3238 25.7574 41.2716C25.7444 41.2193 25.7574 41.1671 25.7574 41.1149C25.7574 41.0235 25.7833 40.906 25.6148 40.9321C25.5889 40.9321 25.563 40.919 25.563 40.8929C25.563 40.8538 25.5889 40.8407 25.6148 40.8407C25.6796 40.8407 25.7574 40.8407 25.8222 40.8407Z" fill="#282625"/>
<path d="M35.2204 52.3044C35.1556 52.2782 35.1685 52.226 35.1685 52.1869C35.1426 52.1216 35.0907 52.1085 35.0389 52.1085C34.9611 52.1085 34.9741 52.1607 34.9741 52.1999C34.9741 52.2391 34.987 52.2782 34.9352 52.2782C34.8833 52.2782 34.8963 52.226 34.8963 52.1999C34.8963 52.1346 34.8963 52.0693 34.8963 52.0171C34.8963 51.8343 35.013 51.756 35.1815 51.8343C35.2204 51.8474 35.2333 51.8735 35.2463 51.9127C35.2852 51.991 35.1556 52.0302 35.2074 52.0955C35.2463 52.1738 35.2593 52.2391 35.2204 52.3044Z" fill="#2B2927"/>
<path d="M35.0648 51.8996C35.1167 51.8996 35.1685 51.9257 35.1556 51.991C35.1426 52.0563 35.0778 52.0693 35.0259 52.0693C34.9481 52.0693 34.9611 52.0171 34.9611 51.978C34.9611 51.8866 35.013 51.8866 35.0648 51.8996Z" fill="#EDECEC"/>
</svg>
