<svg width="52" height="52" viewBox="0 0 52 52" fill="none" xmlns="http://www.w3.org/2000/svg">
<path d="M0 52V26V0H52V52H0Z" fill="#CAFF58"/>
<path fill-rule="evenodd" clip-rule="evenodd" d="M15.0422 10.4946C15.392 10.4946 15.5055 10.5324 15.5055 10.6364C15.5055 10.712 15.4676 10.7782 15.4109 10.7782C15.3542 10.7782 15.3353 10.8444 15.3636 10.92C15.392 10.9957 15.392 11.0618 15.3636 11.0618C15.3353 11.0618 15.2502 10.9957 15.1745 10.92C15.0895 10.8349 14.9382 10.7971 14.7964 10.8255C14.6262 10.8633 14.5505 10.9484 14.5127 11.1564C14.4749 11.3833 14.4087 11.4495 14.1818 11.4873C13.9644 11.5251 13.8887 11.6007 13.8415 11.7993C13.8131 11.9411 13.8036 12.064 13.8225 12.0735C13.8415 12.0924 13.9455 12.1207 14.0684 12.1491C14.1818 12.1775 14.2575 12.168 14.2291 12.1302C14.2102 12.0829 14.248 11.9695 14.3236 11.8655C14.3898 11.7615 14.5222 11.6669 14.5978 11.648C14.7207 11.6291 14.7207 11.6764 14.56 11.9317C14.456 12.1018 14.3331 12.3382 14.2764 12.4517C14.2291 12.5746 14.1629 12.6691 14.1345 12.6691C14.1062 12.6691 14.1062 12.584 14.1345 12.48C14.1724 12.3382 14.1345 12.2909 13.9927 12.2909C13.8604 12.2909 13.7847 12.376 13.7469 12.5557C13.6996 12.792 13.6902 12.8015 13.5956 12.6218C13.52 12.4895 13.52 12.3855 13.6051 12.272C13.6713 12.1586 13.6713 12.0829 13.6145 12.0546C13.5578 12.0262 13.52 11.9033 13.52 11.7709C13.52 11.6134 13.583 11.5188 13.7091 11.4873C13.832 11.4589 13.9076 11.3455 13.9265 11.1847C13.936 10.9673 14.0022 10.92 14.2102 10.9011C14.3709 10.8822 14.4844 10.8066 14.5222 10.6837C14.5695 10.5324 14.664 10.4946 15.0422 10.4946V10.4946ZM16.4509 10.4946C16.7629 10.4946 17.0182 10.5324 17.0182 10.5891C17.0182 10.6364 16.9804 10.6837 16.9236 10.6837C16.8669 10.6837 16.8575 10.7404 16.8953 10.8066C16.9425 10.8822 16.9047 10.8822 16.7818 10.7877C16.6873 10.7215 16.4982 10.6837 16.3658 10.712C16.2335 10.7404 16.0633 10.7404 16.0065 10.7215C15.9404 10.7026 15.8836 10.6364 15.8836 10.5891C15.8836 10.5324 16.1389 10.4946 16.4509 10.4946V10.4946ZM20.0909 10.504C20.8756 10.504 21.0553 10.5324 21.1498 10.6647C21.2538 10.8066 21.2822 10.8066 21.3673 10.6837C21.4524 10.5607 21.4713 10.5607 21.5469 10.6837C21.5942 10.7593 21.6793 10.7971 21.736 10.7593C21.7927 10.712 21.84 10.7404 21.84 10.8255C21.84 10.9106 21.8873 10.9389 21.9535 10.9011C22.0385 10.8444 22.048 10.9011 21.9913 11.1091C21.9535 11.2698 21.8967 11.4211 21.8589 11.4684C21.8211 11.5062 21.6698 11.544 21.528 11.5629C21.3767 11.5724 21.2065 11.5251 21.1498 11.4589C21.0647 11.3644 21.0647 11.336 21.1593 11.3455C21.216 11.3455 21.3011 11.3455 21.3484 11.3549C21.3862 11.3549 21.4429 11.3077 21.4807 11.232C21.5185 11.1658 21.528 11.0807 21.4996 11.0429C21.4807 10.9957 21.3578 10.9673 21.2255 10.9673C21.0931 10.9673 20.9702 10.9106 20.9607 10.8538C20.9324 10.7687 20.7055 10.7309 20.2233 10.7309C19.8356 10.7309 19.4385 10.6742 19.3345 10.6175C19.1738 10.5229 19.3062 10.504 20.0909 10.504V10.504ZM23.192 10.5229C23.6364 10.5324 24.0335 10.5797 24.0807 10.6175C24.1185 10.6553 23.7593 10.6837 23.2865 10.6837C22.8044 10.6837 22.4073 10.6458 22.3978 10.5986C22.3978 10.5513 22.7571 10.5135 23.192 10.5229ZM25.1207 10.5324C25.2342 10.5607 25.4611 10.7309 25.6218 10.9011C25.7731 11.0618 25.9244 11.3266 25.9527 11.4873C25.9905 11.648 25.9716 11.8182 25.9149 11.8655C25.8487 11.9317 25.7731 11.8655 25.6975 11.6764C25.5935 11.4306 25.5651 11.6764 25.5273 13.5106C25.4989 14.7964 25.4422 15.6473 25.3855 15.6662C25.3287 15.6851 25.3004 15.08 25.3193 13.9455C25.3382 12.4611 25.3193 12.1869 25.1964 12.1491C25.1207 12.1207 25.0545 12.0167 25.0545 11.9127C25.0545 11.8087 25.1207 11.7047 25.1964 11.6764C25.2909 11.648 25.3382 11.4967 25.3382 11.2037C25.3382 10.9673 25.3004 10.7782 25.2436 10.7782C25.1869 10.7782 25.1491 10.8255 25.1491 10.8727C25.1491 10.92 25.0924 10.9673 25.0356 10.9673C24.9695 10.9673 24.9127 10.8538 24.9033 10.7215C24.8938 10.504 24.9222 10.4851 25.1207 10.5324V10.5324ZM25.9338 10.4946C26 10.4946 26.1418 10.6175 26.2647 10.7782C26.3782 10.9295 26.5105 11.0618 26.5673 11.0618C26.624 11.0618 26.6524 11.0335 26.6524 10.9957C26.6429 10.9484 26.6429 10.8255 26.6524 10.712C26.6524 10.5891 26.6996 10.4946 26.7564 10.4946C26.8131 10.4946 26.8225 10.6458 26.7847 10.9011C26.7375 11.1942 26.7564 11.2793 26.832 11.232C26.9171 11.1753 26.9455 11.2604 26.936 11.5157C26.9265 11.8277 26.9171 11.8371 26.8509 11.6291C26.7753 11.3927 26.7753 11.3927 26.7375 11.96L26.6713 11.6764C26.6335 11.5157 26.5578 11.4022 26.4916 11.4211C26.4255 11.4306 26.2931 11.3171 26.1891 11.1564C26.0851 10.9957 25.9338 10.8727 25.8582 10.8727C25.7825 10.8727 25.7164 10.8538 25.7164 10.8255C25.7164 10.7971 25.7447 10.712 25.7731 10.6364C25.8015 10.5607 25.8771 10.4946 25.9338 10.4946V10.4946ZM32.448 10.5418C35.4451 10.5418 37.9316 10.5797 37.9789 10.6175C38.0167 10.6553 35.5585 10.6931 32.5047 10.6837C29.4415 10.6837 26.9549 10.6553 26.9738 10.608C26.9927 10.5702 29.4604 10.5418 32.448 10.5418ZM39.0473 10.4946C39.1513 10.4946 39.2553 10.5418 39.2836 10.5891C39.312 10.6364 39.2458 10.7782 39.1418 10.9011C39.0378 11.0146 38.9527 11.0618 38.9527 11.0146C38.9527 10.9673 38.8676 11.0618 38.7636 11.232C38.6596 11.3927 38.5367 11.5346 38.48 11.5346C38.4233 11.5346 38.3855 11.44 38.3855 11.3266C38.3855 11.2037 38.3476 11.0051 38.3098 10.8917C38.2531 10.6931 38.272 10.6742 38.4327 10.7309C38.5935 10.7877 38.6029 10.816 38.48 10.8822C38.4044 10.9295 38.376 10.9673 38.4327 10.9673C38.4895 10.9578 38.6029 10.9106 38.688 10.8444C38.7825 10.7782 38.8487 10.6742 38.8582 10.6175C38.8582 10.5513 38.9433 10.4946 39.0473 10.4946ZM24.8182 11.1469L24.9316 11.3644C25.0167 11.544 25.0073 11.6102 24.8844 11.7331C24.752 11.856 24.7142 11.8655 24.6575 11.7615C24.6102 11.6858 24.6385 11.5251 24.7047 11.3927L24.8182 11.1469ZM15.0611 11.2604C15.1745 11.2793 15.2691 11.336 15.2691 11.3833C15.2691 11.44 15.1556 11.4967 15.0327 11.5062C14.9004 11.5251 14.7491 11.4873 14.7018 11.4306C14.6262 11.3455 14.6356 11.3266 14.7207 11.3738C14.7869 11.4117 14.8436 11.3927 14.8436 11.336C14.8531 11.2793 14.9476 11.2509 15.0611 11.2604ZM39.2742 11.336C39.3593 11.336 39.416 11.4211 39.416 11.5251C39.416 11.6386 39.3593 11.7142 39.2742 11.7142C39.1985 11.7142 39.0945 11.7993 39.0378 11.9033C38.9905 12.0167 38.9433 12.8487 38.9433 13.7942C38.9433 14.7302 38.9244 15.496 38.896 15.496C38.8771 15.496 38.7447 15.4487 38.6124 15.3826C38.48 15.3164 38.376 15.2313 38.376 15.1935C38.376 15.1557 38.4422 15.0989 38.5178 15.0706C38.6407 15.0327 38.6691 14.7869 38.6691 13.6335C38.6691 12.7164 38.6313 12.2058 38.5651 12.1397C38.4989 12.0924 38.48 11.9978 38.5084 11.9317C38.5462 11.8655 38.6502 11.8371 38.7542 11.856C38.8771 11.8938 38.9622 11.856 38.9905 11.7615C39.0189 11.6858 39.0662 11.5629 39.0851 11.4778C39.1135 11.4022 39.1985 11.336 39.2742 11.336V11.336ZM26.4444 13.3877C26.4538 14.3993 26.5011 15.0233 26.5578 15.0233C26.624 15.0233 26.6618 14.456 26.6996 12.0451L26.728 13.3687C26.7469 14.0967 26.7375 14.8815 26.7091 15.0989C26.6713 15.4204 26.6145 15.496 26.4633 15.496C26.3593 15.496 26.2742 15.4487 26.2742 15.3826C26.2647 15.3164 26.2647 14.5695 26.2742 13.728C26.2742 12.792 26.2458 12.1775 26.1796 12.1397C26.1324 12.1207 26.0756 12.0357 26.0662 11.96C26.0567 11.8844 26.1229 11.8087 26.2269 11.7898C26.4065 11.7615 26.416 11.8277 26.4444 13.3877ZM24.8371 12.168C25.0167 12.2153 25.0262 12.3004 25.0356 13.624C25.0451 14.4749 25.0167 15.0422 24.9505 15.0706C24.9033 15.0989 24.8844 15.2502 24.9033 15.4015C24.9411 15.6189 24.9127 15.704 24.7898 15.7513C24.6953 15.7891 24.5913 15.808 24.5535 15.7986C24.5156 15.7891 24.4589 15.8931 24.4305 16.016C24.4116 16.1484 24.3265 16.2524 24.2415 16.2524C24.1658 16.2524 24.0807 16.2997 24.0524 16.3469C24.0335 16.4037 24.0335 16.5266 24.0524 16.6306C24.0807 16.7346 24.1469 16.8007 24.1942 16.7724C24.2509 16.7535 24.2887 16.7724 24.2887 16.8197C24.2887 16.8764 24.1847 16.8953 24.0335 16.8575C23.8916 16.8291 23.7404 16.8386 23.712 16.8858C23.6742 16.9331 23.7876 17.0277 23.9673 17.1033C24.2036 17.2073 24.2982 17.3113 24.2982 17.4626C24.2982 17.6044 24.232 17.68 24.128 17.68C23.9767 17.68 23.9767 17.6706 24.0996 17.5193C24.232 17.368 24.232 17.368 24.0051 17.4815C23.8065 17.5855 23.7876 17.5855 23.8916 17.472C23.9578 17.4058 24.0145 17.3207 24.0145 17.2924C24.0145 17.2735 23.7971 17.264 23.5324 17.2735C23.2676 17.2829 23.0596 17.2546 23.0596 17.1978C23.0596 17.1506 22.9556 17.1033 22.8233 17.1033C22.7004 17.1033 22.5869 17.056 22.5869 16.9898C22.5869 16.9237 22.4924 16.8669 22.3789 16.8669C22.256 16.8669 22.1804 16.8197 22.1898 16.7535C22.2087 16.6778 22.1425 16.6589 22.0007 16.6967C21.8873 16.7251 21.7265 16.8007 21.6509 16.8575C21.5469 16.9426 21.528 16.9331 21.5847 16.848C21.6131 16.7818 21.5847 16.7062 21.4996 16.6778C21.424 16.6589 21.3673 16.6022 21.3673 16.5644C21.3673 16.5266 21.6036 16.4793 21.9062 16.4698C22.3505 16.4509 22.4735 16.4793 22.5869 16.6306C22.7287 16.8197 22.7382 16.8102 22.7571 16.536C22.776 16.2618 22.776 16.2524 22.2371 16.2429C21.9345 16.2335 21.5847 16.2335 21.4524 16.2524C21.32 16.2618 21.1876 16.2051 21.1498 16.12C21.112 16.0349 21.008 15.9971 20.9135 16.0255C20.7811 16.0633 20.7433 16.016 20.7244 15.7891C20.7055 15.5622 20.7527 15.4771 20.9324 15.4015C21.0647 15.3542 21.1687 15.2691 21.1687 15.2124C21.1687 15.1651 21.216 15.1178 21.2633 15.1178C21.32 15.1178 21.3862 15.1935 21.4145 15.288C21.4429 15.3826 21.4051 15.4866 21.32 15.5244C21.2349 15.5622 21.1687 15.6567 21.1687 15.7324C21.1687 15.8269 21.2633 15.8742 21.4524 15.8742C21.6131 15.8742 21.736 15.8458 21.736 15.808C21.736 15.7702 21.6982 15.6757 21.6509 15.5906C21.5942 15.5023 21.6036 15.4361 21.6793 15.392C21.736 15.3637 21.8589 15.4015 21.9535 15.4866C22.048 15.5811 22.0953 15.7229 22.0669 15.8553C22.0291 16.0633 22.0291 16.0633 23.1069 16.0633C23.7687 16.0633 24.1942 16.0349 24.1942 15.9687C24.1942 15.9215 23.8822 15.8837 23.4189 15.8837C22.9935 15.8931 22.5775 15.8931 22.4924 15.8931C22.3884 15.8837 22.3789 15.8553 22.464 15.7607C22.5491 15.6757 22.7949 15.6567 23.4567 15.6946C23.9389 15.7324 24.3738 15.7418 24.4116 15.7229C24.4495 15.704 24.4589 15.6189 24.4305 15.5244C24.4116 15.4298 24.4495 15.2691 24.5251 15.1651C24.6385 15.0233 24.6669 14.6735 24.6575 13.5484C24.648 12.1586 24.6575 12.1207 24.8371 12.168V12.168ZM39.3498 12.1491C39.3971 12.1775 39.4349 12.9717 39.4349 13.9455C39.4255 15.0044 39.3876 15.704 39.3215 15.7324C39.2742 15.7607 39.2175 15.7513 39.208 15.7135C39.1891 15.6757 39.1985 14.8437 39.2269 13.8698C39.2458 12.8204 39.3025 12.1207 39.3498 12.1491V12.1491ZM25.8015 12.1869C25.8676 12.1869 25.896 12.7258 25.896 13.6051C25.896 14.4938 25.8676 15.0233 25.8015 15.0233C25.7447 15.0233 25.7069 14.4938 25.7069 13.6051C25.7069 12.7258 25.7447 12.1869 25.8015 12.1869ZM26.9171 12.8487C26.936 13.2458 26.936 13.8982 26.9171 14.3142C26.8982 14.7302 26.8887 14.4182 26.8887 13.6051C26.8887 12.8015 26.8982 12.4611 26.9171 12.8487ZM13.9265 12.7826C13.9833 12.8015 14.0305 12.8866 14.0305 12.9527C14.0305 13.0284 13.9833 13.0757 13.9171 13.0662C13.8509 13.0567 13.7942 13.1324 13.7942 13.2553C13.7942 13.3687 13.8509 13.52 13.9171 13.5957C14.0116 13.6902 14.0022 13.7375 13.8698 13.832C13.7847 13.8887 13.7091 14.0117 13.7091 14.1062C13.7091 14.2007 13.6618 14.248 13.6051 14.2197C13.5578 14.2007 13.5105 13.9455 13.5105 13.6524C13.5105 13.3404 13.5484 13.1513 13.6051 13.1797C13.6618 13.208 13.728 13.1229 13.7658 12.9906C13.7942 12.8582 13.8698 12.7637 13.9265 12.7826ZM29.848 13.2269C30.056 13.2269 30.056 13.2458 30.056 14.3615C30.056 15.4015 30.0465 15.5055 29.8669 15.5906C29.7629 15.6473 29.6495 15.6946 29.6116 15.6946C29.5738 15.6946 29.5927 15.6473 29.6589 15.5717C29.7251 15.5055 29.7535 15.3826 29.7345 15.288C29.7062 15.1935 29.7251 15.0989 29.7724 15.0706C29.8291 15.0517 29.8669 14.7302 29.8669 14.3615C29.8669 13.9833 29.8291 13.6997 29.7724 13.6997C29.7251 13.6997 29.6684 13.9927 29.6495 14.3426C29.6305 14.7586 29.6211 14.6735 29.6211 14.1062C29.6305 13.2553 29.64 13.2269 29.848 13.2269V13.2269ZM34.7738 13.2458C34.8589 13.2647 34.944 13.3782 34.9535 13.4917C34.9629 13.6051 34.9345 13.6997 34.8778 13.6997C34.8305 13.6997 34.7833 13.9833 34.7833 14.3615C34.7833 14.7397 34.8305 15.0233 34.8778 15.0233C34.9345 15.0233 34.9724 15.1367 34.9724 15.2597C34.9724 15.4109 34.9251 15.496 34.8305 15.496C34.7455 15.496 34.6887 15.5906 34.6887 15.7324C34.6887 15.8647 34.736 15.9971 34.7833 16.016C34.84 16.0444 34.9629 15.9687 35.0669 15.8553C35.1709 15.7418 35.2844 15.5338 35.3127 15.4015C35.3505 15.2786 35.3222 15.1273 35.2655 15.0706C35.2087 15.0233 35.1615 14.7207 35.1615 14.4087C35.1615 14.0873 35.2276 13.7091 35.3127 13.5106C35.4356 13.2647 35.4924 13.208 35.5775 13.3026C35.6625 13.3877 35.6531 13.4444 35.568 13.5389C35.4829 13.624 35.4545 13.9266 35.4735 14.5317C35.4829 15.0706 35.5302 15.392 35.5869 15.3731C35.6436 15.3542 35.6909 15.4677 35.7004 15.6284C35.7098 15.7891 35.7004 15.8742 35.672 15.808C35.6436 15.7229 35.6058 15.7229 35.4924 15.8269C35.4167 15.912 35.3505 16.016 35.3505 16.0633C35.3505 16.12 35.256 16.2335 34.9062 16.4887L34.8684 19.0226C34.84 21.2255 34.8495 21.5469 34.9724 21.5469C35.0575 21.5469 35.1615 21.5942 35.2087 21.6415C35.2655 21.6887 35.5396 21.7644 35.8233 21.8117C36.2865 21.8778 36.3527 21.9157 36.3811 22.1237C36.4189 22.3317 36.4 22.3506 36.1731 22.2844C36.0029 22.2371 35.9084 22.256 35.8895 22.3317C35.8611 22.4262 35.8138 22.4262 35.672 22.3317C35.5775 22.2655 35.4356 22.1898 35.3505 22.1615C35.2749 22.1331 35.1425 22.0669 35.048 22.0197C34.9156 21.9535 34.8684 21.9724 34.8305 22.1142C34.8116 22.2182 34.7265 22.3033 34.6415 22.3033C34.5658 22.3033 34.4429 22.2466 34.3578 22.1615C34.2822 22.0858 34.1876 21.9062 34.1498 21.7644C34.112 21.6226 34.1025 19.6749 34.1215 17.4437C34.1687 14.0495 34.1971 13.4255 34.2916 13.6146C34.3956 13.7942 34.4145 14.664 34.3862 17.6706C34.3673 19.7789 34.32 21.6037 34.2822 21.7171C34.2255 21.9062 34.2538 21.9251 34.4996 21.9251C34.6604 21.9251 34.7927 21.8967 34.7927 21.8589C34.7927 21.8211 34.7455 21.7455 34.6982 21.6887C34.6415 21.632 34.6036 20.0531 34.6036 17.4815C34.5942 15.2218 34.6036 13.3404 34.6036 13.2931C34.6131 13.2553 34.6887 13.2364 34.7738 13.2458V13.2458ZM17.7745 13.3215C17.8218 13.3215 17.8596 13.3687 17.8596 13.416C17.8596 13.4727 17.8029 13.5389 17.7178 13.5578C17.6422 13.5862 17.576 13.6807 17.576 13.7753C17.576 13.8698 17.6422 14.0022 17.7178 14.0778C17.8029 14.1629 17.8691 14.2764 17.8691 14.3426C17.8691 14.4087 17.7935 14.6167 17.6989 14.8153C17.6044 15.0138 17.5004 15.184 17.4625 15.1935C17.4247 15.2029 17.4531 15.2786 17.5287 15.3542C17.6138 15.4393 17.7084 15.5055 17.7462 15.5055C17.784 15.5055 17.7651 15.4582 17.7084 15.3826C17.6233 15.288 17.6516 15.2597 17.8502 15.2597C18.0771 15.2597 18.096 15.2313 18.096 14.9287C18.0865 14.7491 18.096 14.7018 18.1149 14.8153C18.1433 14.9855 18.2095 15.0327 18.5025 15.0422C18.7011 15.0422 19.0131 15.0517 19.2116 15.0611C19.4102 15.0706 19.5615 15.0422 19.5615 15.0044C19.5615 14.9666 19.6276 14.9287 19.7033 14.9287C19.7884 14.9287 19.8451 14.872 19.8451 14.7869C19.8451 14.7113 19.7884 14.6451 19.7033 14.6451C19.6276 14.6451 19.5615 14.5884 19.5615 14.5033C19.5615 14.4277 19.6276 14.3615 19.7033 14.3615C19.7884 14.3615 19.8451 14.4277 19.8451 14.5033C19.8451 14.5884 19.9585 14.6735 20.0815 14.6924C20.2138 14.7207 20.3178 14.8058 20.3178 14.8815C20.3178 14.976 20.4124 15.0233 20.5825 15.0233C20.7338 15.0233 20.9324 14.9193 21.0553 14.7869C21.2065 14.6262 21.32 14.5789 21.4335 14.6262C21.5658 14.6829 21.5753 14.664 21.4996 14.5506C21.4335 14.456 21.4429 14.4371 21.528 14.4844C21.5942 14.5222 21.632 14.5884 21.6131 14.6262C21.5942 14.664 21.5564 14.7775 21.4524 15.0706L21.3011 14.8815C21.1876 14.7302 21.1687 14.7302 21.216 14.8626C21.2444 14.9571 21.2255 15.0233 21.1687 15.0233C21.1215 15.0233 21.0458 15.0422 21.008 15.0517C20.9702 15.0706 20.8378 15.1367 20.7244 15.1935C20.6015 15.2597 20.0436 15.3258 19.3724 15.3353C18.5404 15.3542 18.2378 15.392 18.2378 15.4771C18.2378 15.5433 18.3513 15.6378 18.4742 15.6851C18.6065 15.7418 18.8429 15.7797 18.9942 15.7797C19.2211 15.7797 19.2778 15.8269 19.2778 15.9687C19.2778 16.0822 19.2211 16.1578 19.136 16.1578C19.0604 16.1578 19.0225 16.2051 19.0415 16.2524C19.0698 16.3091 19.032 16.328 18.9469 16.2997C18.8713 16.2807 18.8051 16.1957 18.8051 16.1106C18.8051 16.0349 18.6633 15.9309 18.4553 15.8837C18.2567 15.8269 17.9825 15.7891 17.8407 15.7891C17.6989 15.7891 17.6044 15.7418 17.6233 15.6851C17.6516 15.6378 17.6233 15.5906 17.5571 15.5811C17.4909 15.5811 17.4058 15.5811 17.368 15.5811C17.3302 15.5906 17.3207 15.5527 17.3396 15.496C17.368 15.4487 17.3207 15.4015 17.2262 15.4109C17.1222 15.4109 17.056 15.3258 17.0371 15.1746C17.0276 15.0422 16.9709 14.8437 16.9142 14.7397C16.8669 14.6357 16.848 14.4655 16.8669 14.3615C16.8953 14.2575 16.9615 14.2007 17.0087 14.2197C17.0655 14.248 17.1127 14.2197 17.1222 14.1535C17.1222 14.0873 17.1222 14.0022 17.1222 13.9644C17.1127 13.9266 17.16 13.8226 17.2262 13.728C17.2924 13.6335 17.3869 13.5484 17.4436 13.5295C17.5004 13.5106 17.576 13.4633 17.6138 13.416C17.6516 13.3687 17.7273 13.3215 17.7745 13.3215V13.3215ZM30.3207 13.3215C30.4153 13.3215 30.4436 14.1724 30.4436 17.2451C30.4436 20.3462 30.4625 21.1687 30.5571 21.1404C30.6516 21.1215 30.68 20.2327 30.6989 17.2167C30.7273 13.4066 30.7273 13.3215 30.9164 13.3215C31.0298 13.3215 31.1149 13.4066 31.1527 13.5389C31.1811 13.6524 31.1905 15.4109 31.1716 17.4342C31.1527 20.28 31.1244 21.1215 31.0298 21.1404C30.9353 21.1687 30.9069 20.3651 30.8596 13.6524L30.8407 17.5571C30.8218 20.9797 30.8029 21.4524 30.68 21.4051C30.5949 21.3862 30.3396 21.3578 30.1127 21.3578C29.7913 21.3578 29.6873 21.3295 29.6873 21.216C29.6873 21.1309 29.7724 21.0742 30.16 21.0742L30.1789 18.7862C30.1978 17.0844 30.1695 16.4698 30.0844 16.3942C30.0276 16.3469 29.9709 16.2051 29.9709 16.0917C29.9709 15.9782 30.0276 15.8175 30.1127 15.7324C30.2167 15.6284 30.2451 15.3637 30.2262 14.456C30.2073 13.6051 30.2356 13.3215 30.3207 13.3215V13.3215ZM25.9905 15.4487C26.0662 15.5717 26.2836 15.8175 26.4727 15.9971C26.6524 16.1673 26.8793 16.3564 26.9927 16.4131C27.0967 16.4698 27.144 16.5644 27.1062 16.6211C27.0684 16.6778 26.9076 16.7251 26.7564 16.7251C26.5389 16.7251 26.4727 16.6873 26.4916 16.5738C26.5105 16.4698 26.4255 16.3942 26.2836 16.3564C26.1229 16.3186 26.0378 16.224 26.0189 16.0917C26.0095 15.9687 25.9338 15.8553 25.8582 15.8269C25.7731 15.808 25.7069 15.6851 25.6975 15.5622C25.688 15.4393 25.7164 15.3164 25.7636 15.2786C25.8015 15.2407 25.9055 15.3164 25.9905 15.4487V15.4487ZM28.2596 15.5149C28.8175 15.5338 29.1673 15.5811 29.1295 15.6378C29.0916 15.6851 29.1673 15.6946 29.3091 15.6567C29.432 15.6284 29.4887 15.6189 29.4225 15.6473C29.3564 15.6662 29.3091 15.7324 29.3091 15.7797C29.3091 15.8364 29.3564 15.8458 29.4225 15.8175C29.5171 15.7607 29.5171 15.7797 29.4225 15.912C29.328 16.0349 29.328 16.0727 29.4225 16.1011C29.4887 16.1295 29.4604 16.1673 29.3564 16.2146C29.2429 16.2524 29.0538 16.2524 28.9309 16.2146C28.7891 16.1767 28.7324 16.12 28.7891 16.0822C28.8458 16.0538 28.8836 15.9309 28.8836 15.808C28.8836 15.6851 28.8458 15.6378 28.7891 15.6946C28.7418 15.7418 28.392 15.7797 28.0044 15.7797C27.456 15.7797 27.3236 15.8175 27.3236 15.9215C27.3236 16.0066 27.2764 16.0917 27.2291 16.1106C27.1724 16.1389 27.0684 16.1389 26.9927 16.1106C26.9076 16.0917 26.8509 16.0066 26.8509 15.9215C26.8509 15.8458 26.9549 15.7607 27.0873 15.7324C27.2102 15.7135 27.3236 15.6473 27.3236 15.5906C27.3236 15.5244 27.6545 15.5055 28.2596 15.5149V15.5149ZM36.9673 15.496C37.3833 15.496 37.7236 15.5433 37.7331 15.5906C37.7425 15.6378 37.8371 15.6946 37.9411 15.704C38.1113 15.7324 38.1491 15.808 38.168 16.2335C38.1775 16.5171 38.1491 16.7251 38.1018 16.7251C38.0451 16.7251 38.0073 16.6022 38.0073 16.4604C38.0073 16.2997 37.9505 16.1578 37.8749 16.1295C37.7898 16.1011 37.7236 16.0066 37.7236 15.9309C37.7236 15.808 37.5818 15.7797 36.9767 15.7797C36.5702 15.7797 36.2109 15.808 36.1731 15.8269C36.1447 15.8553 36.1825 15.9687 36.2771 16.0727C36.4189 16.224 36.5607 16.2618 37.128 16.2618C37.5535 16.2618 37.7993 16.2902 37.7709 16.3469C37.7425 16.4037 37.4211 16.4415 37.0618 16.4415C36.5513 16.4415 36.3811 16.4793 36.3527 16.5833C36.3149 16.6873 36.1636 16.7251 35.8327 16.7251C35.4735 16.7251 35.36 16.6967 35.36 16.5833C35.36 16.4887 35.4545 16.4509 35.7098 16.4604C35.9084 16.4698 36.1353 16.4698 36.2298 16.4604C36.3244 16.4509 36.4 16.4037 36.4 16.3469C36.4 16.2997 36.2298 16.2524 36.0218 16.2524C35.8138 16.2524 35.6436 16.2146 35.6436 16.1578C35.6436 16.1106 35.7193 16.0444 35.8327 16.016C35.984 15.9782 35.9935 15.9498 35.8989 15.8269C35.7949 15.6946 35.8044 15.6851 35.9462 15.7324C36.0502 15.7607 36.1353 15.7324 36.1636 15.6378C36.2109 15.5338 36.3905 15.496 36.9673 15.496V15.496ZM38.8676 15.6851C38.9149 15.6851 38.9905 15.8364 39.0473 16.016C39.0945 16.2051 39.208 16.3847 39.3025 16.432C39.3971 16.4793 39.4349 16.5644 39.3971 16.6211C39.3593 16.6778 39.2458 16.7251 39.1418 16.7251C39 16.7251 38.9527 16.6684 38.9527 16.4887C38.9527 16.3658 38.9055 16.2524 38.8582 16.2524C38.8015 16.2524 38.7353 16.3658 38.7164 16.4887C38.688 16.6211 38.6029 16.7251 38.5273 16.7251C38.4327 16.7251 38.376 16.6211 38.3665 16.432C38.3476 16.224 38.4138 16.0633 38.5651 15.912C38.688 15.7891 38.8298 15.6851 38.8676 15.6851ZM24.9789 15.7891C25.0735 15.7891 25.1964 15.8458 25.2625 15.9215C25.3571 16.0255 25.4044 16.0349 25.4989 15.9404C25.5651 15.8837 25.6502 15.8647 25.688 15.9026C25.7258 15.9404 25.688 16.1295 25.6029 16.328C25.5178 16.5266 25.3949 16.6778 25.3193 16.6778C25.2436 16.6778 25.1964 16.5738 25.1964 16.3847C25.1964 16.224 25.1585 16.1011 25.1207 16.12C25.0829 16.1484 25.0545 16.1011 25.0545 16.016C25.0545 15.9404 24.9978 15.8647 24.9316 15.8364C24.8655 15.8175 24.8844 15.7986 24.9789 15.7891V15.7891ZM13.9644 16.3847C13.9927 16.4415 14.0684 16.5455 14.144 16.6117C14.2385 16.6967 14.248 16.7818 14.1818 16.9142C14.1251 17.0182 14.1062 17.1411 14.1345 17.1789C14.1629 17.2167 14.2291 17.2073 14.2764 17.1506C14.3425 17.0938 14.4844 17.16 14.7018 17.368C14.8815 17.5382 15.0705 17.6706 15.1273 17.6706C15.1745 17.6706 15.1935 17.7273 15.1651 17.7935C15.1367 17.8691 15.2029 17.9069 15.3258 17.9069C15.4393 17.9069 15.5527 17.9731 15.5811 18.0487C15.6189 18.1811 15.6095 18.1811 15.4676 18.0487C15.3825 17.9731 15.2785 17.9447 15.2407 17.9826C15.2029 18.0204 15.0611 17.9826 14.9382 17.8975C14.7396 17.7746 14.6829 17.7746 14.6262 17.8786C14.5884 17.9447 14.56 18.0393 14.56 18.0771C14.56 18.1149 14.6451 18.1717 14.7491 18.1906C14.8531 18.2189 15.0233 18.2 15.1273 18.1433C15.2313 18.096 15.3353 18.0487 15.3636 18.0487C15.3825 18.0487 15.4298 18.1338 15.4582 18.2378C15.496 18.3986 15.5433 18.4175 15.7796 18.3607C16.016 18.304 16.1011 18.3324 16.2524 18.5026C16.3564 18.616 16.4509 18.7389 16.4509 18.7578C16.4509 18.7862 16.3658 18.7862 16.2618 18.7578C16.1484 18.7389 16.0916 18.7578 16.12 18.8051C16.1389 18.8618 16.1295 18.8997 16.0916 18.8997C16.0538 18.8997 15.912 18.8335 15.7891 18.7578C15.6567 18.6917 15.4487 18.6255 15.3353 18.6255C15.2218 18.6255 15.0895 18.5687 15.0516 18.5026C15.0138 18.4364 14.9098 18.3702 14.8153 18.3607C14.7207 18.3418 14.5222 18.3324 14.3709 18.3324C14.1629 18.3324 14.0873 18.2946 14.0873 18.1717C14.0873 18.0771 14.1913 17.9164 14.3331 17.8124C14.4844 17.6989 14.56 17.5571 14.5316 17.4342C14.5033 17.2735 14.456 17.2924 14.144 17.6233C13.9549 17.8313 13.7942 18.0771 13.7942 18.1717C13.7942 18.2757 13.7469 18.3229 13.6618 18.2851C13.5767 18.2662 13.52 18.1811 13.52 18.096C13.52 18.0204 13.5767 17.9353 13.6618 17.9069C13.7375 17.888 13.8036 17.7746 13.8036 17.6706C13.8036 17.5666 13.8509 17.472 13.9171 17.4531C13.9833 17.4342 14.0022 17.3775 13.9644 17.3302C13.9265 17.2829 13.832 17.3018 13.7564 17.368C13.6618 17.4437 13.5956 17.4531 13.5673 17.3869C13.5389 17.3397 13.624 17.1789 13.7564 17.0371C13.8887 16.8953 13.9927 16.744 13.9927 16.7062C13.9927 16.6684 13.9076 16.6306 13.8036 16.6306C13.6996 16.6306 13.6051 16.5927 13.5956 16.5455C13.5862 16.4982 13.6524 16.4131 13.7564 16.3658C13.8793 16.2997 13.936 16.2997 13.9644 16.3847V16.3847ZM27.9382 16.2524C28.4393 16.2524 28.6378 16.2902 28.6378 16.3753C28.6378 16.4698 28.7985 16.4793 29.2996 16.4226C29.9047 16.3564 29.9615 16.3658 29.9425 16.5171C29.9236 16.6495 29.8007 16.6873 29.2807 16.7062C28.7702 16.7251 28.6473 16.7062 28.6473 16.5833C28.6473 16.4698 28.5055 16.4415 27.9382 16.4415C27.5222 16.4415 27.2291 16.4037 27.2291 16.3469C27.2291 16.2997 27.5222 16.2524 27.9382 16.2524ZM24.5345 16.3469C24.5535 16.3469 24.648 16.3753 24.7425 16.4131C24.8276 16.4415 24.8938 16.5266 24.8844 16.6022C24.8749 16.6684 24.7804 16.7251 24.6764 16.7251C24.5629 16.7251 24.4589 16.6873 24.44 16.6306C24.4116 16.5833 24.4116 16.4982 24.44 16.4415C24.4684 16.3942 24.5156 16.3469 24.5345 16.3469ZM24.6764 18.0487C24.8182 18.0487 24.8465 18.096 24.8182 18.2378C24.7898 18.3418 24.8087 18.4269 24.8655 18.4269C24.9127 18.4269 24.9316 18.4742 24.9127 18.5215C24.8844 18.5782 24.7804 18.512 24.6764 18.3797C24.5629 18.2567 24.4873 18.1244 24.4873 18.096C24.4873 18.0771 24.5629 18.0487 24.6764 18.0487ZM25.3855 18.0487C25.4705 18.0487 25.5273 18.1433 25.5273 18.2851C25.5273 18.4269 25.5935 18.5498 25.688 18.5782C25.8393 18.6349 25.8393 18.6444 25.688 18.7484C25.6029 18.8051 25.5273 18.9753 25.5273 19.1171C25.5273 19.2873 25.5745 19.3724 25.6691 19.3724C25.7447 19.3724 25.8109 19.4575 25.8109 19.5615C25.8109 19.6749 25.7447 19.7506 25.6691 19.7506C25.584 19.7506 25.5084 19.656 25.4989 19.5426C25.4895 19.4291 25.4138 19.3251 25.3382 19.3251C25.2531 19.3157 25.1302 19.3062 25.0545 19.2967C24.96 19.2873 24.9127 19.1833 24.9127 19.0037C24.9127 18.8524 24.9411 18.7578 24.9884 18.7957C25.0356 18.8335 25.1113 18.7957 25.1491 18.7106C25.1964 18.6349 25.2342 18.4553 25.2342 18.3135C25.2342 18.1433 25.2909 18.0487 25.3855 18.0487ZM13.7658 18.8807C13.7847 18.9469 13.8415 18.9942 13.8982 18.9942C13.9455 18.9942 13.9738 18.9658 13.9549 18.928C13.9265 18.8902 14.0589 18.8713 14.2385 18.8807C14.4749 18.8997 14.5411 18.9375 14.5127 19.0415C14.4844 19.1266 14.3615 19.1833 14.248 19.1833C14.1345 19.1738 13.9265 19.136 13.8036 19.1644C13.8036 19.1455 13.7658 19.1266 13.7091 19.0982C13.6051 19.0415 13.5862 18.9753 13.6524 18.8902C13.7185 18.7957 13.7469 18.7862 13.7658 18.8807V18.8807ZM13.7091 19.2306C13.7469 19.2117 13.7753 19.2211 13.7847 19.2306C13.6713 19.2589 13.624 19.2589 13.7091 19.2306ZM13.7847 19.2306C13.791 19.2306 13.7973 19.2306 13.8036 19.2306C13.7973 19.2369 13.791 19.2369 13.7847 19.2306ZM17.4625 18.9091C17.7935 18.9091 18.0582 18.9469 18.0582 18.9942C18.0582 19.0509 17.9353 19.1077 17.7935 19.1171C17.6422 19.1266 17.5476 19.1927 17.5571 19.2589C17.576 19.344 17.4531 19.3629 17.1127 19.3251C16.848 19.3062 16.6305 19.3157 16.6305 19.3535C16.6305 19.3913 16.8007 19.5047 16.9993 19.6087C17.2514 19.7348 17.3554 19.842 17.3113 19.9302C17.2735 20.0058 17.3207 20.0626 17.4625 20.0909C17.5855 20.1193 17.68 20.2044 17.68 20.2989C17.68 20.3935 17.5949 20.5164 17.4909 20.5826C17.3869 20.6487 17.3018 20.7433 17.3018 20.7906C17.3018 20.8473 17.4436 20.9513 17.6327 21.0269C17.8124 21.112 17.9353 21.216 17.9164 21.2633C17.888 21.32 17.7651 21.3484 17.6327 21.3389C17.5098 21.3295 17.3491 21.2538 17.2829 21.1877C17.1884 21.0837 17.1884 21.0647 17.2735 21.112C17.3396 21.1498 17.3869 21.1404 17.3869 21.1026C17.3869 21.0647 17.2924 20.9324 17.1789 20.8095C17.0339 20.6645 16.9993 20.57 17.0749 20.5258C17.1316 20.4975 17.2073 20.3651 17.2356 20.2517C17.2829 20.0815 17.2545 20.0342 17.1127 20.0342C17.0087 20.0342 16.8858 19.9869 16.848 19.9207C16.8102 19.8546 16.6967 19.7978 16.5927 19.7978C16.4887 19.7978 16.4131 19.7506 16.4225 19.6844C16.432 19.6182 16.4036 19.5142 16.3564 19.448C16.3091 19.3818 16.2996 19.2873 16.3375 19.2306C16.3658 19.1833 16.5076 19.0887 16.64 19.0226C16.7629 18.9658 17.1411 18.9186 17.4625 18.9091V18.9091ZM18.8807 18.9091C19.0131 18.9091 19.1076 18.9753 19.1455 19.0887C19.1644 19.1927 19.136 19.3157 19.0698 19.3629C19.0036 19.4007 18.7862 19.4858 18.5782 19.552C18.3702 19.6087 18.096 19.656 17.9825 19.656C17.8691 19.656 17.7745 19.6182 17.7745 19.5615C17.7745 19.5142 17.8596 19.4669 17.9636 19.4669C18.0676 19.4669 18.1433 19.4197 18.1338 19.3535C18.1244 19.2873 18.2378 19.1549 18.3891 19.0698C18.5404 18.9847 18.7673 18.9091 18.8807 18.9091V18.9091ZM15.4771 19.0887C15.7229 19.0887 15.9025 19.1455 15.9309 19.2211C15.9782 19.3062 15.9025 19.344 15.6567 19.3346C15.4676 19.3346 15.2691 19.2778 15.2029 19.2117C15.0989 19.1171 15.1556 19.0887 15.4771 19.0887V19.0887ZM20.1382 19.3913C20.2611 19.3818 20.4218 19.4291 20.488 19.4953C20.5825 19.5898 20.6487 19.5898 20.8 19.4953C20.9418 19.4007 20.9702 19.4007 20.9135 19.4953C20.8662 19.5709 20.8945 19.5898 21.008 19.5426C21.1309 19.4858 21.1593 19.5047 21.1309 19.6087C21.0836 19.7317 20.8851 19.7506 20.1098 19.7506C19.5804 19.7506 19.0793 19.7127 19.0036 19.6655C18.8902 19.5993 18.9185 19.5709 19.1265 19.5426C19.2684 19.5237 19.5047 19.4858 19.6465 19.4575C19.7789 19.4291 20.0058 19.4007 20.1382 19.3913V19.3913ZM25.3004 19.5898C25.3193 19.6844 25.4422 19.7978 25.5745 19.8451C25.7825 19.9397 25.8109 19.9964 25.8109 20.5069C25.8109 20.8189 25.7636 21.1026 25.7164 21.1215C25.6533 21.153 25.6533 21.2727 25.7164 21.4807C25.7636 21.6509 25.8109 22.0575 25.8109 22.3789C25.8109 22.9084 25.7825 22.9651 25.6218 22.9651C25.4958 22.9651 25.4327 22.9021 25.4327 22.776C25.4327 22.672 25.4705 22.568 25.5273 22.5397C25.5745 22.5207 25.6218 22.4357 25.6218 22.3506C25.6218 22.2749 25.5745 22.2371 25.5273 22.256C25.4705 22.2844 25.4327 22.152 25.4327 21.9251C25.4327 21.7077 25.4705 21.5753 25.5273 21.5942C25.584 21.632 25.5935 21.4902 25.5462 21.1971C25.5084 20.9513 25.48 20.592 25.48 20.4029C25.48 20.2138 25.4422 20.072 25.4044 20.0909C25.3665 20.1193 25.3098 20.072 25.2909 19.9869C25.2625 19.9113 25.2436 19.7506 25.2531 19.6371C25.2531 19.4858 25.272 19.4764 25.3004 19.5898ZM13.7185 19.7317C13.7658 19.7695 13.7847 20.8189 13.7753 22.0669C13.7564 23.7782 13.7185 24.336 13.6335 24.3549C13.5389 24.3833 13.5105 23.8727 13.5011 22.0858C13.4916 20.8189 13.52 19.76 13.5673 19.7222C13.6145 19.6844 13.6807 19.6938 13.7185 19.7317V19.7317ZM17.9636 19.8451C18.0676 19.8451 18.1716 19.9018 18.2095 19.968C18.2378 20.0342 18.2378 20.1666 18.2 20.2706C18.1433 20.4597 18.1244 20.4502 17.9542 20.2233C17.8596 20.1004 17.7745 19.9586 17.7745 19.9207C17.7745 19.8829 17.8596 19.8451 17.9636 19.8451ZM21.2255 19.9397C21.2444 19.9397 21.2444 20.0058 21.216 20.0815C21.1971 20.1666 21.216 20.2233 21.2727 20.2233C21.32 20.2233 21.3767 20.3557 21.3862 20.5164C21.3956 20.6677 21.3767 20.8662 21.3389 20.9418C21.3011 21.0175 21.2255 21.0742 21.1782 21.0742C21.1215 21.0742 21.0836 20.8851 21.0836 20.6487C21.0836 20.4218 21.1025 20.1666 21.1309 20.0815C21.1687 20.0058 21.2065 19.9397 21.2255 19.9397ZM22.1142 20.2233C22.2465 20.384 22.2938 20.5447 22.256 20.696C22.2182 20.8284 22.1804 20.9891 22.1615 21.0553C22.1331 21.1215 22.0385 21.1687 21.9345 21.1687C21.8305 21.1687 21.7455 21.216 21.7455 21.2633C21.7455 21.32 21.7833 21.3862 21.84 21.4051C21.8967 21.4429 21.8778 21.5658 21.7927 21.736C21.7076 21.8967 21.6036 22.0197 21.5564 22.0197C21.4996 22.0197 21.424 21.9629 21.3862 21.8873C21.3295 21.7738 21.216 21.7644 20.8473 21.8211C20.5825 21.8589 20.2895 21.8684 20.1855 21.8211C20.0815 21.7833 19.864 21.7549 19.7127 21.7549C19.552 21.7455 19.344 21.8117 19.24 21.8873C19.136 21.9629 18.9753 22.0291 18.8807 22.0291C18.7862 22.0291 18.7389 21.9724 18.7673 21.9062C18.7956 21.8306 18.6633 21.736 18.3796 21.6415C18.1433 21.5658 17.9542 21.4618 17.9731 21.4051C17.992 21.3578 18.0393 21.3295 18.0771 21.3389C18.1149 21.3484 18.1527 21.32 18.1527 21.2633C18.1527 21.216 18.0676 21.0837 17.9636 20.9797C17.8596 20.8757 17.7935 20.7527 17.8218 20.696C17.8407 20.6487 17.9258 20.6015 18.0109 20.6015C18.0865 20.6015 18.1433 20.696 18.1433 20.8189C18.1433 20.9576 18.2315 21.0647 18.408 21.1404C18.5498 21.2066 18.7673 21.3484 18.8807 21.4524C19.0036 21.5658 19.1738 21.6226 19.2873 21.5942C19.3913 21.5753 19.4764 21.5091 19.4764 21.4524C19.4764 21.4051 19.4196 21.3389 19.3535 21.3011C19.2778 21.2633 19.2715 21.216 19.3345 21.1593C19.3818 21.1026 19.5615 21.0931 19.7316 21.1215C19.9207 21.1498 20.0436 21.2255 20.0436 21.3106C20.0436 21.4146 20.1476 21.4524 20.4218 21.4524C20.6393 21.4524 20.8095 21.4051 20.8284 21.3389C20.8567 21.2444 20.904 21.2444 21.0647 21.3389C21.2349 21.4429 21.2916 21.4335 21.3956 21.2917C21.4713 21.1971 21.5658 20.9324 21.6036 20.696C21.6509 20.4691 21.6698 20.2327 21.6509 20.176C21.632 20.1287 21.6887 20.1193 21.7738 20.1571C21.8778 20.2044 21.9251 20.1855 21.9251 20.1098C21.9251 20.0437 22.0102 20.1004 22.1142 20.2233V20.2233ZM35.4545 21.0742C35.6058 21.0742 35.7571 21.1215 35.7855 21.1687C35.8044 21.2255 35.9462 21.2917 36.0975 21.32C36.2393 21.3484 36.3716 21.424 36.3811 21.4902C36.3905 21.5658 36.2771 21.5847 35.9935 21.5375C35.776 21.5091 35.4735 21.4335 35.3316 21.3767C35.1898 21.3106 35.0953 21.2255 35.1236 21.1687C35.152 21.1215 35.3033 21.0742 35.4545 21.0742V21.0742ZM29.0727 21.2727C29.12 21.2633 29.224 21.3295 29.3091 21.4051C29.432 21.5469 29.4036 21.5564 29.0444 21.5564C28.8269 21.5564 28.6284 21.5091 28.6189 21.4618C28.6095 21.4146 28.6851 21.3578 28.7891 21.3295C28.8931 21.3106 29.016 21.2822 29.0727 21.2727ZM29.4887 21.6415C29.5738 21.6415 29.7062 21.7266 29.8007 21.8306C29.8953 21.9346 30.0276 22.0007 30.1127 21.9724C30.1884 21.9535 30.2545 21.8684 30.2545 21.7833C30.2545 21.7077 30.2829 21.6509 30.3207 21.6509C30.3585 21.6509 30.4436 21.7644 30.5098 21.9062C30.576 22.048 30.5949 22.1898 30.5571 22.2277C30.5193 22.2655 30.3585 22.3033 30.2073 22.3222C30.0465 22.3411 29.8102 22.2749 29.6873 22.1898C29.5549 22.0953 29.3847 22.0197 29.3091 22.0291C29.1767 22.0291 29.1767 22.0386 29.3091 22.1047C29.4131 22.1709 29.3942 22.1993 29.2145 22.2466C29.0822 22.2749 28.9025 22.3033 28.808 22.3033C28.6945 22.3033 28.6473 22.2466 28.6662 22.0953C28.6851 21.9535 28.7513 21.8778 28.8931 21.8778C29.0065 21.8778 29.1484 21.8211 29.2145 21.7644C29.2902 21.6982 29.4036 21.6415 29.4887 21.6415V21.6415ZM31.0771 21.8022C31.1716 21.944 31.1716 21.9913 31.0771 22.048C31.0109 22.0858 30.9258 22.1142 30.888 22.1142C30.8502 22.1142 30.8124 22.0386 30.8029 21.944C30.7935 21.8495 30.8218 21.7455 30.8691 21.7077C30.9164 21.6698 31.0109 21.7077 31.0771 21.8022V21.8022ZM36.3149 22.4451C36.3716 22.4829 36.4095 22.9178 36.4095 23.5418C36.4 24.5062 36.3811 24.5724 36.2109 24.5724C36.0502 24.5724 36.0218 24.5346 36.0691 24.3171C36.1069 24.1375 36.088 24.0997 36.0313 24.1942C35.9651 24.3171 35.9367 24.2982 35.8895 24.0997C35.8516 23.9767 35.8327 23.6458 35.8327 23.3717C35.8327 23.0597 35.8705 22.8517 35.9556 22.8044C36.0218 22.7666 36.1069 22.6531 36.1447 22.5586C36.1825 22.464 36.2582 22.4167 36.3149 22.4451V22.4451ZM28.9498 22.4924C28.9876 22.4924 29.0444 22.5397 29.0727 22.5869C29.0916 22.6437 29.0727 22.7098 29.0255 22.7287C28.9687 22.7571 28.9309 23.1731 28.9309 23.6742C28.9309 24.4117 28.9025 24.5724 28.7891 24.5724C28.6662 24.5724 28.6378 24.4022 28.6284 23.6458C28.6095 22.9557 28.6378 22.6909 28.7418 22.6058C28.808 22.5491 28.9025 22.4924 28.9498 22.4924ZM25.1491 22.9746C25.2531 23.0786 25.3382 23.2771 25.3382 23.4189C25.3382 23.5607 25.2531 23.7593 25.1491 23.8633C25.0356 23.9673 24.9505 24.1091 24.9505 24.1753C24.9505 24.2415 24.8749 24.2887 24.7709 24.2887C24.6669 24.2887 24.5724 24.2604 24.5724 24.2226C24.5724 24.1847 24.6575 24.0618 24.7709 23.9578C24.8749 23.8538 24.96 23.6742 24.96 23.5607C24.96 23.4473 24.9033 23.3149 24.8371 23.2771C24.752 23.2298 24.7425 23.2582 24.7898 23.3717C24.8371 23.4851 24.8276 23.5229 24.7425 23.4851C24.6764 23.4567 24.544 23.5891 24.44 23.7782C24.336 23.9578 24.1753 24.128 24.0807 24.1564C23.9862 24.1753 23.92 24.2415 23.92 24.2887C23.92 24.3455 23.8727 24.3833 23.8255 24.3833C23.7687 24.3833 23.8349 24.2604 23.9673 24.0997C24.0902 23.9484 24.2036 23.7782 24.2036 23.7215C24.2036 23.6742 24.2509 23.6269 24.3171 23.6269C24.3833 23.6269 24.5535 23.4378 24.6953 23.2109C24.9505 22.7949 24.96 22.7949 25.1491 22.9746ZM25.6596 23.5702C25.7164 23.5891 25.7731 23.7309 25.7825 23.9011C25.8015 24.0902 25.7542 24.2226 25.6596 24.2698C25.584 24.3077 25.4705 24.2982 25.4233 24.2415C25.3665 24.1847 25.376 24.0429 25.4516 23.8444C25.5178 23.6742 25.6124 23.5513 25.6596 23.5702ZM16.744 23.8727C16.7913 23.8917 16.7724 23.9862 16.7062 24.0807C16.6022 24.232 16.6022 24.232 16.7535 24.0997C16.8953 23.9862 16.952 23.9862 17.0371 24.0807C17.1033 24.1469 17.1978 24.2037 17.2545 24.1942C17.3018 24.1942 17.2829 24.1564 17.2073 24.1091C17.0938 24.0429 17.1222 24.024 17.3113 24.0429C17.4531 24.0524 17.5476 24.0807 17.5287 24.0997C17.5193 24.128 17.5665 24.232 17.6422 24.336C17.7273 24.4589 17.8691 24.5251 18.0109 24.5062C18.1622 24.4936 18.241 24.5314 18.2473 24.6197C18.2473 24.7047 18.2945 24.7709 18.3607 24.7709C18.4427 24.7709 18.4364 24.7993 18.3418 24.856C18.2567 24.9127 18.096 24.9506 17.9825 24.9506C17.8596 24.9506 17.7745 25.0167 17.7745 25.0924C17.7745 25.1775 17.8313 25.2626 17.9164 25.2815C17.992 25.3098 18.1622 25.2626 18.2945 25.168C18.512 25.0167 18.5593 25.0167 19.0509 25.2815L18.7389 25.3098C18.5687 25.3193 18.4364 25.376 18.4364 25.4233C18.4364 25.48 18.6822 25.5084 19.0509 25.4989C19.5615 25.48 19.6655 25.4517 19.6655 25.3098C19.6655 25.2153 19.5898 25.1302 19.4953 25.1113C19.4007 25.0924 19.4291 25.0829 19.5425 25.0829C19.656 25.0924 19.7505 25.064 19.7505 25.0262C19.7505 24.9884 19.7978 24.9506 19.8545 24.9506C19.9018 24.9506 19.9207 24.9978 19.9018 25.0451C19.8735 25.1018 19.9491 25.168 20.0625 25.1964C20.176 25.2247 20.6771 25.2342 21.1782 25.2058C21.6698 25.1775 22.1615 25.1207 22.2655 25.0829C22.3695 25.0451 22.5018 24.96 22.568 24.8938C22.6625 24.7898 22.6625 24.7615 22.568 24.7237C22.5018 24.6953 22.5585 24.6953 22.6909 24.7331C22.8138 24.7615 22.9651 24.8277 23.0218 24.8749C23.0785 24.9222 23.0313 24.96 22.8989 24.96C22.7665 24.96 22.672 25.0262 22.6436 25.1397C22.5964 25.3098 22.5113 25.3382 21.9062 25.3382C21.4145 25.3477 21.2916 25.376 21.4618 25.4233C21.5847 25.4706 21.9156 25.5084 22.1898 25.5084C22.464 25.5178 22.6909 25.48 22.6909 25.4233C22.6909 25.376 22.776 25.3287 22.88 25.3287C22.984 25.3287 23.0691 25.376 23.0691 25.4233C23.0691 25.48 23.1731 25.5178 23.3055 25.5178C23.4284 25.5178 23.6269 25.4327 23.7309 25.3287C23.8349 25.2247 24.0051 25.1397 24.1091 25.1397C24.2352 25.1397 24.2982 25.2027 24.2982 25.3287C24.2982 25.4706 24.232 25.5178 24.0618 25.5178C23.9105 25.5178 23.8255 25.5746 23.8255 25.6597C23.8255 25.7542 23.7309 25.8015 23.5891 25.8015C23.4567 25.8015 23.2298 25.7637 23.088 25.7069C22.9084 25.6407 22.7949 25.6407 22.7382 25.7069C22.6909 25.7637 22.4451 25.8015 22.1898 25.8015C21.9156 25.8015 21.6887 25.7542 21.6036 25.6597C21.5185 25.584 21.2822 25.5178 21.0364 25.5178C20.7905 25.5178 20.592 25.48 20.5825 25.4138C20.5636 25.3287 20.5069 25.3287 20.3462 25.4138C20.2327 25.4706 20.0531 25.5178 19.9491 25.5178C19.8451 25.5178 19.7222 25.5935 19.6844 25.6691C19.6276 25.792 19.4858 25.8109 18.9753 25.792C18.6255 25.7731 18.3324 25.7258 18.3324 25.688C18.3324 25.6502 18.2662 25.6407 18.1716 25.6691C18.0771 25.6975 17.9447 25.6502 17.8691 25.5651C17.784 25.4895 17.6705 25.4233 17.6044 25.4233C17.5382 25.4233 17.4153 25.5178 17.3207 25.6218C17.2262 25.7258 17.0371 25.8109 16.8953 25.8109C16.7251 25.8109 16.64 25.7542 16.64 25.6597C16.64 25.5746 16.7251 25.5178 16.8764 25.5178C16.9993 25.5178 17.1316 25.4895 17.1505 25.4517C17.1789 25.4138 17.1411 25.2909 17.0655 25.1869C16.952 25.0262 16.9047 25.0167 16.6967 25.1207C16.536 25.1964 16.432 25.2058 16.4036 25.1397C16.3753 25.0924 16.4415 24.9411 16.7345 24.5724L16.9236 24.7615C17.0276 24.8655 17.1789 24.9411 17.2735 24.9317C17.3775 24.9127 17.4247 24.8371 17.4058 24.7142C17.3869 24.6102 17.3207 24.4967 17.264 24.4589C17.2073 24.4211 17.0182 24.4022 16.848 24.4306C16.5833 24.4778 16.5455 24.4495 16.5455 24.2887C16.5455 24.1847 16.5644 24.0429 16.6022 23.9673C16.6305 23.8822 16.6967 23.8444 16.744 23.8727V23.8727ZM24.128 24.4022C24.1847 24.4211 24.2415 24.4873 24.2604 24.5535C24.2793 24.6197 24.0996 24.7804 23.8727 24.9033C23.6364 25.0357 23.4473 25.1869 23.4473 25.2342C23.4473 25.2909 23.3622 25.3287 23.2582 25.3287C23.1447 25.3287 23.0691 25.272 23.0691 25.1869C23.0691 25.1113 23.1542 25.0262 23.2582 24.9978C23.3622 24.9789 23.4284 24.9033 23.4095 24.8371C23.3905 24.7709 23.296 24.7237 23.192 24.7331C23.0218 24.752 23.0313 24.7426 23.2109 24.6102C23.3149 24.5346 23.504 24.4967 23.6553 24.5251C23.7971 24.5535 23.9389 24.5346 23.9767 24.4778C24.0051 24.4211 24.0807 24.3928 24.128 24.4022V24.4022ZM13.6902 24.7993C13.832 24.8087 13.8509 24.856 13.8036 24.9978C13.7564 25.1018 13.6807 25.2058 13.624 25.2153C13.5673 25.2247 13.5105 25.1397 13.5105 25.0073C13.5011 24.8371 13.5484 24.7804 13.6902 24.7993V24.7993ZM29.1578 24.9222C29.2335 24.9506 29.2996 25.0357 29.2996 25.1113C29.2996 25.1775 29.4131 25.2815 29.5455 25.3287C29.7156 25.4044 29.8575 25.3949 30.0844 25.2909C30.3207 25.1869 30.9258 25.1491 34.9818 25.0924V25.4517C34.9818 25.6502 34.9345 25.8015 34.8873 25.8015C34.8305 25.8015 34.7455 25.7353 34.6982 25.6407C34.6225 25.4895 34.4145 25.4706 32.4764 25.4706C30.8313 25.4706 30.3491 25.4989 30.3491 25.5935C30.3491 25.6597 30.2924 25.7353 30.2262 25.7731C30.16 25.8109 30.0655 25.7637 30.0182 25.6786C29.952 25.5746 29.8102 25.5273 29.64 25.5368C29.4793 25.5462 29.1956 25.5462 28.9971 25.5368C28.7513 25.5273 28.6473 25.48 28.6473 25.376C28.6473 25.3004 28.6756 25.2437 28.7135 25.2531C28.7513 25.2531 28.8364 25.2531 28.9025 25.2531C28.9687 25.2437 28.9971 25.1964 28.9782 25.1397C28.9498 25.0924 28.9498 25.0073 28.9687 24.96C28.9971 24.9127 29.0822 24.8938 29.1578 24.9222V24.9222ZM36.1825 24.9317C36.3244 24.96 36.3716 25.064 36.3811 25.3004C36.3905 25.5651 36.3622 25.6029 36.2298 25.5651C36.1353 25.5367 36.0407 25.5084 36.0218 25.5084C35.9935 25.4989 35.9178 25.5084 35.8516 25.5084C35.7855 25.5178 35.7382 25.584 35.7382 25.6597C35.7382 25.7447 35.672 25.8015 35.5964 25.8015C35.5018 25.8015 35.4167 25.6597 35.36 25.4233C35.297 25.1712 35.297 25.0451 35.36 25.0451C35.4073 25.0451 35.5113 25.1113 35.5964 25.1869C35.672 25.272 35.7949 25.3287 35.88 25.3287C35.9556 25.3287 36.0124 25.2815 36.0029 25.2153C36.0029 25.1491 35.9935 25.0451 35.9935 24.9884C35.9935 24.9222 36.0785 24.9033 36.1825 24.9317ZM14.6735 25.0546C14.872 25.0546 15.0422 25.0924 15.0516 25.1491C15.0705 25.2058 15.184 25.1964 15.3731 25.1207C15.6378 25.0167 15.704 25.0262 15.8458 25.168C15.9404 25.2531 16.1389 25.3287 16.2807 25.3287C16.4225 25.3287 16.5455 25.376 16.5455 25.4233C16.5455 25.4895 16.1295 25.5178 15.4771 25.5178C14.6262 25.5178 14.3898 25.5462 14.2764 25.6597C14.1913 25.7447 14.0305 25.8109 13.9171 25.8109C13.8036 25.8109 13.6807 25.7637 13.6618 25.7069C13.6335 25.6597 13.6524 25.5557 13.6996 25.48C13.7469 25.3949 13.9076 25.3477 14.1062 25.3477C14.2764 25.3571 14.4655 25.3288 14.5127 25.3004C14.5695 25.2531 14.5411 25.1869 14.4655 25.1397C14.3615 25.0735 14.4182 25.0546 14.6735 25.0546V25.0546ZM25.4327 27.1251C25.48 27.1251 25.5273 27.4277 25.5273 27.7869C25.5273 28.3353 25.5556 28.4582 25.688 28.5055C25.8393 28.5622 25.8393 28.5717 25.688 28.6757C25.6029 28.7324 25.5273 28.8837 25.5273 28.9971C25.5273 29.1106 25.584 29.2335 25.6691 29.2524C25.7447 29.2807 25.8109 29.4131 25.8109 29.536C25.8109 29.6684 25.7447 29.8007 25.6691 29.8197C25.584 29.848 25.5273 29.952 25.5273 30.056C25.5273 30.16 25.4705 30.2735 25.4044 30.3113C25.3382 30.3397 25.2531 30.3302 25.2058 30.2829C25.168 30.2357 25.1775 30.1033 25.2342 29.9898C25.2909 29.8764 25.3382 29.64 25.3382 29.4698C25.3382 29.2997 25.3382 28.9309 25.3382 28.6378C25.3382 28.3542 25.2909 28.0611 25.2436 27.976C25.168 27.8626 25.1491 27.8815 25.1491 28.0517C25.1491 28.1651 25.0356 28.3826 24.6669 28.7797V28.3826C24.6669 28.1084 24.7142 27.9666 24.8182 27.9287C24.8938 27.9098 24.9316 27.8437 24.9127 27.7869C24.8844 27.7397 24.9411 27.7207 25.0545 27.7397C25.2058 27.7869 25.2436 27.7302 25.2909 27.456C25.3193 27.2764 25.3855 27.1251 25.4327 27.1251V27.1251ZM38.2436 27.1251C38.2625 27.1251 38.3382 27.1535 38.4044 27.1818C38.4895 27.2197 38.4989 27.3426 38.4516 27.6262C38.4233 27.8531 38.3855 28.184 38.3855 28.3826C38.3855 28.6567 38.4233 28.7513 38.5745 28.7797C38.6785 28.808 38.7447 28.8837 38.7258 28.9498C38.7069 29.016 38.6502 29.0727 38.6124 29.0917C38.5651 29.1011 38.4516 29.016 38.3665 28.9026C38.272 28.7702 38.2058 28.4677 38.1964 28.1178C38.1775 27.8058 38.1775 27.456 38.1775 27.3426C38.1869 27.2291 38.2153 27.1251 38.2436 27.1251ZM39.0473 27.3898C39.0851 27.4277 39.1607 27.8437 39.2175 28.3069C39.2742 28.7797 39.3215 29.4037 39.3215 29.7062C39.3215 30.0749 39.2931 30.2546 39.208 30.2546C39.1324 30.2546 39.0662 30.0466 39.0189 29.7062C38.9716 29.3186 38.9811 29.1295 39.0662 29.0349C39.1607 28.9309 39.1513 28.8931 39.0189 28.8175C38.8865 28.7513 38.8582 28.6189 38.8582 28.1651C38.8582 27.8531 38.8865 27.5411 38.9244 27.456C38.9622 27.3804 39.0189 27.3426 39.0473 27.3898V27.3898ZM13.6429 28.6662C13.7185 28.6946 13.7564 29.1862 13.7753 30.1884C13.7942 31.4553 13.7753 31.6633 13.6618 31.6633C13.5389 31.6633 13.52 31.4364 13.5295 30.1506C13.5389 29.0538 13.5673 28.6378 13.6429 28.6662V28.6662ZM25.1018 28.8647C25.1113 28.8742 25.0829 29.0444 25.0356 29.2429C24.9884 29.432 24.8938 29.6117 24.8182 29.6306C24.7331 29.6589 24.6764 29.6211 24.6764 29.536C24.6764 29.4604 24.6007 29.3753 24.5062 29.3469C24.3549 29.3091 24.3549 29.2808 24.4873 29.1295C24.5629 29.0255 24.6669 28.9593 24.7236 28.9782C24.7709 28.9971 24.8749 28.9687 24.9505 28.9215C25.0262 28.8837 25.0924 28.8553 25.1018 28.8647V28.8647ZM38.2909 29.7724C38.3382 29.7724 38.3855 29.8291 38.3855 29.8953C38.3855 29.9709 38.4138 29.9615 38.4705 29.8669C38.5273 29.7629 38.5556 29.7913 38.584 29.9898C38.6029 30.1411 38.6029 30.2735 38.5745 30.3018C38.5556 30.3207 38.4422 30.3397 38.3193 30.3397C38.1869 30.3397 38.1018 30.2924 38.1018 30.1978C38.1018 30.1222 38.1207 29.9993 38.1491 29.9142C38.1869 29.8386 38.2436 29.7724 38.2909 29.7724V29.7724ZM18.8713 29.9426C20.3178 29.9615 21.1687 30.0087 21.0836 30.056C20.9985 30.1033 20.904 30.1222 20.8662 30.1033C20.8284 30.0749 20.8 30.1695 20.8 30.2924C20.8 30.4437 20.6676 30.6611 20.4691 30.8597C20.28 31.0487 20.1476 31.2662 20.1571 31.3607C20.176 31.4553 20.2611 31.512 20.3462 31.5026C20.4407 31.4931 20.5164 31.512 20.5164 31.5498C20.5164 31.5877 20.4502 31.7484 20.3745 31.8997C20.2895 32.0604 20.2327 32.1266 20.2327 32.0415C20.2327 31.9469 20.2012 31.9312 20.1382 31.9942C20.0815 32.0509 19.9869 32.2967 19.9207 32.552C19.8545 32.7978 19.76 33.0058 19.7127 32.9964C19.656 32.9964 19.5993 32.8546 19.5804 32.6844C19.5709 32.5142 19.5804 32.2778 19.6087 32.1644C19.6371 32.0509 19.7033 31.9753 19.76 31.9942C19.8073 32.0226 19.8735 32.0037 19.9018 31.9469C19.9207 31.8997 19.8829 31.8335 19.8073 31.8051C19.7222 31.7862 19.6655 31.7106 19.6655 31.6444C19.6749 31.5498 19.6844 31.5498 19.7127 31.6444C19.7411 31.7106 19.8167 31.7578 19.9018 31.7578C19.9775 31.7578 20.0436 31.7011 20.0436 31.616C20.0436 31.5404 19.9869 31.4837 19.9207 31.4837C19.8356 31.4837 19.8167 31.3797 19.864 31.1244C19.8924 30.9258 19.9396 30.7084 19.9585 30.6233C19.9775 30.5477 19.9396 30.5004 19.8735 30.5098C19.8073 30.5193 19.6938 30.4815 19.6087 30.4153C19.4858 30.3113 19.4858 30.2829 19.6182 30.1978C19.7127 30.1411 19.2967 30.1033 16.7818 30.1127L16.6684 31.7106L16.6495 31.0298C16.64 30.6517 16.5927 30.3397 16.5455 30.3397C16.4887 30.3397 16.4415 30.264 16.432 30.1695C16.4225 30.0749 16.4415 29.9804 16.4698 29.9615C16.4982 29.9331 17.5855 29.9331 18.8713 29.9426V29.9426ZM24.6858 29.9898C24.7331 30.056 24.7615 30.16 24.7615 30.2262C24.7615 30.2924 24.6858 30.3397 24.5818 30.3397C24.4778 30.3397 24.3833 30.2924 24.3738 30.2168C24.3549 30.1506 24.4116 30.0466 24.4778 29.9898C24.5818 29.8953 24.6291 29.8953 24.6858 29.9898V29.9898ZM30.1127 30.1033C30.2735 30.2073 30.3018 30.3397 30.3113 31.1622C30.3302 32.0226 30.3207 32.0982 30.1505 32.1171C29.9804 32.136 29.9709 32.1266 30.1033 31.8807C30.1978 31.72 30.2451 31.3607 30.2451 30.9353C30.2451 30.5382 30.2073 30.2451 30.16 30.2451C30.1033 30.2451 30.0655 30.5571 30.0655 30.9826C30.0655 31.3891 30.0465 31.6917 30.0276 31.6633C30.0087 31.6444 29.9709 31.2473 29.952 30.8029C29.9236 29.9993 29.9236 29.9804 30.1127 30.1033V30.1033ZM32.4575 29.9615C33.8851 29.9615 34.6982 29.9993 34.6982 30.056C34.6982 30.1127 34.632 30.1506 34.5564 30.1506C34.4618 30.1506 34.4303 30.2136 34.4618 30.3397C34.4933 30.4657 34.4618 30.5287 34.3673 30.5287C34.2822 30.5287 34.2255 30.4531 34.2255 30.3397C34.2255 30.2357 34.1782 30.1506 34.1309 30.1506C34.0742 30.1506 34.0458 30.2546 34.0742 30.368C34.0931 30.4815 34.1593 30.7178 34.216 30.888C34.2916 31.1149 34.2916 31.1906 34.2065 31.1717C34.1404 31.1622 34.0458 31.2284 33.9891 31.3324C33.9324 31.4364 33.8378 31.5215 33.7716 31.5215C33.7055 31.5215 33.6015 31.5404 33.5353 31.5593C33.4691 31.5687 33.5164 31.6255 33.6298 31.6727C33.7433 31.72 33.8473 31.824 33.8473 31.8997C33.8473 31.9847 33.7622 32.0887 33.6582 32.136C33.5353 32.2022 33.4785 32.2967 33.5069 32.4007C33.5353 32.4953 33.5164 32.6277 33.4691 32.7033C33.4313 32.7884 33.3462 32.8167 33.2895 32.7789C33.2327 32.7411 33.1855 32.5993 33.1855 32.4669C33.1855 32.344 33.2422 32.2117 33.3273 32.1833C33.4029 32.1644 33.4691 32.0509 33.4691 31.9469C33.4691 31.8429 33.4029 31.7389 33.3273 31.7106C33.1949 31.6727 33.2044 31.6255 33.3462 31.3702C33.4407 31.2095 33.5731 31.0015 33.6582 30.9164C33.7527 30.8218 33.7905 30.6517 33.7716 30.4342C33.7433 30.2357 33.6865 30.1033 33.6015 30.1033C33.5258 30.1033 33.4691 30.1411 33.4691 30.1789C33.4691 30.2167 33.5069 30.264 33.5542 30.2735C33.6015 30.2829 33.5636 30.4058 33.2895 30.7651L33.1949 30.5287C33.1382 30.3586 33.1476 30.2735 33.2422 30.1978C33.3273 30.1411 32.8924 30.1033 31.8524 30.1033C31.0109 30.1033 30.3018 30.0749 30.2829 30.0371C30.2545 29.9993 31.2378 29.9615 32.4575 29.9615V29.9615ZM37.6953 30.7935C37.856 30.8313 37.8844 30.9258 37.9033 31.3702C37.9127 31.7484 37.8749 31.9469 37.7709 32.0415C37.6858 32.1266 37.6196 32.2589 37.6196 32.3535C37.6196 32.4669 37.5535 32.5142 37.3927 32.5142C37.1753 32.5142 37.1564 32.552 37.2131 32.7789C37.2415 32.9207 37.2698 33.1004 37.2793 33.1666C37.2887 33.2422 37.2415 33.3178 37.1753 33.3368C37.1091 33.3557 37.0524 33.2989 37.0429 33.2044C37.0335 33.0437 37.0335 33.0437 36.9956 33.2044C36.9767 33.2989 36.9011 33.3651 36.8255 33.3651C36.7404 33.3651 36.6836 33.3084 36.6836 33.2233C36.6836 33.1477 36.6647 33.0342 36.6458 32.968C36.6269 32.9018 36.6269 32.8829 36.6458 32.9207C36.6647 32.9586 36.7215 32.968 36.7782 32.9397C36.8255 32.9207 36.8633 32.7978 36.8633 32.6844C36.8633 32.5709 36.9484 32.3818 37.0618 32.2778C37.1658 32.1738 37.2509 32.136 37.2509 32.1833C37.2415 32.24 37.336 32.1927 37.44 32.0887C37.6291 31.928 37.6385 31.8429 37.5818 31.3229C37.5156 30.7746 37.5251 30.7462 37.6953 30.7935V30.7935ZM23.9862 30.9731C24.0618 30.992 24.0902 31.1244 24.0524 31.3607C24.024 31.6066 24.0335 31.6727 24.0996 31.5687C24.1753 31.4553 24.1847 31.4742 24.1753 31.6349C24.1564 31.7389 24.0996 31.8146 24.0335 31.7957C23.9673 31.7767 23.92 31.824 23.92 31.8997C23.92 31.9847 23.9578 32.0604 24.0051 32.0698C24.0524 32.0793 24.0618 32.2117 24.024 32.3535C23.9767 32.5426 23.92 32.5993 23.7971 32.5709C23.6742 32.5331 23.6364 32.5709 23.6364 32.7033C23.6364 32.8073 23.5796 32.8829 23.5229 32.8735C23.4662 32.864 23.4 32.7506 23.3811 32.6371C23.3622 32.5047 23.4 32.4102 23.4945 32.3724C23.5702 32.3535 23.6364 32.24 23.6364 32.136C23.6364 32.032 23.6836 31.8997 23.7498 31.8335C23.816 31.7673 23.8633 31.5404 23.8633 31.3229C23.8633 31.0582 23.9011 30.9448 23.9862 30.9731V30.9731ZM13.9171 32.0415C13.9833 32.1455 13.9738 32.2117 13.8793 32.2589C13.8131 32.2967 13.7942 32.3251 13.8509 32.3251C13.8982 32.3346 13.8793 32.3724 13.8036 32.4197C13.7185 32.4669 13.624 32.4858 13.5862 32.4669C13.5484 32.4386 13.5011 32.3251 13.4916 32.1927C13.4727 32.032 13.52 31.9564 13.6429 31.928C13.7469 31.9091 13.8604 31.9658 13.9171 32.0415V32.0415ZM15.5716 31.9469C15.6662 31.9469 15.808 32.0793 16.0727 32.5142H15.8364C15.704 32.5142 15.5433 32.4669 15.4771 32.4007C15.4109 32.3346 15.3636 32.2306 15.3825 32.1644C15.392 32.0982 15.4109 32.0226 15.4109 31.9942C15.4109 31.9753 15.4771 31.9469 15.5716 31.9469ZM28.6 31.9469C29.1011 31.9469 29.3469 31.9942 29.4509 32.0887C29.5265 32.1738 29.64 32.2022 29.7062 32.1644C29.7818 32.114 29.8007 32.136 29.7629 32.2306C29.7156 32.344 29.7724 32.3724 30.0276 32.3535C30.3396 32.3346 30.3491 32.3346 30.3491 33.0815H29.9425C29.6967 33.0815 29.4887 33.1382 29.4036 33.2233C29.3185 33.3084 29.1767 33.3746 29.0727 33.3746C28.9687 33.3746 28.8458 33.3462 28.808 33.2989C28.7702 33.2611 28.808 33.1855 28.8931 33.1287C28.9782 33.0815 29.0255 32.9869 28.9876 32.9207C28.9404 32.8357 28.8742 32.8262 28.7418 32.8924C28.6378 32.9491 28.2407 32.9775 27.872 32.968C27.4276 32.9491 27.1818 32.9018 27.1629 32.8262C27.1345 32.7411 27.3425 32.7033 27.9855 32.7033C28.7513 32.7033 28.8364 32.6938 28.8836 32.5142C28.9215 32.344 28.8836 32.3251 28.4109 32.3251C27.9476 32.3251 27.8909 32.3062 27.8909 32.136C27.8909 31.9658 27.9476 31.9469 28.6 31.9469V31.9469ZM27.4844 31.9564C27.4938 31.9564 27.5695 31.9753 27.6545 31.9942C27.7302 32.0226 27.768 32.1077 27.7491 32.1833C27.7207 32.2684 27.6356 32.3251 27.56 32.3251C27.4655 32.3251 27.4371 32.2873 27.4749 32.2117C27.5316 32.1171 27.5127 32.1171 27.3804 32.2117C27.2858 32.2873 27.2102 32.2967 27.1818 32.2306C27.1535 32.1833 27.2007 32.0982 27.2953 32.0509C27.3898 31.9942 27.4749 31.9564 27.4844 31.9564ZM14.6262 32.0509C14.6356 32.0509 14.7396 32.0887 14.8436 32.136C14.9476 32.1927 15.0327 32.2967 15.0327 32.3724C15.0327 32.4575 14.976 32.5142 14.9098 32.5142C14.8436 32.5142 14.7207 32.5993 14.6262 32.7033C14.5033 32.8451 14.3425 32.8924 14.04 32.8924C13.8036 32.8924 13.5862 32.8546 13.5673 32.7978C13.5389 32.7506 13.6335 32.7033 13.7753 32.7033C13.9171 32.7033 14.0967 32.6655 14.1818 32.6087C14.2575 32.5615 14.2858 32.5237 14.2385 32.5237C14.2007 32.5237 14.2669 32.4197 14.3804 32.2873C14.5033 32.1644 14.6167 32.0509 14.6262 32.0509ZM16.5833 32.4575C16.64 32.4764 16.6967 32.5804 16.7062 32.6938C16.7251 32.8546 16.6778 32.8924 16.4982 32.8924C16.3658 32.8924 16.2335 32.8451 16.1956 32.7789C16.1578 32.7127 16.2145 32.6087 16.3091 32.5426C16.4036 32.4764 16.5265 32.4386 16.5833 32.4575V32.4575ZM15.3164 32.6182C15.3353 32.6182 15.4582 32.6466 15.5716 32.6844C15.7702 32.7506 15.7702 32.76 15.6189 32.9207C15.5244 33.0153 15.4015 33.0909 15.3353 33.0909C15.2691 33.0909 15.1935 33.1477 15.1745 33.2233C15.1462 33.3084 15.0422 33.3651 14.9382 33.3651C14.8342 33.3651 14.7207 33.3273 14.7018 33.2706C14.6735 33.2233 14.7585 33.1382 14.8909 33.0815C15.0327 33.0247 15.0989 32.9491 15.0516 32.8829C15.0138 32.8262 15.0422 32.7411 15.1273 32.7033C15.2029 32.656 15.288 32.6182 15.3164 32.6182ZM37.8371 32.76C37.8844 32.7884 37.9222 32.9397 37.9222 33.0909C37.9127 33.2422 37.856 33.3746 37.7898 33.3746C37.7236 33.3746 37.6385 33.3462 37.6102 33.2989C37.5724 33.2611 37.5818 33.1098 37.6385 32.968C37.6953 32.8262 37.7804 32.7317 37.8371 32.76V32.76ZM23.0502 32.8924C23.1258 33.0247 23.1447 33.0247 23.1825 32.8924C23.2015 32.8073 23.2676 32.864 23.3527 33.0626C23.4284 33.2422 23.5607 33.3746 23.6553 33.3746C23.7498 33.3651 23.816 33.3178 23.816 33.2517C23.816 33.1855 23.9011 33.0437 24.1942 32.7506L24.2604 32.9397C24.2887 33.0437 24.2887 33.1855 24.2604 33.2517C24.2225 33.3178 24.1185 33.3651 24.0145 33.3651C23.8633 33.3651 23.8255 33.4313 23.8255 33.6298C23.8255 33.7717 23.7404 33.9891 23.6364 34.1026C23.5324 34.216 23.4284 34.32 23.4189 34.32C23.4095 34.32 23.2393 34.3389 23.0407 34.3673C22.7098 34.4051 22.6909 34.3957 22.7571 34.1971C22.7855 34.0837 22.8989 33.9135 22.9935 33.8189C23.1542 33.6582 23.1636 33.6677 23.2582 33.8662C23.3433 34.0553 23.3433 34.0364 23.3055 33.7717C23.2676 33.5447 23.2865 33.4786 23.3716 33.5164C23.4378 33.5542 23.4 33.4975 23.2865 33.4029C23.1731 33.3084 23.0596 33.1193 23.0218 32.9869C22.9745 32.8262 22.984 32.7978 23.0502 32.8924V32.8924ZM33.28 32.8924C33.3273 32.8924 33.3651 32.9491 33.3651 33.0153C33.3651 33.0815 33.3084 33.1949 33.2516 33.2706C33.1855 33.3557 33.0815 33.4313 33.0153 33.4407C32.9491 33.4502 32.9207 33.4029 32.9491 33.3178C32.968 33.2422 33.0342 33.176 33.0909 33.176C33.1382 33.176 33.1855 33.1193 33.1855 33.0342C33.1855 32.9586 33.2233 32.8924 33.28 32.8924ZM13.9455 33.0815C14.1251 33.0815 14.2764 33.1287 14.2764 33.176C14.2764 33.2327 14.2291 33.2989 14.1818 33.3178C14.1251 33.3462 13.9738 33.3462 13.8509 33.3178C13.7185 33.2989 13.6145 33.2327 13.6145 33.176C13.6145 33.1287 13.7564 33.0815 13.9455 33.0815ZM16.1011 33.1004C16.3185 33.1193 16.4982 33.176 16.4982 33.2233C16.4982 33.28 16.3091 33.3367 16.0916 33.3462C15.7796 33.3651 15.6945 33.3367 15.6945 33.2233C15.704 33.1098 15.7891 33.0815 16.1011 33.1004ZM18.7673 33.176C18.8524 33.176 18.9091 33.28 18.9091 33.4407C18.9091 33.5826 18.8429 33.7622 18.7578 33.8378C18.6349 33.9513 18.616 34.0742 18.6633 34.3578C18.7011 34.5658 18.7673 34.7644 18.824 34.7833C18.8902 34.8211 18.8902 34.9062 18.8145 35.048C18.7578 35.1615 18.7389 35.3128 18.7673 35.3789C18.7956 35.4451 18.7105 35.3695 18.5782 35.2087C18.3324 34.944 18.3324 34.8967 18.3985 34.2633C18.4364 33.904 18.5025 33.5069 18.5498 33.3935C18.5876 33.28 18.6916 33.176 18.7673 33.176ZM19.5709 33.176C19.6182 33.176 19.6844 33.2233 19.7127 33.2706C19.7316 33.3273 19.656 33.5258 19.5236 33.7244C19.4007 33.9229 19.2589 34.1971 19.2211 34.3389C19.1738 34.4902 19.0982 34.6226 19.0509 34.632C18.9942 34.6509 18.9469 34.4713 18.9375 34.2349C18.9185 33.8284 18.9375 33.7811 19.1927 33.6771C19.3724 33.6015 19.4764 33.488 19.4764 33.3651C19.4764 33.2611 19.5142 33.176 19.5709 33.176V33.176ZM31.8807 33.176C31.9469 33.176 32.032 33.2044 32.0698 33.2517C32.1076 33.2895 32.0982 33.3651 32.0509 33.4124C32.0036 33.4691 31.9564 33.7055 31.9375 33.9324C31.9185 34.2917 31.9375 34.3578 32.0698 34.3389C32.2022 34.32 32.2211 34.3673 32.1927 34.5469C32.1549 34.7171 32.1833 34.7833 32.2873 34.7833C32.3629 34.7833 32.4291 34.8684 32.4291 34.9724C32.4291 35.0764 32.3818 35.1898 32.3345 35.2087C32.2778 35.2371 32.24 35.2182 32.24 35.1615C32.24 35.1142 32.1455 35.0008 32.0415 34.9062C31.9185 34.7928 31.8145 34.528 31.7484 34.1215C31.6822 33.7906 31.6633 33.4407 31.7011 33.3462C31.7295 33.2517 31.8145 33.176 31.8807 33.176V33.176ZM32.4764 33.176C32.5425 33.176 32.5709 33.3178 32.5615 33.5353C32.5425 33.7338 32.5709 33.9324 32.6182 33.9797C32.6655 34.0364 32.6844 34.1498 32.6655 34.2444C32.6276 34.3767 32.5898 34.3862 32.4953 34.2917C32.4291 34.2255 32.3345 34.0458 32.2778 33.8851C32.2211 33.7055 32.2116 33.5353 32.2778 33.3935C32.3251 33.28 32.4102 33.176 32.4764 33.176ZM36.3716 33.9513C36.3811 33.9418 36.4 34.0458 36.4 34.1687C36.4 34.32 36.3433 34.4051 36.2582 34.4051C36.1542 34.4051 36.1353 34.3578 36.1825 34.2444C36.2298 34.1309 36.2204 34.1026 36.1353 34.1498C36.0691 34.1877 36.0029 34.1782 35.9935 34.1309C35.984 34.0837 36.0596 34.0269 36.1636 33.9986C36.2676 33.9797 36.3622 33.9513 36.3716 33.9513V33.9513ZM22.4545 34.5942C22.4735 34.5942 22.4829 34.6982 22.4545 34.8117C22.4356 34.9251 22.4735 35.0764 22.5491 35.1426C22.6531 35.2277 22.6625 35.3127 22.5964 35.4451C22.5396 35.5491 22.5018 35.7193 22.5018 35.8233C22.5018 35.9367 22.5585 36.0124 22.6436 36.0124C22.7382 36.0124 22.7855 36.1069 22.7855 36.296C22.7855 36.5135 22.7382 36.5797 22.6153 36.5608C22.5207 36.5418 22.464 36.4568 22.4735 36.3717C22.4829 36.2771 22.3884 36.0502 22.256 35.8517C22.1331 35.6531 22.0196 35.4357 22.0291 35.3506C22.0291 35.2277 22.0385 35.2277 22.1236 35.3506C22.1898 35.464 22.2087 35.4262 22.2087 35.1898C22.2087 35.0197 22.256 34.8778 22.3127 34.8778C22.36 34.8778 22.3978 34.8495 22.3884 34.8117C22.3884 34.7738 22.3884 34.7077 22.3884 34.6698C22.3978 34.632 22.4262 34.5942 22.4545 34.5942V34.5942ZM35.9651 34.7549C36.0407 34.7833 36.1069 34.8873 36.1069 34.9913C36.1069 35.0858 36.1731 35.1898 36.2582 35.2087C36.3338 35.2371 36.4 35.3695 36.4 35.4924C36.4 35.6247 36.3527 35.7571 36.3055 35.776C36.2487 35.8044 36.1636 35.7098 36.0124 35.3033L35.8705 35.5208C35.7949 35.6437 35.7665 35.7949 35.8044 35.88C35.8422 35.9651 35.9178 36.0218 35.9745 36.0029C36.0218 35.984 36.0785 36.0691 36.088 36.1826C36.0975 36.296 36.0691 36.3906 36.0218 36.3906C35.9651 36.3906 35.9273 36.5135 35.9273 36.6553C35.9273 36.7971 35.8422 37.0146 35.7382 37.128C35.6342 37.2415 35.5113 37.3455 35.4735 37.3455C35.4356 37.3549 35.2938 37.3738 35.1709 37.4022C35.0385 37.4211 34.8967 37.4968 34.8589 37.5535C34.8211 37.6197 34.8211 37.8182 34.8495 37.9978C34.8873 38.2531 34.8684 38.3477 34.7549 38.4044C34.6604 38.4422 34.6036 38.5935 34.6036 38.7542C34.6036 38.9244 34.6604 39.0757 34.7455 39.1135C34.8305 39.1513 34.8873 39.2647 34.8684 39.3687C34.8495 39.4822 34.7549 39.5673 34.6415 39.5673C34.5375 39.5673 34.4618 39.6146 34.4713 39.6618C34.4713 39.7091 34.5469 39.9833 34.6415 40.2669C34.7644 40.6924 34.7738 40.8058 34.6793 40.8531C34.5942 40.8909 34.4618 40.7397 34.2822 40.3804C34.0458 39.9171 34.0269 39.8131 34.1309 39.6051C34.1971 39.4822 34.2916 39.2837 34.3484 39.1702C34.4335 39 34.424 38.9055 34.2916 38.7164C34.1971 38.584 34.1309 38.4233 34.1309 38.3571C34.1309 38.2815 34.1593 38.272 34.1971 38.3287C34.2349 38.3855 34.32 38.4422 34.3862 38.4517C34.4524 38.4611 34.5091 38.4138 34.5091 38.3287C34.5091 38.2531 34.5375 38.2058 34.5753 38.2342C34.6131 38.2531 34.6604 38.1491 34.6698 37.9978C34.6793 37.8371 34.6509 37.7426 34.6036 37.7615C34.5469 37.7898 34.5091 37.7142 34.5091 37.6008C34.5091 37.4306 34.528 37.4117 34.6036 37.5251C34.6793 37.648 34.6887 37.648 34.6887 37.5062C34.6887 37.4117 34.736 37.336 34.7927 37.336C34.84 37.336 34.8873 37.2698 34.8873 37.1753C34.8873 37.0808 34.9629 36.9578 35.048 36.8917C35.1425 36.8349 35.2465 36.7782 35.2844 36.7782C35.3222 36.7782 35.3695 36.8255 35.3884 36.8917C35.4073 36.9578 35.3978 36.8822 35.3695 36.7215C35.3411 36.5229 35.3505 36.4662 35.4356 36.5135C35.4924 36.5513 35.5491 36.5607 35.5491 36.5324C35.5491 36.5135 35.4829 36.3622 35.4073 36.2015C35.3222 36.0502 35.2749 35.8706 35.3033 35.8044C35.3222 35.7382 35.3411 35.7571 35.3505 35.8517C35.3505 35.9462 35.3978 36.0407 35.4545 36.0597C35.5113 36.0975 35.5207 35.9651 35.4829 35.7098C35.4262 35.3317 35.4262 35.3222 35.5775 35.4451C35.672 35.5302 35.7476 35.5491 35.7476 35.4924C35.7571 35.4451 35.7476 35.36 35.7382 35.3033C35.7287 35.256 35.7476 35.0953 35.776 34.9629C35.8138 34.7864 35.8768 34.7171 35.9651 34.7549V34.7549ZM31.8807 35.0669C31.928 35.1993 31.9375 35.3884 31.9091 35.4924C31.8618 35.6437 31.8807 35.6626 31.9753 35.5775C32.0698 35.4924 32.0982 35.4924 32.0982 35.5964C32.0982 35.672 32.0604 35.7287 32.0225 35.7287C31.9847 35.7287 31.8902 35.8517 31.8145 35.9935C31.6822 36.2488 31.6727 36.2393 31.6727 35.7098C31.6727 35.4073 31.7011 35.0953 31.7295 35.0008C31.7862 34.8589 31.8051 34.8684 31.8807 35.0669V35.0669ZM18.1527 35.1615C18.2 35.1615 18.3324 35.3317 18.4364 35.5397C18.5404 35.7477 18.5876 35.9273 18.5498 35.9368C18.512 35.9368 18.4458 35.9368 18.408 35.9368C18.3702 35.9273 18.3607 36.0218 18.3891 36.1353C18.4364 36.2866 18.3985 36.2677 18.2473 36.0408C18.1433 35.8706 18.0582 35.6058 18.0582 35.4451C18.0582 35.2938 18.096 35.1615 18.1527 35.1615ZM21.736 35.9178C21.8211 36.0502 21.8305 36.0502 21.8305 35.9178C21.8305 35.8138 21.8684 35.8233 22.0291 35.9651C22.1331 36.0691 22.2182 36.192 22.2182 36.2298C22.2182 36.2677 22.1142 36.3149 22.0007 36.3244C21.84 36.3433 21.7927 36.4 21.8116 36.5608C21.8211 36.6742 21.7927 36.8538 21.7455 36.9578C21.6887 37.0618 21.5847 37.1469 21.5091 37.1469C21.4051 37.1469 21.3673 37.2604 21.3673 37.5251C21.3673 37.7331 21.32 37.9033 21.2727 37.9033C21.216 37.9033 21.1971 38.0073 21.2349 38.1208C21.2633 38.2342 21.2633 38.4517 21.2349 38.5935C21.1971 38.7353 21.1309 38.8487 21.0836 38.8487C21.0269 38.8487 20.9607 38.7637 20.9418 38.6597C20.9135 38.5557 20.8473 38.4989 20.8 38.5178C20.7433 38.5462 20.7244 38.5084 20.7527 38.4233C20.7716 38.3477 20.8473 38.3193 20.9135 38.3571C20.9891 38.4138 21.008 38.3571 20.9513 38.1397C20.904 37.9222 20.904 37.8938 20.9891 37.9978C21.0836 38.1302 21.0931 38.1302 21.0553 37.9978C21.0269 37.9222 20.9796 37.7615 20.9513 37.648C20.904 37.4968 20.9324 37.4306 21.0364 37.4306C21.112 37.4306 21.2444 37.2982 21.32 37.128C21.4051 36.9578 21.4524 36.7593 21.4335 36.6742C21.4051 36.5986 21.4618 36.4851 21.5658 36.4189C21.6887 36.3338 21.7265 36.2298 21.6887 36.0408C21.6509 35.8422 21.6604 35.8138 21.736 35.9178ZM17.1222 36.7593C17.3585 37.1847 17.3964 37.3266 17.3113 37.4589C17.2545 37.5535 17.2073 37.6669 17.2073 37.7142C17.2073 37.7709 17.2924 37.8087 17.3964 37.8087C17.5476 37.8087 17.576 37.7615 17.5382 37.5062C17.5098 37.336 17.5193 37.1469 17.5571 37.0902C17.5949 37.0335 17.7273 36.9578 17.8407 36.9295C17.9542 36.8917 18.0582 36.8822 18.0582 36.8917C18.0582 36.9011 17.9542 37.128 17.8313 37.3833C17.7084 37.648 17.576 37.96 17.5476 38.0735C17.5098 38.1869 17.4342 38.272 17.368 38.2531C17.3018 38.2342 17.1033 37.7993 16.9331 37.2887C16.7156 36.6364 16.6495 36.3244 16.7251 36.2866C16.7818 36.2487 16.952 36.4473 17.1222 36.7593ZM17.5855 36.2015C17.6989 36.2015 17.7745 36.2677 17.7745 36.3717C17.7745 36.4662 17.7273 36.5891 17.6516 36.6553C17.5855 36.7215 17.5004 36.7404 17.4625 36.7026C17.4153 36.6648 17.3869 36.5324 17.3869 36.4189C17.3869 36.2677 17.4531 36.2015 17.5855 36.2015V36.2015ZM30.6705 36.2015C30.7651 36.2015 30.8218 36.296 30.8218 36.4378C30.8218 36.5702 30.784 36.6931 30.7367 36.7026C30.6895 36.712 30.6233 36.8633 30.5949 37.0335C30.5476 37.2793 30.5571 37.336 30.68 37.2887C30.7556 37.2698 30.8124 37.1942 30.8124 37.128C30.8124 37.0618 30.8975 36.8917 31.0015 36.7498C31.1055 36.608 31.2 36.4284 31.2 36.3433C31.2 36.2677 31.2378 36.2015 31.2945 36.2015C31.3418 36.2015 31.4458 36.2677 31.5309 36.3433C31.6065 36.4284 31.6727 36.5513 31.6727 36.6269C31.6727 36.712 31.6255 36.7971 31.5782 36.816C31.5215 36.8444 31.4836 36.9484 31.4836 37.0524C31.4836 37.1564 31.4364 37.2226 31.3891 37.1942C31.3324 37.1753 31.2756 37.2037 31.2567 37.2698C31.2284 37.336 31.2189 37.2982 31.2284 37.1847C31.2378 37.0713 31.2662 36.9957 31.2945 37.0146C31.3135 37.0429 31.3891 36.9389 31.4553 36.7971C31.5215 36.6553 31.5498 36.5135 31.512 36.4851C31.4836 36.4662 31.4269 36.504 31.3985 36.5797C31.3702 36.6647 31.1811 36.9389 30.9731 37.1942C30.6516 37.6102 30.6233 37.6858 30.7556 37.7615C30.8313 37.8182 30.9069 37.9317 30.9069 38.0262C30.9069 38.1302 30.8407 38.1869 30.7273 38.1869C30.6138 38.1869 30.5098 38.1113 30.4909 37.9978C30.4625 37.8938 30.3775 37.8087 30.3018 37.8087C30.1978 37.8087 30.16 37.7047 30.16 37.4306C30.16 37.2226 30.2167 36.9389 30.2924 36.7971C30.368 36.6553 30.4531 36.4662 30.4815 36.3717C30.5098 36.2771 30.5949 36.2015 30.6705 36.2015V36.2015ZM22.2087 36.5797C22.2371 36.5797 22.3127 36.6931 22.3789 36.8444C22.4356 36.9862 22.5207 37.2509 22.5491 37.4306C22.5869 37.6386 22.5775 37.7898 22.5113 37.8371C22.4451 37.8844 22.3316 37.7426 22.2087 37.4589C22.1047 37.2131 22.0102 36.9389 22.0102 36.8633C22.0007 36.7782 22.0291 36.6837 22.0764 36.6458C22.1142 36.608 22.1709 36.5797 22.2087 36.5797V36.5797ZM16.7535 37.5629C16.8007 37.5818 16.8385 37.6669 16.8291 37.752C16.8291 37.8371 16.9331 38.064 17.0655 38.2626C17.1884 38.4611 17.3018 38.6786 17.2924 38.7542C17.2924 38.8866 17.2829 38.8866 17.2073 38.7542C17.1222 38.6313 17.1127 38.6313 17.0938 38.7542C17.0844 38.8393 17.0749 38.9717 17.0749 39.0662C17.0655 39.1513 17.0371 39.2269 17.0182 39.2269C16.9898 39.2269 16.8858 39.1324 16.8007 39.0189C16.7062 38.896 16.6305 38.7542 16.6305 38.688C16.6305 38.6218 16.6778 38.5651 16.7345 38.5651C16.7818 38.5651 16.8291 38.4611 16.8291 38.3287C16.8291 38.2058 16.7629 38.0735 16.6873 38.0451C16.6022 38.0262 16.536 37.9222 16.5265 37.8277C16.5171 37.7331 16.5455 37.6291 16.5927 37.5913C16.6305 37.5535 16.7062 37.544 16.7535 37.5629V37.5629ZM21.7927 37.5251C21.8684 37.5251 21.9345 37.6102 21.9345 37.7142C21.9345 37.8182 21.8778 37.9127 21.8116 37.9127C21.7455 37.9127 21.6604 37.8844 21.632 37.8371C21.5942 37.7993 21.5847 37.7142 21.6131 37.648C21.6415 37.5818 21.7265 37.5251 21.7927 37.5251ZM30.4815 38.3477C30.5855 38.4989 30.6895 38.6691 30.6989 38.7353C30.7084 38.8015 30.6705 38.8393 30.6044 38.8298C30.5382 38.8204 30.4342 38.7447 30.368 38.6597C30.264 38.5367 30.2545 38.5462 30.2924 38.688C30.3207 38.7826 30.3018 38.8487 30.2545 38.8487C30.1978 38.8487 30.1505 38.7069 30.1411 38.5368C30.1316 38.3666 30.16 38.1964 30.2073 38.1586C30.2545 38.1208 30.3775 38.2058 30.4815 38.3477ZM20.6487 38.9433C20.6771 38.9433 20.7716 38.9717 20.8662 39.0095C20.9513 39.0378 21.0175 39.1135 21.008 39.1702C20.9985 39.2269 21.0647 39.3215 21.1404 39.3687C21.2255 39.4255 21.2727 39.52 21.2349 39.5862C21.1971 39.6524 21.1309 39.6997 21.0836 39.6997C21.0269 39.6997 20.9607 39.6146 20.9418 39.5106C20.9135 39.4066 20.8095 39.3215 20.7055 39.3215C20.592 39.3215 20.488 39.4066 20.4691 39.5106C20.4407 39.6146 20.3745 39.6997 20.3273 39.6997C20.2705 39.6997 20.2044 39.6429 20.1855 39.5578C20.1571 39.4822 20.2044 39.3971 20.2989 39.3687C20.3935 39.3404 20.4975 39.2364 20.5258 39.1324C20.5636 39.0284 20.6204 38.9433 20.6487 38.9433V38.9433ZM33.9513 39.0378C33.9985 39.0378 34.0364 39.104 34.0364 39.1797C34.0364 39.2647 33.9891 39.3215 33.9418 39.3215C33.8851 39.3215 33.8662 39.4633 33.8851 39.6335C33.9135 39.8037 33.904 39.9928 33.8662 40.0495C33.8284 40.1062 33.696 40.1818 33.5825 40.2102C33.4691 40.248 33.3745 40.248 33.3745 40.2197C33.3745 40.2007 33.4596 40.0306 33.5636 39.8415C33.6676 39.6618 33.7433 39.4349 33.7338 39.3404C33.7244 39.2458 33.7527 39.1418 33.8 39.104C33.8378 39.0662 33.9135 39.0378 33.9513 39.0378ZM15.7324 39.2553C15.8458 39.2648 15.9404 39.3593 15.9498 39.4633C15.9782 39.6051 15.9025 39.6807 15.7135 39.7469C15.4771 39.832 15.4393 39.9077 15.3825 40.3142C15.3447 40.5789 15.3447 40.8153 15.392 40.8342C15.4298 40.8626 15.5338 41.0327 15.6095 41.2124C15.6945 41.4015 15.7891 41.6473 15.8175 41.7608C15.8553 41.8742 15.9404 41.9971 16.0255 42.016C16.1011 42.0444 16.1673 42.1295 16.1673 42.2051C16.1673 42.2902 16.0822 42.3469 15.9782 42.3469C15.8742 42.3469 15.7607 42.2902 15.7418 42.2051C15.7135 42.1295 15.6284 42.0633 15.5527 42.0633C15.4676 42.0633 15.3825 42.1484 15.3636 42.2524C15.3353 42.3564 15.2596 42.432 15.1935 42.4131C15.1273 42.3942 15.0611 42.2713 15.0516 42.1295C15.0327 41.9688 15.0705 41.8837 15.1462 41.9026C15.2218 41.9215 15.2785 41.7986 15.288 41.5906C15.3069 41.4109 15.2691 41.2218 15.2218 41.1651C15.1651 41.1178 15.0895 40.8153 15.0611 40.5033C15.0044 39.9927 15.0138 39.9266 15.2029 39.8226C15.3164 39.7564 15.4015 39.624 15.392 39.5295C15.3825 39.4349 15.4109 39.3309 15.4582 39.2931C15.5055 39.2553 15.6284 39.2364 15.7324 39.2553ZM28.8458 39.2269C28.8931 39.2269 28.9498 39.312 28.9782 39.416C28.9971 39.52 29.0822 39.6051 29.1673 39.6051C29.2429 39.6051 29.328 39.5484 29.3564 39.4633C29.3753 39.3877 29.4887 39.3215 29.5927 39.3215C29.6967 39.3215 29.7818 39.3877 29.7818 39.4633C29.7818 39.5484 29.7156 39.6335 29.64 39.6524C29.5549 39.6807 29.4698 39.8037 29.432 39.9171C29.4036 40.0306 29.3185 40.2669 29.2429 40.4371C29.1578 40.6357 29.0538 40.7397 28.9309 40.7397C28.8269 40.7397 28.7324 40.7113 28.7324 40.6735C28.7324 40.6357 28.7796 40.56 28.8364 40.5033C28.8931 40.456 28.9215 40.2669 28.9025 40.0778C28.8931 39.8793 28.8364 39.7564 28.7607 39.7753C28.6945 39.7848 28.6378 39.6997 28.6284 39.5768C28.6189 39.4538 28.6473 39.3309 28.6945 39.2931C28.7324 39.2553 28.808 39.2269 28.8458 39.2269ZM16.7818 39.3687C16.848 39.3687 16.8764 39.4255 16.8575 39.4917C16.8385 39.5578 16.7818 39.6051 16.7345 39.6051C16.6778 39.6051 16.64 39.6429 16.6495 39.6808C16.6684 39.7186 16.64 39.8509 16.6022 39.9644C16.5738 40.0778 16.4982 40.1535 16.4509 40.1251C16.3942 40.1062 16.3375 40.1818 16.3091 40.2953C16.2902 40.4088 16.2429 40.7018 16.2145 40.9287C16.1767 41.2597 16.1956 41.392 16.328 41.5244C16.4225 41.6189 16.5455 41.6946 16.6116 41.6946C16.6778 41.6946 16.7345 41.6473 16.7345 41.5906C16.7345 41.5338 17.1978 41.496 17.9353 41.496C18.5971 41.496 19.2116 41.4866 19.3062 41.4771C19.4007 41.4582 19.4764 41.4109 19.4764 41.3542C19.4764 41.3069 19.5331 41.2597 19.6182 41.2597C19.6938 41.2597 19.76 41.3542 19.76 41.4771C19.76 41.6473 19.6655 41.7229 19.2778 41.8553C18.8618 41.9971 18.8051 42.0444 18.8524 42.2335C18.8807 42.3658 18.8618 42.4509 18.7862 42.4509C18.72 42.4509 18.5404 42.328 18.3891 42.1862C18.1244 41.9404 18.0582 41.9215 17.4436 41.9404C17.0749 41.9593 16.6495 41.9877 16.4982 41.9971C16.2429 42.016 16.2051 41.9877 16.1862 41.7608C16.1767 41.6189 16.1105 41.4771 16.0444 41.4487C15.9782 41.4204 15.9309 41.288 15.9404 41.1462C15.9498 41.0044 15.9215 40.8437 15.8742 40.7869C15.8175 40.7302 15.8458 40.5506 15.9498 40.3047C16.0444 40.0873 16.2429 39.7848 16.3942 39.6335C16.5455 39.4822 16.7156 39.3593 16.7818 39.3687V39.3687ZM30.3869 39.416C30.4531 39.4917 30.4342 39.5484 30.3207 39.6146C30.2262 39.6618 30.16 39.7658 30.16 39.8415C30.16 39.9266 30.0938 40.0211 30.0087 40.0589C29.9331 40.0968 29.848 40.2764 29.8196 40.456C29.7913 40.6451 29.6873 40.8626 29.5833 40.9571C29.4793 41.0517 29.4225 41.1651 29.4509 41.2124C29.4698 41.2691 29.6116 41.3542 29.7535 41.4109C29.8953 41.4677 30.4058 41.5149 30.888 41.5055C31.7578 41.496 31.7578 41.5055 31.6822 41.7135C31.6065 41.9026 31.5309 41.9215 30.9542 41.9215C30.5193 41.9215 30.3018 41.9688 30.2829 42.0444C30.264 42.1106 30.1222 42.1578 29.9709 42.1578C29.8102 42.1578 29.6022 42.2051 29.4982 42.2524C29.3564 42.328 29.2713 42.3186 29.1673 42.2051C29.0822 42.1295 28.9404 42.0633 28.8364 42.0633C28.7229 42.0633 28.6473 42.0066 28.6473 41.9215C28.6473 41.8458 28.6851 41.7607 28.7418 41.7324C28.7891 41.7135 29.016 41.7513 29.2335 41.8364C29.5455 41.9498 29.6967 41.9593 29.9236 41.8742C30.1505 41.7986 30.1789 41.7607 30.0655 41.6851C29.9804 41.6378 29.8196 41.6 29.7062 41.6C29.5927 41.6 29.4698 41.5527 29.4509 41.496C29.4225 41.4487 29.2335 41.4015 29.0255 41.4015C28.704 41.4015 28.6473 41.3731 28.6473 41.2124C28.6473 41.08 28.704 41.0327 28.8553 41.0327C28.9687 41.0327 29.1862 40.976 29.328 40.9098C29.4793 40.8437 29.5833 40.7113 29.5927 40.5978C29.5927 40.4938 29.6495 40.2386 29.7251 40.0306C29.8007 39.8226 29.9047 39.6429 29.9615 39.6146C30.0182 39.5957 30.1127 39.5106 30.1789 39.4444C30.264 39.3404 30.3113 39.3309 30.3869 39.416V39.416ZM20.7338 39.7186C20.8945 39.7469 20.9418 39.8226 20.9702 40.0778C20.9796 40.2669 20.9513 40.5317 20.8945 40.6735C20.8378 40.8153 20.7527 40.9287 20.7055 40.9287C20.6487 40.9287 20.6109 40.8437 20.6109 40.7397C20.6109 40.6357 20.6487 40.5317 20.7055 40.5033C20.7527 40.4844 20.8 40.3709 20.8 40.2669C20.8 40.1629 20.7338 40.0589 20.6582 40.0306C20.5731 40.0117 20.5164 39.9171 20.5164 39.8415C20.5258 39.7469 20.6015 39.6997 20.7338 39.7186ZM20.0909 39.8887C20.1665 39.8887 20.2233 39.9266 20.2138 39.9644C20.2138 40.0022 20.2138 40.0967 20.2138 40.1724C20.2327 40.3047 20.2422 40.3047 20.3273 40.1724C20.3935 40.0684 20.4124 40.1062 20.4124 40.3426C20.4124 40.5128 20.3745 40.6451 20.3273 40.6451C20.2705 40.6451 20.2327 40.7113 20.2327 40.7869C20.2327 40.872 20.1855 40.9287 20.1382 40.9287C20.0815 40.9287 20.0436 40.8058 20.0436 40.6451C20.0436 40.4938 20.0058 40.3615 19.968 40.3615C19.9302 40.3615 19.9113 40.2575 19.9302 40.1251C19.9491 40.0022 20.0247 39.8887 20.0909 39.8887V39.8887ZM33.8851 40.3898C33.9418 40.4088 33.9985 40.5411 34.008 40.6829C34.0269 40.8815 33.9891 40.9287 33.8473 40.9287C33.7338 40.9287 33.6582 40.872 33.6582 40.7869C33.6582 40.7113 33.6771 40.5884 33.7149 40.5033C33.7527 40.4277 33.8284 40.3709 33.8851 40.3898V40.3898ZM33.2422 40.9287C33.2611 40.9287 33.2516 40.976 33.2233 41.0233C33.2044 41.08 33.2233 41.1178 33.28 41.1178C33.3273 41.1178 33.3745 41.1746 33.3745 41.2408C33.3745 41.3069 33.3178 41.3637 33.2516 41.3637C33.1855 41.3731 33.0247 41.4109 32.9018 41.4487C32.6655 41.5244 32.6655 41.5244 32.9396 41.2313C33.0909 41.0706 33.2233 40.9287 33.2422 40.9287ZM32.9491 41.7513C33.0531 41.7702 33.1855 41.7797 33.2516 41.7797C33.3178 41.7797 33.3745 41.8458 33.3745 41.9215C33.3745 42.0349 33.2422 42.0633 32.76 42.0633C32.2211 42.0633 32.136 42.0917 32.0982 42.2524C32.0509 42.432 31.9753 42.4415 31.1905 42.4226C30.7084 42.4131 30.3396 42.3564 30.3396 42.2997C30.3396 42.2524 30.6516 42.1862 31.0298 42.1578C31.408 42.1295 31.8145 42.0728 31.928 42.0349C32.0415 42.0066 32.1455 41.9309 32.1455 41.8742C32.1455 41.8269 32.2778 41.7702 32.448 41.7513C32.6182 41.7324 32.8356 41.7324 32.9491 41.7513ZM17.4058 42.1578C17.9164 42.1578 18.0582 42.1957 18.0582 42.2997C18.0582 42.4131 17.9164 42.4415 17.3964 42.4415C17.0276 42.4415 16.7062 42.4131 16.6873 42.3753C16.6589 42.3375 16.6684 42.2713 16.6967 42.2335C16.7345 42.1957 17.056 42.1578 17.4058 42.1578ZM19.5331 42.1578C19.6655 42.1578 19.76 42.2146 19.76 42.2997C19.76 42.3942 19.6655 42.4415 19.5236 42.4415C19.3913 42.4415 19.2589 42.4131 19.24 42.3753C19.2116 42.3375 19.2211 42.2713 19.2495 42.2335C19.2873 42.1957 19.4102 42.1578 19.5331 42.1578Z" fill="#CBFF56"/>
<path fill-rule="evenodd" clip-rule="evenodd" d="M18.7673 13.1702C19.5142 13.1891 19.7033 13.2269 20.2611 13.5011C20.7527 13.7375 21.0175 13.9455 21.4429 14.4371C21.7455 14.7964 22.0196 15.1746 22.0575 15.288C22.1236 15.496 22.1615 15.5055 23.2771 15.496C24.2036 15.4866 24.44 15.5055 24.44 15.6095C24.44 15.6946 24.3455 15.7324 24.2036 15.7324C24.0713 15.7229 23.6647 15.6946 23.2865 15.6851C22.8233 15.6567 22.568 15.6851 22.4829 15.7607C22.3978 15.8553 22.3978 15.8836 22.5018 15.8931C22.5775 15.8931 22.9935 15.8931 23.4189 15.8931C23.8822 15.8836 24.2036 15.9215 24.2036 15.9782C24.2036 16.0349 23.7782 16.0727 23.1164 16.0727C22.0385 16.0727 22.0291 16.0727 22.0764 15.8553C22.1047 15.7324 22.0575 15.5906 21.9535 15.496C21.8684 15.4109 21.7455 15.3636 21.6793 15.4015C21.6036 15.4393 21.5942 15.5055 21.6509 15.6C21.7076 15.6756 21.7455 15.7702 21.7455 15.808C21.7455 15.8553 21.6225 15.8836 21.4618 15.8836C21.2727 15.8836 21.1782 15.8364 21.1782 15.7418C21.1782 15.6662 21.2444 15.5716 21.32 15.5244C21.4051 15.4866 21.4429 15.392 21.4145 15.288C21.3862 15.2029 21.3295 15.1273 21.2727 15.1273C21.216 15.1273 21.1782 15.1651 21.1782 15.2218C21.1782 15.2691 21.0742 15.3542 20.9418 15.4109C20.7527 15.4866 20.7149 15.5622 20.7244 15.7891C20.7433 16.016 20.7905 16.0727 20.9135 16.0255C21.0175 15.9971 21.112 16.0349 21.1498 16.1295C21.1971 16.2146 21.32 16.2618 21.4618 16.2524C21.5942 16.2429 21.944 16.2429 22.2371 16.2429C22.7855 16.2618 22.7855 16.2618 22.7571 16.5455C22.7382 16.8196 22.7287 16.8196 22.5964 16.64C22.4829 16.4887 22.36 16.4509 21.9156 16.4793C21.6131 16.4887 21.3673 16.5266 21.3673 16.5644C21.3673 16.6116 21.4429 16.6778 21.528 16.7251C21.6225 16.7629 21.6604 16.8291 21.6036 16.848C21.5469 16.8764 21.2065 16.8196 20.8473 16.7156C20.488 16.6116 19.9491 16.4887 19.6655 16.4415C19.3818 16.3847 19.1076 16.3091 19.0509 16.2524C18.9879 16.1956 19.0099 16.1673 19.1171 16.1673C19.2211 16.1673 19.2873 16.0916 19.2873 15.9782C19.2873 15.8269 19.2211 15.7891 19.0036 15.7891C18.8429 15.7891 18.616 15.7418 18.4836 15.6946C18.3513 15.6378 18.2473 15.5433 18.2473 15.4771C18.2473 15.392 18.5498 15.3542 19.3818 15.3353C20.0436 15.3258 20.6015 15.2691 20.7244 15.2029C20.8473 15.1367 20.9702 15.0706 21.008 15.0611C21.0553 15.0422 21.1215 15.0327 21.1782 15.0327C21.2349 15.0327 21.2444 14.9571 21.216 14.8626C21.1687 14.7302 21.1876 14.7396 21.3105 14.8909C21.4524 15.0706 21.4618 15.0706 21.528 14.9098C21.5784 14.7901 21.5564 14.705 21.4618 14.6546C21.3862 14.6073 21.2538 14.6073 21.1782 14.6451C21.1025 14.6924 21.008 14.7964 20.9607 14.8815C20.9229 14.9666 20.7811 15.0327 20.6109 15.0327C20.4218 15.0327 20.3273 14.9855 20.3273 14.8909C20.3273 14.8153 20.2233 14.7302 20.0909 14.7018C19.9585 14.6735 19.8545 14.5884 19.8545 14.5127C19.8545 14.4371 19.7884 14.3709 19.7127 14.3709C19.6371 14.3709 19.5709 14.4371 19.5709 14.5127C19.5709 14.5884 19.6371 14.6546 19.7127 14.6546C19.7884 14.6546 19.8545 14.7207 19.8545 14.7964C19.8545 14.872 19.7884 14.9382 19.7127 14.9382C19.6371 14.9382 19.5709 14.9666 19.5709 15.0044C19.5709 15.0516 19.4102 15.0706 19.2116 15.0706C19.0225 15.0611 18.7011 15.0516 18.5025 15.0422C18.2189 15.0327 18.1433 14.9949 18.1244 14.8153C18.1055 14.7018 18.0865 14.7586 18.096 14.9382C18.1055 15.2313 18.0771 15.2691 17.8502 15.2691C17.6516 15.2691 17.6233 15.2975 17.7084 15.392C17.7745 15.4582 17.7935 15.5149 17.7462 15.5055C17.7084 15.5055 17.6138 15.4393 17.5382 15.3636C17.4625 15.288 17.4247 15.2124 17.4625 15.1935C17.5098 15.184 17.6138 15.0138 17.6989 14.8153C17.7935 14.6262 17.8691 14.4087 17.8691 14.3426C17.8785 14.2858 17.8124 14.1629 17.7273 14.0873C17.6422 14.0116 17.576 13.8698 17.5855 13.7753C17.5855 13.6902 17.6611 13.5767 17.7462 13.5295C17.8407 13.4822 17.888 13.416 17.8407 13.3876C17.8029 13.3593 17.7084 13.3971 17.6327 13.4727C17.5571 13.5484 17.4531 13.5956 17.3964 13.5673C17.3396 13.5389 17.2735 13.5956 17.2356 13.6807C17.1978 13.7753 17.16 13.8887 17.1505 13.9455C17.1411 13.9927 17.1316 14.0967 17.1222 14.1535C17.1222 14.2196 17.0749 14.2575 17.0182 14.2291C16.9615 14.2007 16.9047 14.2669 16.8764 14.3709C16.848 14.4749 16.8669 14.6451 16.9236 14.7491C16.9804 14.8531 17.0276 15.0422 17.0371 15.1746C17.056 15.3069 17.1222 15.4109 17.2073 15.4109C17.2829 15.4204 17.4247 15.4771 17.5098 15.5527C17.6044 15.6378 17.6422 15.7135 17.5855 15.7418C17.5287 15.7702 17.472 15.7229 17.4436 15.6473C17.4153 15.5716 17.3396 15.5338 17.2735 15.5622C17.2167 15.5906 17.0655 15.496 16.9425 15.3447C16.8291 15.2029 16.7062 14.9287 16.6778 14.7491C16.64 14.5506 16.6778 14.2669 16.7629 14.04C16.848 13.832 17.0276 13.5767 17.1789 13.4727C17.3207 13.3687 17.5476 13.2553 17.68 13.2175C17.8124 13.1796 18.304 13.1607 18.7673 13.1702V13.1702ZM34.5942 13.2364L34.6036 17.4153C34.6036 20.0342 34.6415 21.6415 34.6982 21.6982C34.7549 21.7455 34.7927 21.8211 34.7927 21.8589C34.7927 21.9062 34.6604 21.9346 34.5091 21.9346C34.2633 21.9346 34.2349 21.9062 34.2916 21.7171C34.3295 21.6036 34.3673 19.7884 34.3862 17.68C34.4145 14.6735 34.3956 13.8036 34.3011 13.624C34.1971 13.4349 34.1687 14.0589 34.1309 17.4531C34.1025 19.6844 34.112 21.6509 34.1498 21.8116C34.1971 21.9818 34.2633 22.1236 34.32 22.1236C34.3767 22.1236 34.4145 22.1615 34.4145 22.2182C34.4145 22.2655 34.3105 22.3127 34.1782 22.3127C34.0458 22.3127 33.9418 22.256 33.9418 22.1898C33.9418 22.1331 33.9418 20.1382 33.9418 17.7746C33.9418 15.4109 33.9418 13.416 33.9418 13.3498C33.9418 13.2836 34.0742 13.2364 34.5942 13.2364ZM35.1898 13.2364C35.4167 13.2364 35.4451 13.2647 35.3789 13.4349C35.3411 13.5484 35.2844 13.6524 35.2371 13.6713C35.1993 13.6902 35.1709 13.9927 35.1709 14.3426C35.1709 14.7018 35.2182 15.0233 35.2749 15.08C35.3316 15.1273 35.3505 15.2786 35.3222 15.4109C35.2938 15.5433 35.1804 15.7418 35.0764 15.8553C34.9724 15.9782 34.8495 16.0538 34.7927 16.0255C34.736 15.9971 34.6982 15.8742 34.6982 15.7418C34.6982 15.5906 34.7549 15.5055 34.84 15.5055C34.9251 15.5055 34.9818 15.4204 34.9818 15.2691C34.9818 15.1367 34.944 15.0327 34.8873 15.0327C34.8305 15.0327 34.7927 14.7491 34.7927 14.3709C34.7927 13.9927 34.8305 13.7091 34.8873 13.7091C34.944 13.7091 34.9724 13.6051 34.9535 13.4727C34.9251 13.2647 34.9535 13.2364 35.1898 13.2364ZM35.6909 13.4255C35.7098 13.4255 35.7098 13.8604 35.7004 14.3898C35.7004 14.9287 35.6531 15.3636 35.5964 15.3826C35.5396 15.4015 35.4924 15.0706 35.4735 14.5411C35.464 13.9833 35.4924 13.6146 35.5585 13.5389C35.6153 13.4822 35.6815 13.4255 35.6909 13.4255V13.4255ZM17.8691 15.7891C18.0015 15.7891 18.2662 15.8364 18.4553 15.8836C18.6727 15.9404 18.8145 16.0349 18.8145 16.12C18.8145 16.2429 18.7578 16.2429 18.408 16.1389C18.1905 16.0727 17.9258 15.9593 17.8218 15.9026C17.6422 15.7986 17.6422 15.7986 17.8691 15.7891ZM14.7302 17.7746C14.768 17.7746 14.8815 17.8407 14.9855 17.9164C15.0895 17.992 15.2407 18.0298 15.3164 18.0015C15.392 17.9731 15.3542 18.0204 15.2218 18.096C15.0895 18.1716 14.9476 18.2378 14.8909 18.2378C14.8342 18.2473 14.7396 18.2095 14.6735 18.1716C14.6073 18.1338 14.5789 18.0298 14.6167 17.9353C14.6451 17.8502 14.7018 17.7746 14.7302 17.7746V17.7746ZM22.2371 20.5826C22.2749 20.6109 22.2938 20.8378 22.2844 21.0931C22.2655 21.4618 22.2087 21.6036 21.9345 21.8778C21.7549 22.0669 21.4524 22.2749 21.2727 22.3316C21.0931 22.3978 20.6015 22.4451 20.1855 22.4356C19.7695 22.4356 19.2967 22.3789 19.1455 22.3127C18.9847 22.2466 18.8429 22.1898 18.8145 22.1993C18.7862 22.1993 18.5215 22.0669 18.2095 21.9062C17.9069 21.736 17.5855 21.4996 17.5004 21.3767C17.3491 21.1498 17.3491 21.1498 17.5571 21.2538C17.68 21.32 17.8124 21.3484 17.8691 21.32C17.9258 21.2916 17.9542 21.32 17.9353 21.3862C17.9258 21.4429 18.1244 21.5564 18.3702 21.6415C18.6538 21.736 18.8051 21.8306 18.7673 21.9062C18.7389 21.9818 18.7862 22.0291 18.8807 22.0291C18.9753 22.0291 19.136 21.9724 19.24 21.8873C19.344 21.8116 19.552 21.7549 19.7127 21.7549C19.864 21.7549 20.0815 21.7927 20.1855 21.8306C20.2895 21.8684 20.5825 21.8684 20.8473 21.8306C21.2255 21.7644 21.3389 21.7833 21.3862 21.8873C21.4335 21.9629 21.4996 22.0291 21.5564 22.0291C21.6131 22.0291 21.7171 21.8967 21.7927 21.7455C21.8778 21.5658 21.8967 21.4429 21.84 21.4146C21.7833 21.3862 21.7455 21.32 21.7455 21.2727C21.7455 21.216 21.84 21.1687 21.9535 21.1498C22.1331 21.1309 22.1709 21.0742 22.1709 20.8284C22.1709 20.6676 22.1993 20.5542 22.2371 20.5826V20.5826ZM35.0575 22.0291C35.1425 22.0764 35.3033 22.1426 35.4073 22.1804C35.5585 22.2466 35.5113 22.2655 35.2182 22.2844C35.0102 22.3033 34.8305 22.3033 34.8116 22.2938C34.8022 22.2749 34.8116 22.1898 34.84 22.1047C34.8778 21.9913 34.944 21.9629 35.0575 22.0291V22.0291ZM17.5382 24.1091C17.5665 24.1091 17.7178 24.1847 17.8691 24.2698C18.0298 24.3644 18.1244 24.4684 18.0865 24.5062C18.0393 24.5346 17.9447 24.544 17.8691 24.5251C17.7935 24.4967 17.6705 24.3927 17.6044 24.2982C17.5382 24.1942 17.5098 24.1091 17.5382 24.1091ZM18.3796 24.5251C18.4364 24.544 18.7767 24.6669 19.1265 24.7898C19.5552 24.9348 19.7537 25.0451 19.7222 25.1207C19.6844 25.1869 19.6655 25.3004 19.6655 25.3571C19.6655 25.4422 19.4669 25.4895 19.0509 25.4989C18.6916 25.5178 18.4364 25.4895 18.4364 25.4327C18.4364 25.376 18.5782 25.3287 19.0509 25.2815L18.7956 25.1491C18.5687 25.0262 18.5215 25.0262 18.304 25.168C18.1716 25.2626 17.992 25.3193 17.9164 25.2909C17.8407 25.2626 17.7745 25.1775 17.7745 25.1018C17.7745 25.0167 17.8596 24.96 17.992 24.96C18.1055 24.96 18.2662 24.9127 18.3418 24.8655C18.4364 24.8024 18.4458 24.7709 18.3702 24.7709C18.304 24.7709 18.2567 24.7047 18.2567 24.6196C18.2662 24.5346 18.3135 24.4967 18.3796 24.5251V24.5251ZM22.568 24.7426C22.6625 24.7615 22.672 24.7993 22.5775 24.8938C22.5113 24.96 22.3695 25.0546 22.2655 25.0924C22.1615 25.1302 21.6509 25.1869 21.1309 25.2153C20.5258 25.2531 20.1193 25.2342 19.9964 25.168C19.864 25.0924 19.8451 25.0546 19.9491 25.0546C20.0247 25.0451 20.4313 25.0262 20.8473 24.9978C21.2633 24.9789 21.7927 24.9033 22.0196 24.8371C22.2465 24.7615 22.4924 24.7236 22.568 24.7426V24.7426ZM21.3767 36.5891C21.424 36.5891 21.4618 36.6553 21.4618 36.7309C21.4618 36.8066 21.3956 37.0051 21.32 37.1564C21.2444 37.3076 21.1404 37.44 21.0836 37.44C21.0269 37.44 21.0175 37.3644 21.0458 37.2698C21.0742 37.1847 21.1404 36.9956 21.1971 36.8444C21.2444 36.7026 21.3295 36.5891 21.3767 36.5891ZM17.5004 37.3266C17.5382 37.4116 17.576 37.5629 17.576 37.648C17.5855 37.7615 17.5193 37.8182 17.3964 37.8182C17.2924 37.8182 17.2073 37.7898 17.2073 37.7426C17.2073 37.7047 17.2545 37.5629 17.3113 37.4211C17.4058 37.2036 17.4342 37.1847 17.5004 37.3266Z" fill="#CAFF58"/>
<path d="M16.1673 11.1186C16.5076 10.9673 16.9898 10.8066 17.2545 10.7782C17.5193 10.7404 17.8407 10.7026 17.992 10.6931C18.1338 10.6931 18.5593 10.7309 18.928 10.7877C19.3062 10.8444 19.8262 10.9862 20.0909 11.0997C20.3462 11.2226 20.7905 11.4684 21.0553 11.6575C21.3294 11.8466 21.5564 12.0357 21.5564 12.0735C21.5658 12.1208 21.6604 12.2626 21.9818 12.6597L21.944 11.9789C21.9251 11.5913 21.9534 11.2037 22.0196 11.0808C22.1236 10.8822 22.1614 10.8728 24.3454 10.92L24.3927 13.0473C24.4211 14.2197 24.4116 15.2502 24.3644 15.3353C24.3076 15.4866 24.1564 15.5055 22.1709 15.5055L22.0196 15.2029C21.9345 15.0328 21.6414 14.6451 21.3578 14.3426C21.0174 13.9707 20.6424 13.6871 20.2327 13.4917C19.656 13.208 19.552 13.1891 18.5782 13.1891C17.6138 13.1891 17.5193 13.208 17.2262 13.4255C17.056 13.5578 16.848 13.832 16.7724 14.04C16.6684 14.2858 16.64 14.5411 16.6778 14.7491C16.7156 14.9288 16.8007 15.1651 16.8669 15.2691C16.9331 15.3731 17.2356 15.5906 17.5476 15.7513C17.8502 15.912 18.3418 16.1106 18.6254 16.1957C18.9091 16.2808 19.3818 16.3848 19.6654 16.4415C19.9491 16.4982 20.6487 16.6684 21.2254 16.8197C21.8022 16.9709 22.5207 17.2073 22.8327 17.3491C23.1447 17.4815 23.6269 17.7651 23.8916 17.9731C24.1658 18.1717 24.4967 18.5215 24.6291 18.7484C24.7614 18.9658 24.9316 19.3818 25.0073 19.6655C25.0829 19.9491 25.1491 20.4597 25.1491 20.8C25.1491 21.1404 25.0924 21.632 25.0167 21.8873C24.9505 22.152 24.7804 22.5869 24.648 22.8611C24.5062 23.1258 24.1942 23.5513 23.9389 23.7877C23.6931 24.024 23.3054 24.3171 23.0691 24.44C22.8327 24.5535 22.4073 24.7237 22.1236 24.8088C21.84 24.8938 21.2444 24.9789 20.8 24.9978C20.2044 25.0262 19.8356 24.9884 19.3534 24.856C19.0036 24.7615 18.4931 24.5818 18.2189 24.4589C17.9542 24.336 17.4625 23.9862 17.1316 23.6742C16.8007 23.3717 16.5171 23.0408 16.4887 22.9557C16.4698 22.8611 16.4225 22.7855 16.3753 22.7855C16.3374 22.7855 16.3185 23.2298 16.328 23.7782C16.3564 24.7426 16.3469 24.7709 16.1484 24.8182C16.0254 24.8466 15.4676 24.8655 13.8509 24.8182L13.8036 19.6655H16.2145L16.4698 20.1666C16.6116 20.4313 16.9709 20.8946 17.2734 21.1877C17.5949 21.5091 18.0771 21.8495 18.4364 22.0197C18.7767 22.1804 19.3062 22.36 19.6182 22.4168C19.9302 22.4735 20.3745 22.4924 20.6109 22.4546C20.8473 22.4262 21.1593 22.36 21.32 22.3128C21.4807 22.2655 21.736 22.0858 21.9062 21.9157C22.0764 21.7455 22.2465 21.4335 22.2938 21.2255C22.3505 20.9734 22.3442 20.737 22.2749 20.5164C22.2182 20.3273 22.1047 20.1004 22.0291 20.0058C21.9534 19.9113 21.632 19.7128 21.32 19.5709C21.008 19.4291 20.0531 19.1549 19.1927 18.9658C18.3324 18.7673 17.3585 18.5215 17.0182 18.4175C16.6778 18.3135 16.2051 18.1244 15.9498 18.0015C15.704 17.8786 15.3069 17.5949 15.0705 17.3775C14.8247 17.1506 14.5222 16.7818 14.3898 16.5455C14.248 16.3091 14.0873 15.8837 14.0211 15.6C13.9549 15.3164 13.8982 14.8248 13.8982 14.5128C13.8982 14.2008 13.9644 13.728 14.04 13.4728C14.1251 13.2175 14.2858 12.8298 14.4087 12.6218C14.5316 12.4138 14.8436 12.0546 15.0894 11.8182C15.3447 11.5913 15.8269 11.2793 16.1673 11.1186Z" fill="#024B40"/>
<path d="M26.9265 13.2458C26.8982 11.2226 26.9076 11.1186 27.0873 10.9957C27.2385 10.9011 28.3636 10.8728 32.6844 10.8728C37.4116 10.8728 38.1113 10.8917 38.1491 11.0146C38.1774 11.0902 38.1964 12.0924 38.1964 13.2364C38.1964 15.2218 38.1869 15.3164 38.0073 15.4109C37.9033 15.4677 37.3738 15.5055 36.8254 15.5055C36.1258 15.5055 35.8138 15.4677 35.7665 15.3826C35.7382 15.3258 35.7098 14.8626 35.7098 14.3709C35.7098 13.8793 35.7004 13.416 35.6814 13.3498C35.6531 13.2742 35.3884 13.2364 34.7927 13.2364C34.1782 13.2364 33.9418 13.2648 33.9418 13.3498V17.7746V22.1898C33.9418 22.2844 34.1687 22.3128 34.7738 22.3128C35.2276 22.3128 35.6436 22.3506 35.7098 22.3884C35.7854 22.4357 35.8327 22.8233 35.8422 23.5418C35.8516 24.1375 35.8327 24.6858 35.8044 24.7426C35.7571 24.8371 35.0291 24.8655 32.6371 24.856C30.9353 24.856 29.4982 24.8277 29.432 24.7898C29.3658 24.7426 29.3185 24.3549 29.3091 23.6837C29.2996 23.1069 29.2996 22.568 29.2996 22.4735C29.3091 22.3317 29.4131 22.3128 30.16 22.3128C30.6233 22.3128 31.0487 22.2938 31.1054 22.2655C31.1622 22.2371 31.2 20.6298 31.2 13.2364H30.4153C29.9898 13.2364 29.5927 13.2742 29.5265 13.312C29.4509 13.3561 29.4131 13.6618 29.4131 14.2291C29.4225 14.6924 29.4131 15.1746 29.4131 15.288C29.4036 15.5055 29.3847 15.5055 28.2313 15.4771C27.5789 15.4677 27.0305 15.4393 27.0022 15.4109C26.9738 15.3826 26.936 14.4088 26.9265 13.2458Z" fill="#024B40"/>
<path d="M13.8131 29.6968C13.7753 27.8437 13.7942 27.4655 13.9076 27.3993C13.9833 27.3615 16.3469 27.3237 24.2982 27.3237L24.3738 27.5411C24.4211 27.6546 24.4494 28.1935 24.44 28.7418C24.4211 29.7157 24.4116 29.7535 23.92 30.8218C23.6553 31.4175 23.1636 32.5048 22.8327 33.2328C22.5018 33.9608 21.7644 35.6248 21.1782 36.92C20.6014 38.2248 20.0153 39.52 19.8829 39.8037L19.8828 39.8038C19.7505 40.0874 19.552 40.5128 19.4574 40.7491C19.3534 40.9855 19.2211 41.2029 19.1644 41.2408C19.0982 41.2786 18.4647 41.3164 17.7556 41.3164C16.7913 41.3164 16.4414 41.288 16.4131 41.2029C16.3942 41.1368 16.5454 40.7208 16.7534 40.2764C16.9614 39.832 17.6422 38.3666 18.2662 37.0146C18.8902 35.6626 19.5993 34.1498 19.8262 33.6582C20.0625 33.1666 20.3745 32.5048 20.5164 32.1928C20.6582 31.8808 20.9513 31.2473 21.1687 30.7746C21.3862 30.3113 21.5564 29.8953 21.5564 29.8575C21.5564 29.8102 20.4218 29.7913 16.4982 29.8291L16.4793 30.8502C16.4509 31.8146 16.4414 31.8618 16.2429 31.9091C16.12 31.9375 15.5338 31.9469 13.8509 31.9091L13.8131 29.6968Z" fill="#024B40"/>
<path d="M27.2385 29.6968C27.2007 27.8437 27.2196 27.4655 27.3331 27.3993C27.4087 27.3615 29.744 27.3237 32.5236 27.3237C35.5396 27.3237 37.6385 27.3615 37.7236 27.4182C37.8276 27.4844 37.8749 27.7397 37.9033 28.4771C37.9316 29.4226 37.9222 29.4793 37.5818 30.3018C37.3927 30.7651 37.0807 31.4742 36.9011 31.8618C36.7214 32.2495 35.6909 34.528 32.6654 41.2691L31.3607 41.2975C30.6516 41.3069 29.9993 41.288 29.9331 41.2502C29.8196 41.1935 30.0844 40.5317 31.2567 38.0073C32.0604 36.2677 32.9113 34.4429 33.1382 33.9702C33.3745 33.488 33.5636 33.072 33.5636 33.0437C33.5636 33.0153 33.7338 32.6277 33.9513 32.1738C34.1687 31.7106 34.4902 31.0204 34.6698 30.6328C34.84 30.2451 34.9534 29.8953 34.9156 29.8575C34.8778 29.8102 33.7338 29.7913 29.9236 29.8291L29.9047 30.7746C29.8858 31.3891 29.8385 31.7578 29.7629 31.8335C29.6778 31.9186 29.2996 31.9469 27.2764 31.9091L27.2385 29.6968Z" fill="#024B40"/>
<path d="M17.9636 13.9643C17.9636 13.5767 17.9636 13.5672 18.3607 13.4632C18.5876 13.4065 18.8145 13.3687 18.8713 13.3876C18.928 13.4065 19.0982 13.4538 19.2494 13.4822C19.4574 13.5294 19.4953 13.5578 19.3818 13.624C19.3062 13.6712 19.0131 13.7091 18.7484 13.7091C18.3134 13.7091 18.2473 13.7374 18.2473 13.8982C18.2473 14.0022 18.2284 14.1534 18.2 14.2291C18.1716 14.3047 18.1149 14.3709 18.0582 14.3709C18.0109 14.3709 17.9636 14.1912 17.9636 13.9643Z" fill="#CBFF56"/>
<path d="M19.7127 14.0872C19.6087 14.0872 19.5804 14.0022 19.5993 13.8036C19.6087 13.6051 19.6654 13.52 19.7884 13.52C19.8734 13.52 19.9396 13.5767 19.9302 13.6334V13.9171C19.9491 14.0589 20.0058 14.0778 20.3084 14.0211C20.6109 13.9643 20.6487 13.9738 20.592 14.1156C20.5353 14.248 20.5636 14.2669 20.7338 14.248C20.8756 14.2196 20.9513 14.2669 20.9702 14.3898C20.9796 14.4843 20.9324 14.5789 20.8756 14.5978C20.8094 14.6262 20.6676 14.5883 20.5636 14.5127C20.4596 14.4371 20.28 14.3709 20.1665 14.3709C20.0436 14.3709 19.9302 14.3047 19.9018 14.2291C19.8734 14.1534 19.7884 14.0872 19.7127 14.0872Z" fill="#CBFF56"/>
<path d="M19.2211 15.6851C19.1738 15.6283 19.2022 15.5432 19.2778 15.5054C19.3534 15.4582 19.5614 15.4487 19.7505 15.4771C19.9396 15.5054 20.1287 15.5527 20.1665 15.5905C20.2044 15.6189 20.176 15.704 20.0909 15.7607C20.0058 15.8363 19.8073 15.8647 19.6182 15.8363C19.4385 15.808 19.2589 15.7418 19.2211 15.6851Z" fill="#CBFF56"/>
<path d="M19.9018 16.3091C19.7694 16.2807 19.6844 16.224 19.7127 16.1672C19.7505 16.1105 19.9585 16.0727 20.1854 16.0727C20.5069 16.0727 20.6393 16.12 20.7338 16.2618C20.7905 16.3658 20.9513 16.4603 21.0836 16.4603C21.2727 16.4698 21.2822 16.4792 21.1309 16.5171C21.0269 16.536 20.8 16.5076 20.6393 16.4603C20.4029 16.3847 20.2894 16.3847 20.1665 16.4698C20.0436 16.5643 20.0247 16.5643 20.072 16.4698C20.1193 16.3942 20.0531 16.3374 19.9018 16.3091Z" fill="#CBFF56"/>
<path d="M17.1978 14.6829C17.1316 14.4938 17.1316 14.352 17.2073 14.2008C17.264 14.0778 17.3585 14.0117 17.4153 14.04C17.4625 14.0684 17.5098 14.2858 17.5004 14.5222C17.4909 14.7491 17.4531 14.9382 17.3964 14.9382C17.3396 14.9382 17.2545 14.8248 17.1978 14.6829Z" fill="#CAFF58"/>
<path d="M22.9934 16.8102C22.9273 16.744 22.8705 16.6022 22.88 16.4982C22.88 16.3375 22.8989 16.3375 22.9745 16.4509C23.0596 16.5738 23.0691 16.5738 23.0691 16.4509C23.0691 16.328 23.0785 16.328 23.1636 16.4509C23.2487 16.5738 23.2582 16.5738 23.2582 16.4509C23.2582 16.328 23.2676 16.328 23.3527 16.4509C23.4378 16.5738 23.4473 16.5738 23.4473 16.4509C23.4473 16.328 23.4567 16.328 23.5418 16.4509C23.6269 16.5738 23.6364 16.5738 23.6364 16.4509C23.6364 16.3753 23.6553 16.328 23.6836 16.3564C23.712 16.3848 23.7025 16.4888 23.6647 16.5833C23.6174 16.6778 23.4851 16.8008 23.3527 16.848C23.192 16.8953 23.0785 16.8858 22.9934 16.8102Z" fill="#CAFF58"/>
<path d="M21.7076 20.8757C21.6793 20.8095 21.6887 20.7244 21.7171 20.6866C21.7549 20.6393 21.7927 20.6109 21.8116 20.6109C21.8211 20.6109 21.9156 20.6393 22.0007 20.6677C22.0953 20.696 22.1614 20.7811 22.1425 20.8568C22.1331 20.9324 22.0385 20.9891 21.9345 20.9891C21.8305 20.9891 21.7265 20.9324 21.7076 20.8757Z" fill="#CAFF58"/>
<path d="M20.1854 30.5571C20.1287 30.5193 20.0247 30.4058 19.9491 30.3018C19.8167 30.1128 19.8262 30.1033 20.1571 30.1128C20.4596 30.1128 20.4974 30.1411 20.488 30.3397C20.4785 30.4626 20.4313 30.5855 20.3745 30.5949C20.3178 30.6138 20.2422 30.5949 20.1854 30.5571Z" fill="#CAFF58"/>
<path d="M28.9309 32.6182C28.9309 32.5615 29.0444 32.5142 29.1956 32.4953C29.3374 32.4764 29.5549 32.4858 29.6873 32.5048C29.8196 32.5331 29.9614 32.5804 30.0182 32.6182C30.0812 32.6686 30.078 32.7159 30.0087 32.76C29.952 32.7978 29.6873 32.7978 29.4131 32.7695C29.1484 32.7411 28.9309 32.6749 28.9309 32.6182Z" fill="#CAFF58"/>
</svg>
